EBGaramond.sfdir

StartChar: percent
Encoding: 5 37 1016
Width: 735
VWidth: 0
Flags: W
HStem: -14 24<530.256 577.823> 268 24<163.256 210.823> 321 27<524.199 573.969> 603 27<157.199 206.969> 635 20G<578.5 590.5>
VStem: 49 70<342.541 542.955> 249 70<354.411 557.256> 416 70<60.5412 260.955> 616 70<72.4111 275.256>
LayerCount: 3
Fore
SplineSet
550 321 m 0
 511 321 486 242 486 181 c 0
 486 110 509 10 554 10 c 0
 598 10 616 96 616 160 c 2
 616 165 l 9
 615 231 590 321 550 321 c 0
561 348 m 16
 644 348 686 262 686 177 c 0
 686 83 638 -14 543 -14 c 8
 457 -14 416 74 416 166 c 0
 416 252 470 348 561 348 c 16
183 603 m 0
 144 603 119 524 119 463 c 0
 119 392 142 292 187 292 c 0
 231 292 249 378 249 442 c 2
 249 447 l 9
 248 513 223 603 183 603 c 0
194 630 m 16
 277 630 319 544 319 459 c 0
 319 365 271 268 176 268 c 8
 90 268 49 356 49 448 c 0
 49 534 103 630 194 630 c 16
136 -11 m 10
 548 638 l 26
 557 652 570 655 587 655 c 16
 594 655 601 648 601 642 c 0
 601 641 601 639 600 638 c 10
 188 -11 l 26
 180 -24 167 -26 152 -26 c 16
 144 -26 135 -20 135 -14 c 0
 135 -13 135 -12 136 -11 c 10
EndSplineSet
Validated: 1
Substitution2: "sups subtable" percent.sups
Substitution2: "sinf subtable" percent.sinf
Substitution2: "ordn subtable" percent.ordn
Substitution2: "subs subtable" percent.subs
EndChar

StartChar: parenleft
Encoding: 8 40 107
Width: 315
VWidth: 0
Flags: HW
HStem: 685 20G<238 246.5>
VStem: 40 60<123.565 411.858>
LayerCount: 3
Fore
SplineSet
264 -192 m 4
 264 -206 250 -214 237 -214 c 4
 231 -214 225 -212 220 -207 c 4
 149 -136 40 99 40 269 c 4
 40 439 145 623 216 694 c 4
 222 700 233 705 243 705 c 4
 250 705 265 698 265 689 c 4
 265 687 254 672 252 670 c 4
 181 599 100 451 100 281 c 4
 100 111 177 -102 248 -173 c 4
 250 -175 264 -190 264 -192 c 4
EndSplineSet
Substitution2: "sups subtable" parenleft.sups
Substitution2: "sinf subtable" parenleft.sinf
Substitution2: "ordn subtable" parenleft.ordn
Substitution2: "subs subtable" parenleft.subs
EndChar

StartChar: parenright
Encoding: 41 41 108
Width: 316
VWidth: 0
Flags: W
HStem: 684 20G<61.5 72>
VStem: 206 60<134.62 415.495>
LayerCount: 3
Fore
SplineSet
266 281 m 0
 266 111 154 -136 83 -207 c 0
 79 -211 73 -213 66 -213 c 0
 52 -213 36 -205 36 -195 c 0
 36 -192 43 -184 46 -181 c 0
 117 -110 206 97 206 267 c 0
 206 437 119 608 48 679 c 0
 45 682 40 688 40 691 c 0
 40 700 56 704 67 704 c 8
 77 704 84 701 91 694 c 0
 162 623 266 451 266 281 c 0
EndSplineSet
Validated: 1
Substitution2: "sups subtable" parenright.sups
Substitution2: "sinf subtable" parenright.sinf
Substitution2: "ordn subtable" parenright.ordn
Substitution2: "subs subtable" parenright.subs
EndChar

StartChar: hyphen
Encoding: 45 45 93
Width: 274
VWidth: 0
Flags: W
HStem: 170 85
VStem: 29 216<195.001 230.422>
LayerCount: 3
Fore
SplineSet
35 170 m 4
 30 170 29 172 29 176 c 0
 29 198 35 229 45 230 c 0
 109 239 173 248 237 255 c 0
 241 255 245 253 245 249 c 0
 245 224 240 197 224 195 c 0
 164 186 103 176 35 170 c 4
EndSplineSet
Validated: 1
Substitution2: "sups subtable" hyphen.sups
Substitution2: "sinf subtable" hyphen.sinf
Substitution2: "ordn subtable" hyphen.ordn
Substitution2: "subs subtable" hyphen.subs
EndChar

StartChar: three
Encoding: 51 51 84
Width: 372
VWidth: 0
Flags: W
HStem: -190 44<60.9649 154.993> 358 55<109.57 203.978>
VStem: 219 70<235.612 342.711> 243 76<-41.8585 84.5313>
LayerCount: 3
Fore
SplineSet
181 413 m 0xe0
 246 413 289 372 289 309 c 0xe0
 289 277 273 212 195 167 c 0
 191 165 191 161 196 161 c 0
 288 159 319 97 319 53 c 0
 319 -68 234 -130 155 -169 c 0
 131 -181 98 -190 86 -190 c 0
 75 -190 59 -186 59 -176 c 0
 59 -164 74 -146 86 -146 c 0
 95 -146 136 -145 153 -136 c 0
 204 -109 243 -79 243 17 c 0xd0
 243 49 231 112 157 112 c 0
 126 112 99 92 95 92 c 0
 87 92 78 94 78 101 c 16
 78 110 97 128 109 135 c 0
 131 148 150 160 179 186 c 0
 197 202 219 239 219 292 c 0
 219 330 194 358 155 358 c 0
 110 358 86 337 59 308 c 0
 56 304 48 300 43 300 c 8
 37 300 36 305 36 312 c 0
 36 333 104 413 181 413 c 0xe0
EndSplineSet
Validated: 1
Substitution2: "'tnum' Tabular Numbers lookup 25 subtable" three.taboldstyle
Substitution2: "'lnum' Lining Figures lookup 23 subtable" three.lnum
Substitution2: "Single Substitution lookup 22 subtable" three.ordn
Substitution2: "Single Substitution lookup 21 subtable" three.subs
Substitution2: "sups subtable" three.sups
Substitution2: "sinf subtable" three.sinf
Substitution2: "ordn subtable" three.ordn
Substitution2: "subs subtable" three.subs
EndChar

StartChar: five
Encoding: 21 53 78
Width: 359
VWidth: 0
Flags: W
HStem: -189 29<52.529 134.003> 328 87<168.22 262.013>
VStem: 58 33<213.5 307.352> 229 80<-70.5065 72.3775>
LayerCount: 3
Fore
SplineSet
86 -189 m 0
 71 -189 52 -186 52 -177 c 0
 52 -167 73 -162 85 -160 c 0
 160 -147 229 -106 229 0 c 0
 229 67 171 129 108 167 c 0
 70 190 58 205 58 222 c 0
 58 276 81 330 89 347 c 0
 98 366 115 376 125 380 c 0
 165 395 257 415 272 415 c 0
 279 415 283 408 283 401 c 0
 283 376 259 333 232 328 c 0
 181 318 147 313.600006104 110 309 c 0
 103.024657857 308.13279415 91 296.276640273 91 276 c 0
 91 268 97 260 111 252 c 0
 169 220 219 178 247 150 c 0
 274 123 309 69 309 17 c 0
 309 -112 186 -189 86 -189 c 0
EndSplineSet
Validated: 1
Substitution2: "'tnum' Tabular Numbers lookup 25 subtable" five.taboldstyle
Substitution2: "'lnum' Lining Figures lookup 23 subtable" five.lnum
Substitution2: "Single Substitution lookup 22 subtable" five.ordn
Substitution2: "Single Substitution lookup 21 subtable" five.subs
Substitution2: "sups subtable" five.sups
Substitution2: "sinf subtable" five.sinf
Substitution2: "ordn subtable" five.ordn
Substitution2: "subs subtable" five.subs
EndChar

StartChar: equal
Encoding: 29 61 98
Width: 590
VWidth: 0
Flags: W
HStem: 143 50<53.1042 534.632> 314 50<53.1042 534.632>
LayerCount: 3
Fore
SplineSet
74 193 m 26
 527 193 l 18
 533 193 541 188 541 182 c 0
 541 181 540 180 540 179 c 8
 534 162 528 143 509 143 c 26
 64 143 l 26
 57 143 50 149 50 155 c 0
 50 164 56 193 74 193 c 26
74 364 m 26
 527 364 l 18
 533 364 541 359 541 353 c 0
 541 352 540 351 540 350 c 8
 534 333 528 314 509 314 c 26
 64 314 l 26
 57 314 50 320 50 326 c 0
 50 335 56 364 74 364 c 26
EndSplineSet
Validated: 1
Substitution2: "sups subtable" equal.sups
Substitution2: "sinf subtable" equal.sinf
Substitution2: "ordn subtable" equal.ordn
Substitution2: "subs subtable" equal.subs
EndChar

StartChar: question
Encoding: 31 63 86
Width: 355
VWidth: 0
Flags: W
HStem: -14 120<101.745 194.255> 569 92<78.9815 178.059>
VStem: 88 120<-0.254639 92.2546> 96 53<195.696 274.776> 112 37<182.071 270.663> 258 51<415.721 503.256>
LayerCount: 3
Fore
SplineSet
148 106 m 24xe4
 181 106 208 79 208 46 c 24
 208 13 181 -14 148 -14 c 24
 115 -14 88 13 88 46 c 24
 88 79 115 106 148 106 c 24xe4
108 661 m 0
 141 661 183 644 216 611 c 0
 272 555 309 469 309 418 c 0
 309 369 287 345 267 334 c 0
 223 310 213 304 181 283 c 0
 153 265 150 236 149 204 c 0xd4
 149 194 144 181 134 181 c 0
 127 181 116 194 112 210 c 0xcc
 106 231 96 252 96 297 c 0xd4
 96 331 134 355 197 387 c 0
 225 401 258 429 258 458 c 0
 258 524 225 572 157 573 c 0
 138 573 129 569 110 569 c 0
 89 569 68 598 68 625 c 0
 68 644 91 661 108 661 c 0
EndSplineSet
Validated: 1
Substitution2: "sups subtable" question.sups
Substitution2: "sinf subtable" question.sinf
Substitution2: "ordn subtable" question.ordn
Substitution2: "subs subtable" question.subs
EndChar

StartChar: B
Encoding: 34 66 30
Width: 578
VWidth: 0
Flags: W
HStem: -5 29<19.6924 97.1038> -4 41<222.575 361.026> 343 28<219.903 332.234> 627 30<30.0088 101.681 217.08 343.047>
VStem: 130 78<50.5126 335.62 374.396 607.62> 410 86<428.462 576.093> 443 94<115.164 267.324>
AnchorPoint: "below_accent" 272 -100 basechar 0
AnchorPoint: "top_accent" 257 700 basechar 0
LayerCount: 3
Back
Fore
SplineSet
254 371 m 0x3c
 280 371 325 376 365 400 c 0
 379 408 410 437 410 495 c 0
 410 552 387 627 274 627 c 0
 219 627 208 612 208 582 c 2
 208 408 l 2
 208 373 238 371 254 371 c 0x3c
178 0 m 0
 126 0 106 -5 48 -5 c 0
 31 -5 19 -2 19 6 c 0
 19 15 29 20 52 24 c 0
 102 33 130 51 130 99 c 2
 130 549 l 2
 130 597 112 618 63 622 c 0
 40 624 30 633 30 642 c 0
 30 650 42 653 59 653 c 0
 113 653 122 652 163 652 c 0
 201 652 216 657 274 657 c 0
 420 657 496 617 496 508 c 0xbc
 496 463 477 427 462 412 c 0
 441 392 428 382 395 369 c 0
 390 367 389 361 395 359 c 0
 455 340 537 310 537 194 c 0
 537 84 474 51 433 30 c 0
 391 9 339 -4 273 -4 c 0x7a
 255 -4 218 0 178 0 c 0
287 37 m 0x7a
 365 37 443 103 443 189 c 0
 443 266 396 303 369 318 c 0
 351 328 315 343 265 343 c 0
 222 343 208 320 208 307 c 2
 208 108 l 2
 208 52 236 37 287 37 c 0x7a
EndSplineSet
Validated: 1
Substitution2: "c2sc subtable" B.sc
Substitution2: "sups subtable" B.sups
Substitution2: "sinf subtable" B.sinf
Substitution2: "ordn subtable" B.ordn
Substitution2: "subs subtable" B.subs
EndChar

StartChar: N
Encoding: 78 78 28
Width: 770
VWidth: 0
Flags: W
HStem: -17 21G<635 646> -5 30<23.9331 84.1632 196 265.099> 620 38<2.28223 77.8053 542 559 674.647 759.991>
VStem: 132 37<306.893 499.991> 621 43<136.004 599.75>
AnchorPoint: "below_accent" 405 -100 basechar 0
AnchorPoint: "top_accent" 411 700 basechar 0
LayerCount: 3
Back
Fore
SplineSet
616 650 m 2x78
 664 650 670 653 731 653 c 0
 748 653 760 650 760 642 c 0
 760 633 750 626 727 622 c 0
 677 613 665 601 664 568 c 0
 663 544 662 63 662 8 c 0
 662 -13 651 -17 641 -17 c 0xb8
 629 -17 592 2 560 46 c 0
 542 71 227 456 204 484 c 0
 194 496 188 500 183 500 c 0
 176 500 174 487 174 479 c 0
 172 380 169 227 169 104 c 0
 169 68 183 33 233 24 c 0
 256 20 266 15 266 6 c 0
 266 -2 254 -5 237 -5 c 0
 183 -5 179.711914062 0 143 0 c 24
 107.456054688 0 106 -5 52 -5 c 0
 35 -5 23 -2 23 6 c 0
 23 15 33.431640625 19.029296875 56 25 c 0
 93.7998046875 35 109.800003052 66 114 107 c 0
 121.697756842 182.144823771 132 342 132 507 c 0
 132 578 92 601 33 620 c 0
 27 622 2 632 2 644 c 0
 2 656 18 658 25 658 c 0
 103 656 107 653 179 653 c 0
 191 653 196 645 203 636 c 0
 222 609 564 180 584 156 c 0
 589 150 601 136 609 136 c 0
 614 136 618 142 619 157 c 0
 620 189 621 365 621 477 c 2
 621 564 l 1
 620 590 585 615 563 619 c 0
 540 623 530 630 530 639 c 0
 530 647 542 650 559 650 c 2
 616 650 l 2x78
EndSplineSet
Validated: 1
Substitution2: "c2sc subtable" N.sc
Substitution2: "sups subtable" N.sups
Substitution2: "sinf subtable" N.sinf
Substitution2: "ordn subtable" N.ordn
Substitution2: "subs subtable" N.subs
EndChar

StartChar: Q
Encoding: 49 81 44
Width: 806
VWidth: 0
Flags: W
HStem: -248 56<678.518 848.185> 626 36<297.318 476.093>
VStem: 45 94<234.248 430.278> 666 95<214.938 433.089>
AnchorPoint: "top_accent" 405 700 basechar 0
LayerCount: 3
Back
SplineSet
383 626 m 0
 235 626 138 492 139 352 c 0
 140 180 264 12 430 12 c 0
 582 12 666 184 666 324 c 0
 666 478 546 626 383 626 c 0
373 -54 m 0
 353 -38 275 6 259 10 c 0
 183 30 45 141 45 307 c 0
 45 505 194 662 402 662 c 0
 577 662 761 553 761 350 c 0
 761 113 601 36 519 0 c 0
 503 -7 494 -17 504 -28 c 0
 543 -70 574 -93 624 -129 c 0
 691 -177 724 -192 802 -192 c 0
 826 -192 849 -189 858 -185 c 0
 864 -183 871 -181 877 -181 c 0
 883 -181 888 -183 888 -189 c 0
 888 -201 885 -206 870 -215 c 0
 832 -237 790 -248 753 -248 c 0
 657 -248 595 -219 531 -173 c 0
 479 -136 439 -106 373 -54 c 0
EndSplineSet
Fore
SplineSet
383 626 m 0
 236 626 139 493 139 354 c 0
 139 181 264 12 430 12 c 0
 582 12 666 184 666 324 c 0
 666 478 546 626 383 626 c 0
374 -54 m 0
 354 -38 275 6 259 10 c 0
 183 30 45 141 45 307 c 0
 45 505 194 662 402 662 c 0
 577 662 761 553 761 350 c 0
 761 112 596 18 497 -8 c 0
 485 -11 483 -14 483 -17 c 0
 483 -20 484 -23 487 -26 c 0
 526 -68 557 -93 607 -129 c 0
 674 -177 724 -192 802 -192 c 0
 826 -192 849 -189 858 -185 c 0
 864 -183 871 -181 877 -181 c 0
 883 -181 888 -183 888 -189 c 0
 888 -201 885 -206 870 -215 c 0
 832 -237 790 -248 753 -248 c 0
 657 -248 596 -219 532 -173 c 0
 480 -136 440 -106 374 -54 c 0
EndSplineSet
Validated: 1
Substitution2: "Single Substitution lookup 50 subtable" Q.low
Substitution2: "Single Substitution lookup 49 subtable" Q.short
Substitution2: "Single Substitution lookup 48 subtable" Q.long
Substitution2: "Single Substitution lookup 47 subtable" Q.long
Substitution2: "c2sc subtable" Q.sc
Substitution2: "sups subtable" Q.sups
Substitution2: "sinf subtable" Q.sinf
Substitution2: "ordn subtable" Q.ordn
Substitution2: "subs subtable" Q.subs
EndChar

StartChar: U
Encoding: 53 85 48
Width: 738
VWidth: 0
Flags: W
HStem: -14 50<292.425 478.672> 620 33<25.4669 83.9594 202.114 256.781 515.06 566.939 662.499 726.313>
VStem: 103 80<153.613 606.064> 588 57<323.395 604.72> 592 43<161.769 455.301>
AnchorPoint: "cedilla" 412 8 basechar 0
AnchorPoint: "ogonek" 490 18 basechar 0
AnchorPoint: "below_accent" 370 -100 basechar 0
AnchorPoint: "top_accent" 390 700 basechar 0
LayerCount: 3
Back
SplineSet
380 -14 m 20xb4
 188 -14 103 128 103 322 c 4
 103 381 103 498 103 540 c 4
 103 602 78 610 46 620 c 4
 35 624 29 652 42 652 c 20
 89 652 103 649 142 649 c 28
 181 649 185 652 241 652 c 4
 252 652 253 624 241 622 c 4
 199 616 185 586 183 530 c 4
 180 444 183 344 183 294 c 12
 183 162 271 36 403 36 c 20
 530 36 592 144 592 300 c 4xd4
 592 344 590 471 588 510 c 4
 584 602 574 610 527 622 c 4
 515 625 516 654 529 654 c 20
 577 654 579 654 611 654 c 20
 656 654 664 656 709 656 c 12
 720 656 716 630 709 628 c 12
 670 617 648 598 644 546 c 4xb8
 642 515 635 342 635 254 c 4
 635 99 524 -14 380 -14 c 20xb4
EndSplineSet
Fore
SplineSet
645 547 m 0xf0
 638 432 638 342 635 250 c 0
 630 95 519 -14 372 -14 c 0
 193 -14 103 87 103 240 c 2
 103 547 l 2
 103 595 79 614 57 620 c 0
 34 626 24 633 24 642 c 0
 24 650 36 653 53 653 c 0
 83 653 112 650 149 650 c 24
 180 650 208 652 229 652 c 0
 246 652 258 649 258 641 c 0
 258 632 247 628 225 621 c 0
 209 616 183 589 183 549 c 2
 183 268 l 2
 183 108 271 36 393 36 c 0
 530 36 592 140 592 296 c 0xe8
 592 340 590 434 588 511 c 0
 587 562 575 612 547 620 c 0
 533 624 514 631 514 640 c 0
 514 648 526 651 543 651 c 0
 573 651 589 650 618 650 c 24
 650 650 676 653 699 653 c 0
 716 653 728 650 728 642 c 0
 728 633 718 627 695 622 c 0
 660 615 647 587 645 547 c 0xf0
EndSplineSet
Validated: 1
Substitution2: "c2sc subtable" U.sc
Substitution2: "Single Substitution lookup 31 subtable" U.LAT
Substitution2: "sups subtable" U.sups
Substitution2: "sinf subtable" U.sinf
Substitution2: "ordn subtable" U.ordn
Substitution2: "subs subtable" U.subs
Substitution2: "loclLAT subtable" U.LAT
EndChar

StartChar: bracketright
Encoding: 93 93 52
Width: 373
VWidth: 0
Flags: W
HStem: -200 33<36.0906 122.308> 673 28<36.0844 188.127>
VStem: 209 48<-149.297 659.67>
LayerCount: 3
Fore
SplineSet
219 702 m 18
 251 702 257 702 257 668 c 2
 257 -175 l 2
 257 -199 249 -200 226 -200 c 10
 62 -200 l 26
 50 -200 36 -197 36 -185 c 24
 36 -173 49 -169 62 -167 c 2
 174 -154 l 2
 192 -152 209 -132 209 -105 c 2
 209 624 l 2
 209 643 185 667 170 667 c 2
 62 673 l 2
 49 674 36 678 36 688 c 0
 36 698 45 701 54 701 c 26
 219 702 l 18
EndSplineSet
Validated: 1
Substitution2: "sups subtable" bracketright.sups
Substitution2: "sinf subtable" bracketright.sinf
Substitution2: "ordn subtable" bracketright.ordn
Substitution2: "subs subtable" bracketright.subs
EndChar

StartChar: h
Encoding: 72 104 4
Width: 515
VWidth: 0
Flags: W
HStem: -3 27<20.0556 71.3797 166.237 215.003 296.997 345.313 441.734 491.003> 362 52<228.693 321.254> 685 20G<155 159>
VStem: 85 70<32.0327 335.273 351.291 626.703> 358 70<31.9098 325.919>
AnchorPoint: "below_accent" 231 -100 basechar 0
AnchorPoint: "top_accent" 242 757 basechar 0
LayerCount: 3
Back
SplineSet
153 562 m 0
 153 499 153 439 153 388 c 0
 153 376 152 362 157 356 c 1
 176 375 242 414 305 414 c 0
 370 414 420 372 420 294 c 2
 420 84 l 2
 420 55 419 43 428 34 c 0
 437 23 461 25 468 21 c 8
 476 16 477 -3 468 -3 c 0
 429 -3 417 2 385 2 c 24
 351 2 336 -3 297 -3 c 0
 288 -3 288 16 297 21 c 0
 304 25 325 22 337 34 c 8
 349 46 350 59 350 77 c 18
 350 272 l 10
 350 323 299 362 256 362 c 0
 231 362 197 349 180 334 c 0
 160 316 153 309 153 268 c 0
 153 189 153 139 153 77 c 0
 153 61 155 46 166 34 c 0
 175 24 199 25 206 21 c 8
 214 16 215 -3 206 -3 c 0
 167 -3 152 2 118 2 c 24
 82 2 66 -3 27 -3 c 0
 18 -3 18 16 27 21 c 0
 34 25 58 22 70 34 c 8
 82 46 83 58 83 74 c 0
 83 344 83 375 83 566 c 0
 83 602 72 632 38 639 c 8
 28 641 28 662 37 664 c 16
 88 676 121 692 153 704 c 0
 158 706 160 702 162 698 c 0
 162 686 153 669 153 562 c 0
EndSplineSet
Fore
SplineSet
428 68 m 2
 428 41 449 30 469 24 c 0
 480 20 492 16 492 6 c 0
 492 -2 480 -3 472 -3 c 0
 432 -3 429 2 394 2 c 0
 359 2 356 -3 316 -3 c 0
 308 -3 296 -2 296 6 c 0
 296 16 308 20 319 24 c 0
 339 30 358 41 358 68 c 2
 358 272 l 10
 358 322 308 362 265 362 c 0
 240 362 201 355 182 340 c 0
 161 323 155 309 155 268 c 2
 155 65 l 1
 156 38 173 30 193 24 c 0
 204 20 216 16 216 6 c 0
 216 -2 204 -3 196 -3 c 0
 156 -3 155 2 120 2 c 0
 85 2 79 -3 39 -3 c 0
 32 -3 19 -2 19 6 c 0
 19 16 31 20 42 24 c 0
 62 30 84 38 85 65 c 1
 85 566 l 2
 85 602 74 632 40 639 c 0
 35 640 32 646 32 652 c 0
 32 658 35 663 39 664 c 0
 90 676 123 692 155 704 c 0
 156 704 157 705 157 705 c 1
 161 705 162 701 164 698 c 1
 164 686 155 669 155 562 c 2
 155 388 l 2
 155 376 158 357 163 351 c 1
 194 374 251 414 314 414 c 0
 379 414 428 356 428 278 c 2
 428 68 l 2
EndSplineSet
Validated: 1
Substitution2: "Smallcaps subtable" h.sc
Substitution2: "sups subtable" h.sups
Substitution2: "sinf subtable" h.sinf
Substitution2: "ordn subtable" h.ordn
Substitution2: "subs subtable" h.subs
EndChar

StartChar: o
Encoding: 79 111 3
Width: 495
VWidth: 0
Flags: W
HStem: -14 30<203.025 317.686> 383 31<177.889 291.342>
VStem: 35 82<109.934 279.37> 378 82<111.572 289.08>
AnchorPoint: "ogonek" 337 18 basechar 0
AnchorPoint: "below_accent" 246 -100 basechar 0
AnchorPoint: "top_accent" 246 550 basechar 0
LayerCount: 3
Back
Fore
SplineSet
237 383 m 0
 201 383 173 374 149 343 c 0
 122 309 117 258 117 210 c 0
 117 111 175 16 255 16 c 0
 300 16 338 32 358 71 c 0
 374 102 378 150 378 189 c 0
 378 284 322 383 237 383 c 0
254 414 m 0
 370 414 460 321 460 213 c 0
 460 96 384 -14 234 -14 c 0
 122 -14 35 70 35 187 c 0
 35 298 131 414 254 414 c 0
EndSplineSet
Validated: 1
Substitution2: "Smallcaps subtable" o.sc
Substitution2: "sups subtable" o.sups
Substitution2: "sinf subtable" o.sinf
Substitution2: "ordn subtable" o.ordn
Substitution2: "subs subtable" o.subs
EndChar

StartChar: q
Encoding: 81 113 10
Width: 522
VWidth: 0
Flags: W
HStem: -285 27<312.056 365.97 461.69 521.003> -14 38<204.516 336.195> 382 32<198.653 318.636> 401 20G<441.5 446>
VStem: 35 82<108.761 280.438> 377 70<-248.32 24.9948 45.2624 335.223>
AnchorPoint: "top_accent" 272 550 basechar 0
LayerCount: 3
Back
SplineSet
360 16 m 16
 353 16 301 -15 235 -14 c 0
 131 -14 34 70 34 178 c 0
 34 295 136 416 286 414 c 0
 314 414 356 409 374 403 c 0
 398 395 399 391 408 392 c 0
 419 393 430 406 435 410 c 0
 443 415 457 408 455 400 c 0
 451 371 442 320 442 295 c 0
 442 80 442 -7 442 -205 c 0
 442 -221 444 -236 455 -248 c 0
 464 -258 489 -257 496 -261 c 8
 504 -266 505 -285 496 -285 c 0
 457 -285 439 -280 404 -280 c 0
 369 -280 356 -285 317 -285 c 0
 308 -285 308 -266 317 -261 c 0
 324 -257 347 -260 359 -248 c 8
 371 -236 372 -224 372 -208 c 0
 372 -132 372 -89 372 -9 c 0
 372 2 371 16 360 16 c 16
238 378 m 0
 188 376 121 314 116 205 c 0
 110 72 228 24 271 24 c 0
 305 24 330 25 355 44 c 0
 370 55 372 91 373 132 c 0
 376 214 376 220 372 290 c 0
 371 310 350 337 340 346 c 0
 309 374 282 380 238 378 c 0
EndSplineSet
Fore
SplineSet
410 392 m 0xec
 424 392 429 402 436 417 c 0
 437 418 440 421 443 421 c 0xdc
 449 421 459 416 459 411 c 0
 459 398 447 352 447 295 c 2
 447 -220 l 2
 447 -247 479 -252 499 -258 c 0
 510 -262 522 -266 522 -276 c 0
 522 -284 510 -285 502 -285 c 0
 462 -285 448 -280 412 -280 c 0
 377 -280 371 -285 331 -285 c 0
 324 -285 311 -284 311 -276 c 0
 311 -266 323 -262 334 -258 c 0
 354 -252 377 -247 377 -220 c 2
 377 -5 l 2
 377 18 375 25 371 25 c 0
 368 25 365 23 362 20 c 0
 345 5 298 -14 235 -14 c 0
 131 -14 35 54 35 178 c 0
 35 319 135 414 282 414 c 0
 350 414 405 392 410 392 c 0xec
257 382 m 0xec
 185 382 117 320 117 205 c 0
 117 72 212 24 272 24 c 0
 306 24 333 28 358 47 c 0
 378 61 378 124 378 171 c 0
 378 207 378 250 377 275 c 0
 375 335 323 382 257 382 c 0xec
EndSplineSet
Validated: 1
Substitution2: "Smallcaps subtable" q.sc
Substitution2: "sups subtable" q.sups
Substitution2: "sinf subtable" q.sinf
Substitution2: "ordn subtable" q.ordn
Substitution2: "subs subtable" q.subs
EndChar

StartChar: x
Encoding: 88 120 53
Width: 430
VWidth: 0
Flags: W
HStem: -4 27<10.8293 57.6034 372.5 419.171> 378 27<37.6054 83.1812 357.953 411.003>
VStem: 276 144<1 54.5>
AnchorPoint: "below_accent" 202 -100 basechar 0
AnchorPoint: "top_accent" 235 550 basechar 0
LayerCount: 3
Back
Fore
SplineSet
220 8 m 0
 220 32 276 24 276 52 c 0
 276 57 274 63 270 70 c 2
 216 162 l 2
 213 167 210 168 208 165 c 2
 141 67 l 2
 139 64 136 56 136 48 c 0
 136 39 140 29 150 26 c 0
 161 22 173 18 173 8 c 0
 173 -2 155 -1 150 -1 c 0
 139 -1 113 1 97 1 c 0
 60 1 48 -4 30 -4 c 0
 22 -4 10 -3 10 5 c 0
 10 16 22 20 33 23 c 0
 53 29 69 43 100 80 c 1
 185 186 l 2
 194 197 192 201 187 209 c 2
 106 335 l 2
 90 361 80 371 60 377 c 0
 49 380 37 384 37 395 c 0
 37 405 55 404 60 404 c 0
 99 404 90 400 139 400 c 0
 163 400 167 402 190 402 c 0
 195 402 213 403 213 393 c 0
 213 376 174 382 174 362 c 0
 174 355 179 343 187 330 c 2
 227 268 l 2
 232 260 233 260 235 263 c 2
 284 338 l 2
 289 345 292 353 292 360 c 0
 292 367 289 373 279 376 c 0
 268 380 256 384 256 394 c 0
 256 404 274 403 279 403 c 0
 289 403 313 400 329 400 c 0
 366 400 375 405 392 405 c 0
 400 405 412 404 412 396 c 0
 412 386 400 382 389 378 c 0
 369 372 337 358 318 331 c 18
 253 239 l 2
 251 236 251 230 254 226 c 2
 351 65 l 2
 367 39 377 29 397 23 c 0
 408 20 420 16 420 5 c 0
 420 -3 408 -4 400 -4 c 0
 359 -4 366 0 316 0 c 0
 292 0 266 -1 243 -1 c 0
 238 -1 220 -2 220 8 c 0
EndSplineSet
Validated: 1
Substitution2: "Smallcaps subtable" x.sc
Substitution2: "sups subtable" x.sups
Substitution2: "sinf subtable" x.sinf
Substitution2: "ordn subtable" x.ordn
Substitution2: "subs subtable" x.subs
EndChar

StartChar: braceleft
Encoding: 91 123 1019
Width: 373
VWidth: 0
Flags: W
HStem: -154 27<244.417 337.897> 688 27<244.417 337.897>
VStem: 118 65<-85.2919 149.197 411.803 646.292> 131 65<-20.282 210.046 350.809 581.282>
LayerCount: 3
Fore
SplineSet
90 279 m 0xd0
 123 270 196 213 196 147 c 16xd0
 196 89 183 42 183 -26 c 16
 183 -99 248 -127 312 -127 c 16
 323 -127 338 -128 338 -139 c 16
 338 -148 329 -154 320 -154 c 8
 226 -154 118 -115 118 -21 c 8xe0
 118 49 131 95 131 157 c 8
 131 215 90 253 36 273 c 8
 31 275 25 276 25 282 c 0
 25 288 31 286 36 288 c 16
 90 308 131 346 131 404 c 16xd0
 131 466 118 512 118 582 c 16
 118 676 226 715 320 715 c 16
 329 715 338 709 338 700 c 8
 338 689 323 688 312 688 c 8
 248 688 183 660 183 587 c 8xe0
 183 519 196 472 196 414 c 8
 196 348 130 300 88 283 c 0
 84 281 87 280 90 279 c 0xd0
EndSplineSet
Validated: 1
Substitution2: "sups subtable" braceleft.sups
Substitution2: "sinf subtable" braceleft.sinf
Substitution2: "ordn subtable" braceleft.ordn
Substitution2: "subs subtable" braceleft.subs
EndChar

StartChar: braceright
Encoding: 93 125 1020
Width: 373
VWidth: 0
Flags: W
HStem: -154 27<35.1033 128.583> 688 27<35.1033 128.583>
VStem: 177 65<-20.282 210.046 350.809 581.282> 190 65<-85.2919 149.197 411.803 646.292>
LayerCount: 3
Fore
SplineSet
283 279 m 0xe0
 285 280 288 281 285 283 c 0
 243 300 177 348 177 414 c 16xe0
 177 472 190 519 190 587 c 16
 190 660 125 688 61 688 c 16
 50 688 35 689 35 700 c 16
 35 709 44 715 53 715 c 8
 147 715 255 676 255 582 c 8xd0
 255 512 242 466 242 404 c 8
 242 346 282 308 337 288 c 8
 342 286 348 288 348 282 c 0
 348 276 342 275 337 273 c 16
 282 253 242 215 242 157 c 16xe0
 242 95 255 49 255 -21 c 16
 255 -115 147 -154 53 -154 c 16
 44 -154 35 -148 35 -139 c 8
 35 -128 50 -127 61 -127 c 8
 125 -127 190 -99 190 -26 c 8xd0
 190 42 177 89 177 147 c 8
 177 213 250 270 283 279 c 0xe0
EndSplineSet
Validated: 1
Substitution2: "sups subtable" braceright.sups
Substitution2: "sinf subtable" braceright.sinf
Substitution2: "ordn subtable" braceright.ordn
Substitution2: "subs subtable" braceright.subs
EndChar

StartChar: ordfeminine
Encoding: 105 170 572
Width: 270
VWidth: 0
Flags: W
HStem: 161 35<26.2861 265.934> 268 40<82.77 146.868 216.582 256.965> 491 33<95.3357 169.811>
VStem: 25 55<310.316 371.53 441.214 475.092> 160 55<317.086 387.993 406.688 487.507>
LayerCount: 3
Back
SplineSet
49 196 m 26
 255 196 l 26
 262 196 271 189 268 182 c 24
 261 169 252 161 237 161 c 26
 39 161 l 26
 32 161 25 167 25 173 c 0
 25 182 36 196 49 196 c 26
80 342 m 0
 80 319 99 308 112 308 c 0
 129 308 142 319 152 327 c 0
 157 331 159 335 159 350 c 10
 160 379 l 18
 160 391 156 393 145 390 c 0
 95 376 80 356 80 342 c 0
219 268 m 0
 182 268 169 299 164 299 c 0
 155 299 137 268 84 268 c 0
 57 268 25 304 25 327 c 0
 25 352 31 368 63 380 c 10
 142 408 l 18
 159 414 160 416 160 432 c 2
 160 455 l 26
 160 475 147 491 123 491 c 0
 107 491 85 486 80 478 c 0
 77 472 77 460 78 453 c 0
 79 445 48 438 33 434 c 0
 29 433 26 437 29 444 c 0
 35 459 38 469 54 482 c 0
 74 499 120 524 154 524 c 0
 185 524 217 499 216 471 c 10
 213 347 l 26
 213 330 215 308 234 308 c 0
 246 308 251 310 255 316 c 0
 260 323 270 307 268 301 c 0
 267 298 243 268 219 268 c 0
EndSplineSet
Fore
SplineSet
49 196 m 26
 255 196 l 18
 261 196 269 191 269 185 c 0
 269 184 268 183 268 182 c 8
 261 169 252 161 237 161 c 26
 39 161 l 26
 32 161 25 167 25 173 c 0
 25 182 36 196 49 196 c 26
80 342 m 0
 80 319 99 308 112 308 c 0
 126 308 142 319 152 327 c 0
 156 330 160 335 160 350 c 10
 160 379 l 18
 160 391 156 393 145 390 c 0
 95 376 80 356 80 342 c 0
219 268 m 0
 182 268 169 299 164 299 c 0
 155 299 137 268 84 268 c 0
 57 268 25 304 25 327 c 0
 25 352 31 368 63 380 c 10
 142 408 l 18
 159 414 160 416 160 432 c 2
 160 455 l 26
 160 475 147 491 123 491 c 0
 107 491 84 485 79 477 c 0
 76 471 78 456 78 453 c 0
 78 445 36 434 33 434 c 0
 29 434 28 436 28 439 c 0
 28 447 38 469 54 482 c 0
 74 499 120 524 154 524 c 0
 185 524 215 499 215 471 c 10
 215 347 l 18
 215 330 215 308 234 308 c 0
 252 308 257 318 259 318 c 0
 262 318 268 311 268 302 c 0
 268 298 243 268 219 268 c 0
EndSplineSet
Validated: 1
EndChar

StartChar: guillemotleft
Encoding: 171 171 116
Width: 676
VWidth: 0
Flags: W
HStem: 380 20G<352.5 360 564.5 572>
LayerCount: 3
Back
SplineSet
419 217 m 0
 411 211 411 209 419 203 c 0
 463 169 515 125 571 40 c 0
 572.876 36.8726 573.677 33.6474 573.677 30.6915 c 0
 573.677 24.1956 569.811 19 565 19 c 0
 564 19 564 19 563 19 c 0
 551 22 541 31 535 37 c 0
 466 104 389 155 330 182 c 0
 320.222 186.513 312.14 201.776 312.14 211.192 c 0
 312.14 214.294 313.018 216.761 315 218 c 0
 417 279 472 316 541 382 c 0
 547 388 557 397 569 400 c 1
 570 400 l 2
 573.749 400 575.777 395.985 575.777 390.719 c 0
 575.777 386.152 574.251 380.645 571 376 c 0
 515 291 463 251 419 217 c 0
207 217 m 0
 199 211 199 209 207 203 c 0
 251 169 303 125 359 40 c 0
 360.876 36.8726 361.677 33.6474 361.677 30.6915 c 0
 361.677 24.1956 357.811 19 353 19 c 0
 352 19 352 19 351 19 c 0
 339 22 329 31 323 37 c 0
 254 104 177 155 118 182 c 0
 108.222 186.513 100.14 201.776 100.14 211.192 c 0
 100.14 214.294 101.018 216.761 103 218 c 0
 205 279 260 316 329 382 c 0
 335 388 345 397 357 400 c 1
 358 400 l 2
 361.749 400 363.777 395.985 363.777 390.719 c 0
 363.777 386.152 362.251 380.645 359 376 c 0
 303 291 251 251 207 217 c 0
EndSplineSet
Fore
SplineSet
535 37 m 0
 466 106 389 155 330 182 c 0
 320 187 312 202 312 211 c 0
 312 214 313 217 315 218 c 0
 417 279 472 316 541 382 c 0
 547 388 559 400 570 400 c 0
 574 400 576 397 576 391 c 0
 576 362 494 275 419 217 c 0
 411 211 411 209 419 203 c 0
 491 147 574 55 574 31 c 0
 574 25 570 19 565 19 c 0
 557 19 548 24 535 37 c 0
323 37 m 0
 254 106 177 155 118 182 c 0
 108 187 100 202 100 211 c 0
 100 214 101 217 103 218 c 0
 205 279 260 316 329 382 c 0
 335 388 347 400 358 400 c 0
 362 400 364 397 364 391 c 0
 364 362 282 275 207 217 c 0
 199 211 199 209 207 203 c 0
 279 147 362 55 362 31 c 0
 362 25 358 19 353 19 c 0
 345 19 336 24 323 37 c 0
EndSplineSet
Validated: 1
EndChar

StartChar: plusminus
Encoding: 112 177 1029
Width: 590
VWidth: 0
Flags: W
HStem: 38 50<53.1042 534.632> 351 50<53.1042 269.999 320.001 534.632>
VStem: 270 50<124.104 350.999 401.011 606.195>
LayerCount: 3
Fore
SplineSet
64 38 m 10
 57 38 50 44 50 50 c 0
 50 59 56 88 74 88 c 18
 527 88 l 2
 533 88 541 83 541 77 c 0
 541 76 540 75 540 74 c 8
 534 57 528 38 509 38 c 18
 64 38 l 10
320 407 m 2
 320 400 321 401 324 401 c 2
 527 401 l 2
 533 401 541 396 541 390 c 0
 541 389 540 388 540 387 c 8
 534 370 528 351 509 351 c 18
 324 351 l 2
 321 351 320 350 320 347 c 2
 320 145 l 10
 320 127 291 121 282 121 c 0
 276 121 270 128 270 135 c 18
 270 346 l 2
 270 349 269 351 266 351 c 2
 64 351 l 10
 57 351 50 357 50 363 c 0
 50 372 56 401 74 401 c 18
 263 401 l 2
 269 401 270 403 270 409 c 2
 270 580 l 10
 270 599 300 611 306 611 c 0
 313 611 320 605 320 598 c 18
 320 407 l 2
EndSplineSet
Validated: 1
EndChar

StartChar: uni00B5
Encoding: 181 181 1075
Width: 510
VWidth: 0
Flags: W
HStem: -285 21G<93 118.5> -15 79<380.078 462.03> -13 63<136.643 238.428> 398 20G<63.5 97.5 349 383>
VStem: 31 91<201.439 405.034> 31 29<-88.0711 76.2413> 38 53<82.8764 272.179> 317 88<269.77 402.519>
LayerCount: 3
Fore
SplineSet
420 64 m 16xd3
 456.646939041 64 485 109 493 109 c 0
 498 109 504 105 504 100 c 0
 504 25 448.847091132 -15 406 -15 c 0xd3
 373 -15 359 0 339 48 c 0
 337 54 328 93 326 114 c 1
 319 98 260 -13 210 -13 c 0
 162 -13 138 6 98 38 c 0
 88 46 77 62 70 62 c 0
 63 62 60 49 60 28 c 0
 60 -1 66 -43 72 -78 c 0
 85 -156 137 -236 137 -254 c 4
 137 -274 128 -285 109 -285 c 12
 77 -285 58 -265 46 -234 c 4
 37 -210 31 -75 31 0 c 0xb5
 31 17 38 60 38 92 c 0xb3
 38 125 31 288 31 332 c 0
 31 374 44 418 83 418 c 16
 112 418 122 391 122 343 c 0xb9
 122 301 91 172 91 132 c 0
 91 106 125 50 169 50 c 16xb3
 222 50 255 77 279 122 c 16
 317.335626228 195.385341637 317 252.145187572 317 332 c 0
 317 371 332 415 366 415 c 0
 400 415 405 374 405 352 c 0
 405 315 357 215 357 162 c 0
 357 125 375 64 420 64 c 16xd3
EndSplineSet
Validated: 33
EndChar

StartChar: paragraph
Encoding: 117 182 1026
Width: 586
VWidth: 0
Flags: W
HStem: -287 25<265.288 341.249> -208 68<251.57 317.489> 608 40<311.5 537.977>
VStem: 215 36<-252.217 -187> 377 39<-226.112 119>
LayerCount: 3
Back
Fore
SplineSet
251 -218 m 8
 251 -243.39453125 272 -262 299 -262 c 0
 345 -262 377 -227 377 -180 c 2
 377 94 l 2
 377 104 375 119 364 119 c 8
 203 119 46 221 46 382 c 0
 46 555 225 648 398 648 c 0
 453 648 523.184674891 644.346516976 538 642 c 0
 547.876883406 640.43565535 553 631 553 622 c 0
 553 613 547 592 539 592 c 0
 533 592 485 608 434 608 c 0
 424 608 416 599 416 590 c 10
 416 -166 l 2
 416 -210 375 -287 303 -287 c 8
 256.354492188 -287 215 -252.645507812 215 -206 c 16
 215 -168 247.478515625 -140 285 -140 c 16
 312 -140 339 -157 339 -184 c 8
 339 -205.623046875 322 -227 304 -227 c 0
 284 -227 265 -208 256 -208 c 0
 253 -208 251 -210 251 -218 c 8
EndSplineSet
Validated: 1
Substitution2: "pilcrow_variants subtable" paragraph.01
Substitution2: "sups subtable" paragraph.sups
Substitution2: "sinf subtable" paragraph.sinf
Substitution2: "ordn subtable" paragraph.ordn
Substitution2: "subs subtable" paragraph.subs
EndChar

StartChar: uni00B9
Encoding: 120 185 575
Width: 300
VWidth: 0
Flags: W
HStem: 439 25<58.0807 111.148 190.486 244.988>
VStem: 123 60<470.298 695.082>
LayerCount: 3
Fore
SplineSet
178 784 m 0
 184 784 188 778 187 770 c 0
 185 757 183 738 183 716 c 0
 183 671 182 617 182 589 c 0
 182 559 182 534 183 510 c 0
 185 471 189 470 233 464 c 0
 241 463 245 457 245 451 c 0
 245 445 241 439 233 439 c 0
 176 439 183 444 151 444 c 24
 119 444 123 439 69 439 c 0
 62 439 58 446 58 453 c 0
 58 459 61 464 69 464 c 0
 95 466 123 469 123 510 c 2
 123 663 l 2
 123 690 86 704 69 710 c 0
 61 713 58 718 58 723 c 0
 58 730 63 736 68 737 c 0
 119 742 172 784 178 784 c 0
EndSplineSet
Validated: 1
EndChar

StartChar: onehalf
Encoding: 124 189 1074
Width: 699
VWidth: 0
Flags: W
HStem: -6 52<501.824 635.985> 270 54<477.932 564.692> 283 25<41.0807 94.4421 173.08 227.988> 608 20G<160 164> 635 20G<563.5 575.5>
VStem: 106 60<313.843 539.082> 579 56<169.835 256.329>
LayerCount: 3
Fore
SplineSet
443 232 m 1xde
 438 222 427 226 427 237 c 0
 427 257 474 324 544 324 c 0
 595 324 635 282 635 231 c 16
 635 197 618 177 601 152 c 0
 579 119 509 60 502 52 c 0
 498 48 510 46 514 46 c 2
 583 46 l 2
 613 46 642 66 657 96 c 0
 659 101 666 105 672 104 c 16
 675 104 676 102 676 99 c 0
 676 98 675 96 675 95 c 0
 662 59 654 35 648 4 c 0
 646 -10 640 -10 636 -9 c 0
 585 -6 585 -6 552 -6 c 24
 504 -6 480 -6 429 -8 c 0
 424 -9 422 1 429 8 c 2
 468 48 l 2
 484 64 579 142 579 207 c 0
 579 244 552 270 522 270 c 0
 486 270 471 262 443 232 c 1xde
121 -11 m 26
 533 638 l 26
 542 652 555 655 572 655 c 16
 579 655 586 648 586 642 c 0
 586 641 586 639 585 638 c 10
 173 -11 l 26
 165 -24 152 -26 137 -26 c 24
 128 -26 116 -18 121 -11 c 26
154 626 m 0
 157 627 159 628 161 628 c 0
 167 628 171 622 170 614 c 0
 168 600 166 576 166 544 c 0
 166 500 165 464 165 433 c 0
 165 403 166 378 166 354 c 0
 167 315 172 314 216 308 c 0
 224 307 228 301 228 295 c 0
 228 289 224 283 216 283 c 0
 159 283 166 288 134 288 c 24
 102 288 106 283 52 283 c 0
 45 283 41 290 41 297 c 0
 41 303 44 308 52 308 c 0xbe
 79 310 106 313 106 354 c 2
 106 507 l 2
 106 534 69 548 52 554 c 0
 44 557 41 562 41 567 c 0
 41 574 46 580 51 581 c 0
 102 586 142 620 154 626 c 0
EndSplineSet
Validated: 1
EndChar

StartChar: Oslash
Encoding: 216 216 1010
Width: 773
VWidth: 0
Flags: W
HStem: -14 39<313.882 492.027> 625 39<294.881 476.761>
VStem: 50 97<212.784 444.186> 626 97<206.698 453.656>
AnchorPoint: "cedilla" 412 8 basechar 0
AnchorPoint: "below_accent" 370 -100 basechar 0
AnchorPoint: "top_accent" 383 700 basechar 0
LayerCount: 3
Fore
SplineSet
380 625 m 0
 232 625 147 490 147 350 c 0
 147 281 161 215 191 161 c 1
 568 529 l 1
 527 590 463 625 380 625 c 0
77 -14 m 0
 63 -14 49 -4 49 6 c 0
 49 13 53 20 59 26 c 2
 134 100 l 1
 82 158 50 234 50 320 c 0
 50 501 171 664 395 664 c 0
 479 664 559 633 619 579 c 1
 699 658 l 2
 706 665 720 663 723 654 c 0
 724 650 726 644 726 639 c 0
 726 632 724 626 719 621 c 2
 647 549 l 1
 694 494 723 420 723 335 c 0
 723 155 606 -14 387 -14 c 0
 305 -14 227 17 166 69 c 1
 86 -11 l 2
 84 -13 81 -14 77 -14 c 0
589 492 m 1
 216 123 l 1
 261 64 327 25 400 25 c 0
 550 25 626 134 626 305 c 0
 626 377 614 441 589 492 c 1
EndSplineSet
Validated: 1
Substitution2: "c2sc subtable" Oslash.sc
EndChar

StartChar: oslash
Encoding: 183 248 1009
Width: 485
VWidth: 0
Flags: W
HStem: -14 30<199.062 312.82> 380 34<173.071 290.109>
VStem: 30 83<117.968 284.404> 373 82<108.586 279.654>
AnchorPoint: "top_accent" 245 550 basechar 0
LayerCount: 3
Fore
SplineSet
233 380 m 0
 197 380 165 364 146 340 c 0
 120 307 113 258 113 210 c 0
 113 177 119 145 131 117 c 1
 338 316 l 1
 313 354 277 380 233 380 c 0
49 -15 m 0
 37 -15 25 -4 25 5 c 0
 25 12 29 20 35 25 c 2
 75 63 l 1
 47 99 30 142 30 186 c 0
 30 310 127 414 250 414 c 0
 300 414 348 394 385 361 c 1
 437 411 l 2
 440 414 444 415 448 415 c 0
 458 415 462 408 462 400 c 0
 462 391 458 380 451 374 c 2
 411 335 l 1
 438 300 455 258 455 213 c 0
 455 96 380 -14 230 -14 c 0
 182 -14 138 5 103 34 c 1
 56 -12 l 2
 54 -14 52 -15 49 -15 c 0
356 281 m 1
 150 79 l 1
 174 41 210 16 251 16 c 0
 296 16 334 33 354 72 c 0
 370 103 373 150 373 189 c 0
 373 221 367 252 356 281 c 1
EndSplineSet
Validated: 1
Substitution2: "Smallcaps subtable" oslash.sc
EndChar

StartChar: aogonek
Encoding: 196 261 183
Width: 399
VWidth: 0
Flags: W
HStem: -287 66<280.324 349.883> -14 46<100.5 201.116> 365 49<152.989 252.5>
VStem: 35 80<42.662 121.94 279.95 317.037> 191 74<-206.017 -106.42> 238 68<59.2835 168.996 199.884 351.409>
LayerCount: 3
Back
SplineSet
80 343 m 0xf4
 110 371 176 414 229 414 c 0
 277 414 312 372 311 325 c 2
 306 109 l 2xf4
 305 76 312 32 342 32 c 0
 360 32 371 36 382 46 c 0
 389 53 397 45 397 34 c 0
 397 31 373 6 352 -4 c 9
 316.51 -58.21 261 -108 261 -143 c 0
 261 -187 290 -202 313 -202 c 0
 341 -202 363 -187 372 -179 c 0
 376 -176 387 -185 385 -191 c 4
 376 -217 332 -262 282 -262 c 0
 240 -262 193 -241 193 -167 c 0xf8
 193 -108 241 -58 310 -14 c 1
 260 -9 252 38 244 38 c 0
 231 38 203 -13 121 -14 c 0
 80 -14 35 26 35 65 c 0
 35 107 59 135 108 155 c 2
 210 197 l 2
 236 208 237 210 238 237 c 2
 240 299 l 2
 241 334 218 365 181 365 c 0
 157 365 127 347 120 333 c 0
 117 328 116 321 116 314 c 0
 116 309 117 305 117 300 c 0
 117 286 61 265 48 265 c 0
 42 265 40 271 40 274 c 0
 40 295 55 321 80 343 c 0xf4
115 87 m 0
 115 49 145 32 164 32 c 0
 190 32 208 45 224 59 c 0
 231 65 236 74 236 99 c 1
 238 148 l 2
 239 163 235 168 227 168 c 0
 224 168 220 167 215 166 c 0
 139 144 115 110 115 87 c 0
EndSplineSet
Fore
SplineSet
292 -287 m 0xf8
 234 -287 191 -253 191 -179 c 0xf8
 191 -109 254 -47 299 -12 c 1
 258 -2 251 38 244 38 c 0
 231 38 203 -13 121 -14 c 0
 80 -14 35 26 35 65 c 0
 35 107 59 135 108 155 c 2
 210 197 l 2
 236 208 237 210 238 237 c 2
 240 299 l 1
 240 301 l 2
 240 335 217 365 181 365 c 0
 157 365 128 347 120 333 c 0
 117 328 116 321 116 314 c 0
 116 309 117 305 117 300 c 0
 117 286 61 265 48 265 c 0
 42 265 40 271 40 274 c 0
 40 295 55 321 80 343 c 0
 111 371 176 414 229 414 c 0
 276 414 312 374 311 325 c 2
 306 109 l 2
 306 107 306 105 306 103 c 0xf4
 306 66 315 32 342 32 c 0
 360 32 371 36 382 46 c 0
 388 52 398 45 398 37 c 0
 398 36 397 35 397 34 c 0
 395 29 371 3 343 -9 c 1
 309 -37 265 -85 265 -152 c 0
 265 -196 291 -221 325 -221 c 0
 360 -221 379 -200 384 -200 c 0
 388 -200 392 -201 392 -207 c 0
 392 -226 348 -287 292 -287 c 0xf8
115 87 m 0
 115 49 145 32 164 32 c 0
 190 32 208 45 224 59 c 0
 231 65 235 74 236 99 c 2
 238 148 l 2xf4
 239 163 237 169 229 169 c 0
 226 169 220 168 215 166 c 0
 138 140 115 110 115 87 c 0
EndSplineSet
Validated: 33
Substitution2: "Smallcaps subtable" aogonek.sc
EndChar

StartChar: dcaron
Encoding: 206 271 193
Width: 506
VWidth: 0
Flags: W
HStem: -19 50<184.419 289.304> 21 24<433.943 503.841> 379 35<175.114 291.457> 684 20<415 424> 685 20G<500.5 517>
VStem: 35 74<111.575 287.804> 352 70<62.7966 323.828 384.004 628.506> 460 67<580.196 692.705>
LayerCount: 3
Fore
SplineSet
458 657 m 4x2f
 458 678 490 705 511 705 c 0
 523 705 527 691 527 675 c 0
 527 638 505.844475074 573.913069627 488 537 c 0
 479.730609112 519.893943343 473 512 467 512 c 4
 463 512 460 522 460 535 c 0
 460 540 463 569 463 584 c 0
 463 621 458 641 458 657 c 4x2f
EndSplineSet
Refer: 11 100 N 1 0 0 1 0 0 2
Validated: 1
Substitution2: "Smallcaps subtable" dcaron.sc
EndChar

StartChar: Eogonek
Encoding: 215 280 200
Width: 535
VWidth: 0
Flags: W
HStem: -287 71<368.439 446.053> -5 40<221.438 402 415.086 455.39> -5 29<23.6924 99.9253> 320 32<211.086 367.094> 388 20G<400.5 405.5> 618 35<32.1729 114.247 215.59 433.859>
VStem: 130 80<44.9696 319.486 352 605.889> 267 85<-199.668 -109.972> 383 32<253.771 304.565> 466 25<526.084 573.315>
LayerCount: 3
Fore
SplineSet
381 -287 m 0xdfc0
 318 -287 267 -237 267 -174 c 0
 267 -103 352 -37 402 -4 c 1
 316 -2 242 1 167 1 c 0
 122 1 106 -5 52 -5 c 0
 35 -5 23 -2 23 6 c 0
 23 15 33 20 56 24 c 0xbfc0
 106 33 130 51 130 99 c 2
 130 549 l 2
 130 597 113 613 63 622 c 0
 40 626 30 633 30 642 c 0
 30 650 42 653 59 653 c 0
 134 653 166 650 236 650 c 0
 327 650 448 653 458 653 c 0
 465 653 475 651 476 644 c 0
 483 606 491 568 491 541 c 0
 491 529 483 526 477 526 c 0
 470 526 468 529 466 536 c 0
 459 558 453 581 444 591 c 0
 425 612 402 618 377 618 c 2
 246 618 l 2
 235 618 210 605 210 586 c 2
 210 374 l 2
 210 362 218 352 228 352 c 2
 324 352 l 2
 353 352 375 368 385 391 c 0
 387 396 398 408 403 408 c 0
 408 408 416 402 416 392 c 0
 416 383 413 353 413 337 c 0
 413 317 415 277 415 269 c 0
 415 260 414 252 406 252 c 0
 393 252 385 268 383 275 c 0
 373 306 354 320 337 320 c 2
 244 320 l 2
 221 320 210 317 210 294 c 2
 210 102 l 2
 210 51 231 35 276 35 c 2
 380 35 l 2xdfc0
 430 35 443 43 456 53 c 0
 474 67 490 99 498 116 c 0
 502 124 505 127 512 126 c 0
 519 125 525 123 525 115 c 0
 525 97 515 38 508 12 c 0
 506 3 502 -5 494 -5 c 0xbfc0
 474 -5 454 -5 435 -5 c 1
 402 -34 352 -88 352 -155 c 0
 352 -190 383 -216 418 -216 c 0
 453 -216 491 -181 500 -176 c 0
 505 -173 512 -174 512 -182 c 0
 512 -225 435 -287 381 -287 c 0xdfc0
EndSplineSet
Validated: 1
Substitution2: "c2sc subtable" Eogonek.sc
EndChar

StartChar: Hbar
Encoding: 229 294 994
Width: 810
VWidth: 0
Flags: W
HStem: -5 29<37.6924 109.801 250.294 321.308 501.692 572.618 698.672 769.308> 302 48<210 601.981> 456 36<52.0087 130 210 602 682 759.504> 622 31<45.0745 116.701 235.842 309.926 504.074 576.241 697.262 766.926>
VStem: 130 80<53.5983 302 350 456 492 603.314> 602 80<44.8548 302 350 456 492 604.033>
AnchorPoint: "below_accent" 423 -100 basechar 0
AnchorPoint: "top_accent" 406 700 basechar 0
LayerCount: 3
Back
SplineSet
715 100 m 1
 716 51 720 33 770 24 c 0
 793 20 803 15 803 6 c 0
 803 -2 791 -5 774 -5 c 0
 720 -5 711 0 670 0 c 0
 628 0 617 -5 563 -5 c 0
 546 -5 534 -2 534 6 c 0
 534 15 544 20 567 24 c 0
 609 32 635 54 635 97 c 1
 636 122 636 147 636 170 c 0
 636 216 635 258 635 297 c 0
 635 304 633 304 630 304 c 0
 552 304 491 305 430 305 c 0
 368 305 306 304 226 304 c 0
 221 304 221 301 221 293 c 0
 221 235 222 183 222 106 c 0
 222 64 254 32 300 24 c 0
 323 20 333 15 333 6 c 0
 333 -2 321 -5 304 -5 c 0
 250 -5 233 0 187 0 c 0
 144 0 131 -5 77 -5 c 0
 60 -5 48 -2 48 6 c 0
 48 15 58 20 81 24 c 0
 131 33 141 51 141 99 c 2
 141 456 l 5
 76 456 l 6
 67 456 62 468 62 474 c 4
 62 483 74 492 86 492 c 6
 141 492 l 5
 141 551 l 2
 141 597 138 613 88 622 c 0
 65 626 55 633 55 642 c 0
 55 650 67 653 84 653 c 0
 138 653 147 650 187 650 c 0
 228 650 239 653 293 653 c 0
 310 653 322 650 322 642 c 0
 322 633 312 626 289 622 c 0
 239 613 221 590 221 551 c 2
 221 492 l 5
 634 492 l 5
 634 552 l 2
 634 588 619 613 569 622 c 0
 546 626 536 633 536 642 c 0
 536 650 548 653 565 653 c 0
 619 653 636 650 681 650 c 0
 717 650 718 653 772 653 c 0
 789 653 801 650 801 642 c 0
 801 633 791 626 768 622 c 0
 718 613 715 590 715 552 c 2
 715 492 l 5
 782 492 l 6
 789 492 798 485 795 478 c 4
 788 465 779 456 764 456 c 6
 715 456 l 5
 715 100 l 1
634 456 m 5
 221 456 l 5
 221 359 l 2
 221 351 229 350 235 350 c 0
 312 348 372 348 432 348 c 0
 492 348 552 348 628 350 c 0
 633 350 635 353 635 362 c 0
 635 395 635 423 634 456 c 5
EndSplineSet
Fore
SplineSet
682 100 m 2
 682 51 687 33 737 24 c 0
 760 20 770 15 770 6 c 0
 770 -2 758 -5 741 -5 c 0
 687 -5 678 0 637 0 c 24
 595 0 584 -5 530 -5 c 0
 513 -5 501 -2 501 6 c 0
 501 15 511 20 534 24 c 0
 576 32 602 54 602 97 c 2
 602 287 l 2
 602 294 603 302 597 302 c 2
 215 302 l 2
 210 302 210 299 210 291 c 2
 210 106 l 2
 210 64 243 32 289 24 c 0
 312 20 322 15 322 6 c 0
 322 -2 310 -5 293 -5 c 0
 239 -5 222 0 176 0 c 24
 133 0 120 -5 66 -5 c 0
 49 -5 37 -2 37 6 c 0
 37 15 47 20 70 24 c 0
 120 33 130 51 130 99 c 2
 130 456 l 1
 66 456 l 2
 57 456 52 468 52 474 c 0
 52 483 64 492 76 492 c 2
 130 492 l 1
 130 551 l 2
 130 597 127 613 77 622 c 0
 54 626 44 633 44 642 c 0
 44 650 56 653 73 653 c 0
 127 653 136 650 176 650 c 24
 217 650 228 653 282 653 c 0
 299 653 311 650 311 642 c 0
 311 633 301 626 278 622 c 0
 228 613 210 590 210 551 c 2
 210 492 l 1
 602 492 l 1
 602 552 l 2
 602 588 586 613 536 622 c 0
 513 626 503 633 503 642 c 0
 503 650 515 653 532 653 c 0
 586 653 603 650 648 650 c 24
 684 650 685 653 739 653 c 0
 756 653 768 650 768 642 c 0
 768 633 758 626 735 622 c 0
 685 613 682 590 682 552 c 2
 682 492 l 1
 749 492 l 2
 756 492 765 485 762 478 c 0
 755 465 746 456 731 456 c 2
 682 456 l 1
 682 100 l 2
602 456 m 1
 210 456 l 1
 210 359 l 2
 210 351 218 350 224 350 c 2
 595 350 l 2
 600 350 602 353 602 362 c 2
 602 362 602 389 602 417 c 0
 602 431 602 445 602 456 c 1
EndSplineSet
Validated: 1
Substitution2: "c2sc subtable" Hbar.sc
EndChar

StartChar: kgreenlandic
Encoding: 247 312 1031
Width: 474
VWidth: 0
Flags: W
HStem: -3 27<24.9975 76.766 169.421 217.003 426.448 459.176 461 481.704> 352 25<35.0088 66.0645> 378 22<278.492 311.513> 384 28<394.276 450.679>
VStem: 90 70<32.0327 205.138 223.955 339.165>
AnchorPoint: "below_accent" 229 -100 basechar 0
AnchorPoint: "top_accent" 231 550 basechar 0
LayerCount: 3
Fore
SplineSet
160 65 m 2xd8
 160 38 175 30 195 24 c 0
 206 20 218 16 218 6 c 0
 218 -4 200 -3 195 -3 c 0
 156 -3 160 2 125 2 c 0
 90 2 86 -3 47 -3 c 0
 42 -3 24 -4 24 6 c 0
 24 16 36 20 47 24 c 0
 67 30 90 38 90 65 c 2
 90 279 l 2
 90 315 77 345 43 352 c 0
 38 353 35 359 35 365 c 0
 35 370 38 376 42 377 c 0
 109 393 154 434 162 434 c 0
 166 434 169 432 169 429 c 0
 165 388 160 339 160 294 c 2
 160 231 l 2
 160 224 162 223 166 224 c 0
 175 226 186 235 201 248 c 0
 255 295 302 342 313 358 c 0
 314 359 314 360 314 361 c 0
 314 368 304 375 290 378 c 0
 287 379 278 383 278 386 c 0
 278 398 296 400 300 400 c 10
 349 400 l 2xe8
 385 400 418 409 445 412 c 0
 448 412 453 409 453 405 c 0
 453 397 442 386 433 384 c 0
 408 379 381 364 363 353 c 0
 350 345 283 289 235 247 c 0
 230 243 228 234 232 230 c 0
 284 167 358 89 379 70 c 0
 401 49 441 28 461 22 c 0
 472 18 484 14 484 4 c 0
 484 -4 471 -5 464 -5 c 0
 463 -5 462 -5 461 -5 c 0
 422 -5 389 0 340 0 c 2
 282 0 l 2
 277 0 259 -1 259 9 c 0
 259 30 303 26 303 46 c 0
 303 50 300 55 296 60 c 2
 170 205 l 2
 167 208 160 207 160 195 c 2
 160 65 l 2xd8
EndSplineSet
Validated: 1
Substitution2: "Smallcaps subtable" kgreenlandic.sc
EndChar

StartChar: Lcaron
Encoding: 317 317 230
Width: 574
VWidth: 0
Flags: W
HStem: -5 29<27.3563 94.228> -5 40<220.001 480.636> 622 31<37.0745 116.488 238.822 330.926>
VStem: 130 80<47.25 603.136> 425 71<534.802 653.281> 541 34<139.048 159.894>
LayerCount: 3
Fore
SplineSet
431 472 m 0x3c
 427 472 425 482 425 495 c 0
 425 514 428 538 428 544 c 0
 428 561 423 584 423 617 c 0
 423 644 458 665 480 665 c 0
 492 665 496 651 496 635 c 0
 496 630 496 626 495 621 c 0
 485 552 472 528 457 497 c 0
 451 485 436 472 431 472 c 0x3c
EndSplineSet
Refer: 36 76 N 1 0 0 1 0 0 2
Validated: 1
Substitution2: "c2sc subtable" Lcaron.sc
EndChar

StartChar: lcaron
Encoding: 318 318 231
Width: 246
VWidth: 0
Flags: W
HStem: -3 27<20.0556 73.9702 166.03 219.944> 685 20G<155.5 157.5 234.5 251>
VStem: 85 70<31.1488 627.687> 194 67<574.802 694.402>
LayerCount: 3
Fore
SplineSet
192 657 m 0
 192 683 224 705 245 705 c 0
 257 705 261 691 261 675 c 0
 261 670 261 666 260 661 c 0
 250 592 237 568 222 537 c 0
 216 525 205 512 200 512 c 0
 196 512 194 522 194 535 c 0
 194 554 197 578 197 584 c 0
 197 601 192 624 192 657 c 0
EndSplineSet
Refer: 2 108 N 1 0 0 1 0 0 2
Validated: 1
Substitution2: "Smallcaps subtable" lcaron.sc
EndChar

StartChar: eng
Encoding: 266 331 1033
Width: 513
VWidth: 0
Flags: W
HStem: -288 32<241.594 317.89> -3 27<11.9975 63.5168 163.029 212.003> 349 25<29.0133 59.149> 365 49<226.414 327.634> 410 20G<147.5 149.5>
VStem: 29 119<348.549 397.23> 78 70<32.543 331.355> 360 70<-144.23 331.919>
AnchorPoint: "below_accent" 265 -100 basechar 0
AnchorPoint: "top_accent" 258 550 basechar 0
LayerCount: 3
Fore
SplineSet
148 69 m 2xd3
 148 41 170 30 190 24 c 0
 201 20 213 16 213 6 c 0
 213 -4 195 -3 190 -3 c 0
 151 -3 147 2 112 2 c 0
 77 2 73 -3 34 -3 c 0
 29 -3 11 -4 11 6 c 0
 11 16 23 20 34 24 c 0
 54 30 76 38 78 66 c 1
 79 113 79 154 79 191 c 0
 79 222 79 249 78 277 c 0xd3
 76 313 71 342 37 349 c 0
 32 350 29 356 29 362 c 0xe5
 29 367 31 373 36 374 c 0
 88 386 123 412 146 429 c 0
 147 430 147 430 148 430 c 0xeb
 151 430 154 424 155 421 c 1
 155 411 148 373 148 356 c 0xed
 148 352 148 349 149 348 c 1
 168 367 255 414 318 414 c 0
 383 414 426 373 427 295 c 0
 427 260 430 177 430 90 c 0
 430 -16 426 -128 411 -173 c 0
 382 -259 323 -288 269 -288 c 0
 244 -288 227 -288 203 -278 c 0
 193 -274 176 -262 176 -255 c 0
 176 -239 191 -207 203 -207 c 0
 227 -207 235 -256 278 -256 c 0
 303 -256 335 -236 345 -201 c 0
 357 -160 360 -53 360 50 c 0
 360 148 357 242 357 272 c 0
 357 330 319 365 266 365 c 0
 232 365 198 353 173 334 c 0
 158 323 148 309 148 268 c 2
 148 69 l 2xd3
EndSplineSet
Validated: 1
Substitution2: "Smallcaps subtable" eng.sc
EndChar

StartChar: uni0163
Encoding: 355 355 261
Width: 314
VWidth: 0
Flags: W
HStem: -274 49<103.625 181.545> 352 48<156.344 303.943> 352 27<36.6315 66.1682>
VStem: 85 70<60.6504 351.513> 201 50<-205.712 -134.075>
LayerCount: 3
Fore
SplineSet
116 -129 m 0xd8
 109 -129 98 -123 98 -114 c 0
 98 -111 100 -108 103 -104 c 2
 174 -13 l 1
 120 -8 85 29 85 105 c 2
 85 337 l 2
 85 349 78 352 47 352 c 0
 43 352 35 365 35 372 c 0
 35 375 38 378 40 379 c 0xb8
 93 394 134 468 144 468 c 0
 150 468 158 467 158 458 c 2
 156 414 l 2
 156 405 167 400 180 400 c 2
 294 400 l 2
 299 400 304 388 304 376 c 0
 304 364 299 352 294 352 c 2
 195 352 l 2
 161 352 155 351 155 324 c 2
 155 135 l 2
 155 61 190 41 221 41 c 0
 260 41 280 48 296 60 c 0
 302 64 306 55 306 47 c 0
 306 37 260 -5 206 -13 c 1
 183 -43 l 2
 181 -45 179 -49 179 -51 c 0
 179 -57 186 -62 190 -63 c 0
 222 -77 251 -106 251 -139 c 0
 251 -219 162 -274 126 -274 c 0
 99 -274 96 -252 96 -233 c 0
 96 -219 105 -214 109 -214 c 0
 116 -214 129 -225 162 -225 c 0
 188 -225 201 -206 201 -180 c 0
 201 -144 177 -123 142 -123 c 0
 129 -123 123 -129 116 -129 c 0xd8
EndSplineSet
Validated: 1
Substitution2: "Smallcaps subtable" uni0163.sc
EndChar

StartChar: Uogonek
Encoding: 370 370 274
Width: 738
VWidth: 0
Flags: W
HStem: -287 71<408.439 486.053> -14 50<310.406 462.329> 620 33<25.4669 83.9594 202.114 256.781 515.06 566.939 662.499 726.313>
VStem: 103 80<160.023 606.064> 307 85<-199.668 -110.458> 588 57<323.395 604.72> 592 43<161.07 455.301>
LayerCount: 3
Fore
SplineSet
645 547 m 0xfc
 638 432 638 342 635 250 c 0
 632 143 580 57 500 15 c 1
 479 0 392 -67 392 -155 c 0
 392 -190 423 -216 458 -216 c 0
 493 -216 531 -181 540 -176 c 0
 545 -173 552 -174 552 -182 c 0
 552 -225 475 -287 421 -287 c 0
 358 -287 307 -237 307 -174 c 0
 307 -106 384 -42 435 -8 c 1
 417 -12 399 -14 380 -14 c 0
 188 -14 103 87 103 281 c 2
 103 547 l 2
 103 595 79 614 57 620 c 0
 34 626 24 633 24 642 c 0
 24 650 36 653 53 653 c 0
 83 653 112 650 149 650 c 0
 180 650 208 652 229 652 c 0
 246 652 258 649 258 641 c 0
 258 632 247 628 225 621 c 0
 209 616 183 589 183 549 c 2
 183 253 l 2
 183 132 282 36 403 36 c 0
 530 36 592 140 592 296 c 0xfa
 592 340 590 434 588 511 c 0
 587 562 575 612 547 620 c 0
 533 624 514 631 514 640 c 0
 514 648 526 651 543 651 c 0
 573 651 589 650 618 650 c 0
 650 650 676 653 699 653 c 0
 716 653 728 650 728 642 c 0
 728 633 718 627 695 622 c 0
 660 615 647 587 645 547 c 0xfc
EndSplineSet
Validated: 1
Substitution2: "c2sc subtable" Uogonek.sc
EndChar

StartChar: longs
Encoding: 383 383 19
Width: 261
VWidth: 0
Flags: W
HStem: -3 27<25.0556 74.4246 175.575 224.944> 352 24<26.3029 63.8123> 665 41<226.876 332.376>
VStem: 90 70<32.963 350 390.261 542.665>
AnchorPoint: "below_accent" 134 -100 basechar 0
AnchorPoint: "top_accent" 281 805 basechar 0
LayerCount: 3
Back
SplineSet
160 69 m 2
 160 41 183 30 203 24 c 0
 214 20 226 16 226 6 c 0
 226 -2 213 -3 206 -3 c 0
 205 -3 204 -3 203 -3 c 0
 164 -3 160 2 125 2 c 0
 90 2 86 -3 47 -3 c 0
 46 -3 45 -3 44 -3 c 0
 37 -3 24 -2 24 6 c 0
 24 16 36 20 47 24 c 0
 67 30 90 41 90 69 c 2
 90 350 l 1
 77 350 59 350 38 352 c 0
 32 353 23 374 31 376 c 0
 61 384 71 392 90 402 c 1
 90 633 221 706 308 706 c 0
 353 706 371 703 402 681 c 24
 419 668 421 646 415 628 c 0
 410 613 397 606 384 606 c 0
 355 606 345 665 266 665 c 0
 204 665 160 610 160 475 c 2
 160 69 l 2
EndSplineSet
Fore
Refer: 1128 -1 N 1 0 0 1 0 0 2
Validated: 1
Substitution2: "Single Substitution lookup 53 subtable" longs.short
Substitution2: "Smallcaps subtable" s.sc
EndChar

StartChar: uni0180
Encoding: 319 384 2168
Width: 515
VWidth: 0
Flags: W
HStem: -14 31<213.819 334.869> -2 21G<81 87.5> 373 41<206.387 329.343> 531 36<-16.4794 75 145 296.991> 685 20G<141.5 143.5>
VStem: 75 70<69.4872 337.996 355.054 531 567 627.64> 405 75<112.179 288.838>
LayerCount: 3
Fore
SplineSet
145 388 m 2x7e
 145 367 145 356 154 355 c 1
 200 406 266 414 300 414 c 0
 404 414 480 325 480 217 c 0
 480 100 408 -14 257 -14 c 0xbe
 195 -14 134 13 120 13 c 0
 108 13 90 -2 85 -2 c 0
 77 -2 68 3 68 9 c 0
 68 11 75 52 75 105 c 2
 75 531 l 1
 -6 531 l 2
 -12 531 -20 536 -20 542 c 0
 -20 543 -19 544 -19 545 c 0
 -12 558 -3 567 12 567 c 2
 75 567 l 1
 75 573 l 2
 75 608 61 632 28 639 c 0
 23 640 20 646 20 652 c 0
 20 658 23 663 27 664 c 0
 78 676 108 692 140 704 c 0
 141 704 141 705 142 705 c 0
 145 705 148 701 148 698 c 0
 148 693 145 649 145 593 c 2
 145 567 l 1
 283 567 l 2
 292 567 297 555 297 549 c 0
 297 540 285 531 273 531 c 2
 145 531 l 1
 145 388 l 2x7e
282 17 m 0
 358 17 405 94 405 195 c 0
 405 272 360 373 265 373 c 0
 237 373 188 362 166 338 c 0
 152 323 145 306 145 253 c 2
 145 132 l 2
 145 62 212 17 282 17 c 0
EndSplineSet
Validated: 1
EndChar

StartChar: uni0185
Encoding: 324 389 2385
Width: 515
VWidth: 0
Flags: W
HStem: -14 31<214.194 335.777> -3 21G<80 86.5> 373 41<217.462 329.343> 685 20G<134.5 143.5>
VStem: 19 126<568.214 620.047> 75 70<69.4872 337.996 355.054 548.077> 405 75<110.27 288.838>
LayerCount: 3
Fore
SplineSet
75 105 m 2x76
 75 442 l 2x76
 75 564 19 581 19 596 c 0
 19 611 34 615 41 622 c 0
 79 657 127 705 142 705 c 0
 145 705 155 693 155 690 c 0
 155 685 145 649 145 593 c 2x7a
 145 388 l 2
 145 367 145 356 154 355 c 1
 204 397 266 414 300 414 c 0
 404 414 480 325 480 217 c 0
 480 100 410 -14 259 -14 c 0xb6
 197 -14 127 15 113 15 c 0
 101 15 89 -3 84 -3 c 0
 76 -3 68 3 68 9 c 0
 68 11 75 52 75 105 c 2x76
282 17 m 0xb6
 358 17 405 94 405 195 c 0
 405 272 360 373 265 373 c 0
 237 373 188 362 166 338 c 0
 152 323 145 306 145 253 c 2
 145 132 l 2
 145 62 212 17 282 17 c 0xb6
EndSplineSet
Validated: 1
EndChar

StartChar: uni0188
Encoding: 327 392 2162
Width: 456
VWidth: 0
Flags: W
HStem: -14 52<188.967 300.34> 376 37<164.716 289.433> 676 30<420.187 486.114>
VStem: 35 69<132.446 283.536> 303 68<325.275 363.158 410.047 580.836>
LayerCount: 3
Fore
SplineSet
371 353 m 2
 371 336 343 319 333 319 c 0
 324 319 309 332 306 338 c 0
 294 363 264 376 214 376 c 8
 141 376 104 299 104 226 c 16
 104 130 167 38 263 38 c 16
 305 38 325 54 351 88 c 0
 354 91 357 93 360 93 c 0
 366 93 372 86 372 79 c 0
 372 42 292 -14 206 -14 c 8
 105 -14 35 77 35 180 c 8
 35 303 123 413 246 413 c 16
 261 413 278 411 293 408 c 0
 303 406 303 412 303 418 c 26
 303 465 l 18
 303 612 394 706 480 706 c 0
 513 706 544 702 557 686 c 0
 563 679 565 673 565 667 c 0
 565 645 547 622 528 622 c 0
 501 622 498 676 449 676 c 0
 406 676 371 631 371 506 c 2
 371 353 l 2
EndSplineSet
Validated: 1
EndChar

StartChar: uni0190
Encoding: 335 400 2173
Width: 510
VWidth: 0
Flags: W
HStem: -14 35<221.563 361.215> 332 46<252.889 366.693> 339 33<206.566 324.189> 629 35<217.449 353.591>
VStem: 35 98<108.243 261.976> 75 86<423.859 571.211> 424 44<76.3131 158.905>
LayerCount: 3
Fore
SplineSet
252 339 m 0xb6
 175 339 133 269 133 192 c 0
 133 106 197 21 286 21 c 0
 349 21 396 46 424 116 c 0
 436 145 444 160 448 160 c 0
 458 160 468 153 468 145 c 0
 468 109 461 80 457 52 c 0
 454 34 436 21 423 15 c 0
 391 0 338 -14 257 -14 c 0
 151 -14 35 54 35 169 c 0xba
 35 285 114 340 174 359 c 0
 180 361 179 367 174 369 c 0
 141 382 128 392 107 412 c 0
 92 427 75 450 75 495 c 0
 75 604 188 664 288 664 c 0
 349 664 378 653 422 642 c 0
 431 640 433 632 435 622 c 0
 441 588 445 565 445 530 c 0
 445 521 440 505 435 505 c 0
 430 505 412 515 409 530 c 0
 385 621 325 629 271 629 c 0
 203 629 161 560 161 506 c 0
 161 439 195 372 247 372 c 0xb6
 289 372 288 378 328 378 c 0
 341 378 367 370 367 353 c 0
 367 334 340 332 326 332 c 0xd6
 287 332 271 339 252 339 c 0xb6
EndSplineSet
Validated: 1
EndChar

StartChar: uni0191
Encoding: 401 401 2105
Width: 300
VWidth: 0
Flags: W
HStem: -200 42<24.1861 102.338> 318 37<211.16 382.438> 391 20G<412.5 417.5> 611 39<214.231 429.753> 622 31<37.0745 105.304>
VStem: 130 80<-50.06 315.741 352.008 603.448> 396 32<256.771 304.694> 461 24<523.355 565.46>
AnchorPoint: "top_accent" 279 700 basechar 0
LayerCount: 3
Fore
SplineSet
130 522 m 2xf7
 130 582 119 613 69 622 c 0
 46 626 36 633 36 642 c 0
 36 650 48 653 65 653 c 0xef
 138 653 168 650 237 650 c 0xf7
 328 650 462 653 462 653 c 0xef
 469 653 479 651 480 644 c 0
 484 621 485 558 485 544 c 0
 485 532 482 523 476 523 c 0
 469 523 463 528 461 535 c 0
 454 557 447 574 438 584 c 0
 419 605 396 611 371 611 c 2
 244 611 l 2
 213 611 211 587 210 561 c 0
 209 536 209 502 209 467 c 0
 209 433 209 398 210 374 c 0
 210 363 211 352 220 352 c 0
 262 352 312 355 336 355 c 0
 365 355 387 371 397 394 c 0
 399 399 410 411 415 411 c 0
 420 411 429 404 428 395 c 0
 426 372 425 356 425 340 c 0
 425 320 426 301 428 272 c 0
 428 263 427 255 419 255 c 8
 406 255 398 271 396 278 c 0
 386 309 365 317 349 317 c 0
 332 317 315 318 299 318 c 0
 276 318 255 317 234 316 c 0
 221 315 210 308 210 291 c 2
 210 127 l 2
 210 21 184 -95 157 -134 c 0
 130 -173 93 -200 34 -200 c 0
 -31 -200 -69 -179 -69 -158 c 0
 -69 -131 -51 -103 -33 -103 c 0
 -7 -103 5 -111 17 -129 c 0
 32 -152 47 -158 64 -158 c 0
 111 -158 130 -97 130 0 c 2
 130 522 l 2xf7
EndSplineSet
Validated: 1
EndChar

StartChar: uni019A
Encoding: 410 410 2177
Width: 241
VWidth: 0
Flags: W
HStem: -3 27<20.0556 73.9702 166.03 219.944> 322 38<13.5707 85 156 228.149> 685 20G<155.5 157.5>
VStem: 85 71<31.1488 322 360 627.687>
LayerCount: 3
Fore
SplineSet
155 62 m 0
 155 35 178 30 198 24 c 0
 209 20 221 16 221 6 c 0
 221 -2 208 -3 201 -3 c 0
 162 -3 155 2 120 2 c 0
 85 2 78 -3 39 -3 c 0
 32 -3 19 -2 19 6 c 0
 19 16 31 20 42 24 c 0
 62 30 85 35 85 62 c 2
 85 322 l 1
 26 322 l 2
 19 322 12 328 12 334 c 0
 12 343 22 360 36 360 c 2
 85 360 l 1
 85 566 l 2
 85 605 72 632 39 639 c 0
 34 640 31 646 31 652 c 0
 31 658 34 663 38 664 c 0
 89 676 122 692 154 704 c 0
 155 704 155 705 156 705 c 0
 159 705 162 701 162 698 c 0
 162 686 156 652 156 562 c 2
 156 360 l 1
 216 360 l 2
 222 360 229 354 229 348 c 0
 229 328 214 322 198 322 c 2
 156 322 l 1
 156 243 155 161 155 62 c 0
EndSplineSet
Validated: 1
EndChar

StartChar: uni019B
Encoding: 346 411 2388
Width: 489
VWidth: 0
Flags: W
HStem: -3 27<0.675762 49.7395 282.454 326.233 439.136 487.944> 643 62<97.8343 146.665>
VStem: 0 137<3 75>
LayerCount: 3
Fore
SplineSet
59 424 m 2
 51 420 45 427 45 432 c 0
 45 441 45 463 53 467 c 2
 341 617 l 2
 349 621 366 626 366 616 c 0
 366 598 364 582 348 574 c 2
 59 424 l 2
202 646 m 2
 410 73 l 10
 420 46 446 30 466 24 c 0
 477 20 489 16 489 6 c 0
 489 -2 476 -3 469 -3 c 0
 429 -3 420 2 385 2 c 0
 350 2 342 -3 302 -3 c 0
 294 -3 282 0 282 8 c 0
 282 18 300 27 311 30 c 0
 325 34 338 43 338 62 c 0
 338 70 332 83 330 90 c 2
 264 286 l 2
 251 325 247 318 232 285 c 2
 149 107 l 2
 145 98 137 80 137 70 c 0
 137 45 153 37 165 32 c 0
 176 27 194 18 194 8 c 0
 194 0 181 -3 174 -3 c 0
 156 -3 128 2 91 2 c 0
 54 2 42 -3 20 -3 c 0
 13 -3 0 -1 0 7 c 0
 0 17 12 21 23 24 c 0
 53 32 79 59 94 91 c 2
 212 344 l 2
 228 379 229 385 217 418 c 2
 149 616 l 2
 137 652 118 648 79 643 c 0
 64 641 60 650 60 656 c 0
 60 677 158 705 161 705 c 0
 180 706 194 668 202 646 c 2
EndSplineSet
Validated: 37
EndChar

StartChar: uni019C
Encoding: 412 412 2380
Width: 1045
VWidth: 0
Flags: W
HStem: -13 50<251.927 384.65 621.53 748.294> -3 31<938.559 1014.93> 621 31<11.4669 70.8555 211.047 270.781 380.467 439.855 580.047 639.781 738.846 806.864 940.141 1023.66>
VStem: 97 80<138.711 594.53> 466 80<143.452 594.53> 836 80<44.0437 79.9963 149.348 599.888>
LayerCount: 3
Fore
SplineSet
466 547 m 2xbc
 466 595 434 614 412 620 c 0
 389 626 379 633 379 642 c 0
 379 650 391 653 408 653 c 0
 438 653 471 650 512 650 c 24
 551 650 591 652 612 652 c 0
 629 652 641 649 641 641 c 0
 641 632 630 628 608 621 c 0
 592 616 546 589 546 549 c 2
 546 266 l 10
 546 162 581 37 685 37 c 16xbc
 804 37 836 182 836 301 c 18
 836 550 l 1
 835 601 798 613 770 621 c 0
 756 625 737 632 737 641 c 0
 737 649 749 652 766 652 c 0
 790 652 815 651 844 651 c 0
 903 651 938 655 998 655 c 0
 1015 655 1027 652 1027 644 c 0
 1027 635 1017 630 994 626 c 0
 944 617 916 599 916 552 c 2
 916 100 l 2
 916 53 933 37 983 28 c 0
 1006 24 1016 17 1016 8 c 0
 1016 0 1004 -3 987 -3 c 0x7c
 939 -3 933 0 909 0 c 0
 884 0 856 -6 841 -6 c 0
 835 -6 830 -1 830 8 c 0
 830 14 836 25 836 40 c 2
 836 63 l 18
 836 75 834 80 823 80 c 0
 816 80 807 59 792 44 c 0
 755 7 723 -13 670 -13 c 16
 515 -13 490 108 479 108 c 0
 472 108 451 67 436 52 c 0
 399 15 369 -13 300 -13 c 8
 168 -13 97 60 97 258 c 2
 97 547 l 2
 97 595 65 614 43 620 c 0
 20 626 10 633 10 642 c 0
 10 650 22 653 39 653 c 0
 69 653 102 650 143 650 c 24
 182 650 222 652 243 652 c 0
 260 652 272 649 272 641 c 0
 272 632 261 628 239 621 c 0
 223 616 177 589 177 549 c 2
 177 282 l 10
 177 172 205 37 315 37 c 16
 435 37 466 174 466 288 c 18
 466 547 l 2xbc
EndSplineSet
Validated: 1
EndChar

StartChar: uni019E
Encoding: 414 414 2098
Width: 527
VWidth: 0
Flags: W
HStem: -285 27<304.056 357.97 453.03 507.003> -3 27<24.9975 78.5549 171.445 225.003> 349 25<41.0133 72.6656> 365 49<236.974 340.891> 410 20G<159.5 161.5>
VStem: 41 119<348.549 397.23> 90 70<31.1488 335.218> 369 73<-250.851 334.946>
LayerCount: 3
Fore
SplineSet
279 365 m 0xd5
 212 365 160 347 160 268 c 2
 160 62 l 1
 161 35 183 30 203 24 c 0
 214 20 226 16 226 6 c 0
 226 -2 214 -3 206 -3 c 0
 205 -3 204 -3 203 -3 c 0
 164 -3 160 2 125 2 c 0
 90 2 86 -3 47 -3 c 0
 46 -3 45 -3 44 -3 c 0
 36 -3 24 -2 24 6 c 0
 24 16 36 20 47 24 c 0
 67 30 89 35 90 62 c 1
 90 277 l 2xd3
 90 313 83 342 49 349 c 0
 44 350 41 356 41 362 c 0xe5
 41 367 43 373 48 374 c 0
 100 386 135 412 158 429 c 0
 159 430 159 430 160 430 c 0xeb
 163 430 166 424 167 421 c 1
 167 411 160 373 160 356 c 0
 160 352 160 349 161 348 c 1
 190 372 263 414 326 414 c 0
 391 414 442 373 442 295 c 2
 442 -220 l 2
 442 -247 465 -252 485 -258 c 0
 496 -262 508 -266 508 -276 c 0
 508 -284 496 -285 488 -285 c 0
 487 -285 486 -285 485 -285 c 0
 446 -285 440 -280 405 -280 c 0
 370 -280 365 -285 326 -285 c 0
 325 -285 324 -285 323 -285 c 0
 316 -285 303 -284 303 -276 c 0
 303 -266 315 -262 326 -258 c 0
 346 -252 369 -247 369 -220 c 2
 369 272 l 2
 369 330 332 365 279 365 c 0xd5
EndSplineSet
Validated: 1
EndChar

StartChar: uni01A7
Encoding: 423 423 2379
Width: 465
VWidth: 0
Flags: W
HStem: -16 33<191.79 318.051> 631 33<162.348 271.768>
VStem: 41 89<75.2608 229.291> 329 85<439.449 581.594>
LayerCount: 3
Fore
SplineSet
248 17 m 16
 306 17 352 42 371 103 c 0
 381 135 392 169 401 169 c 0
 412 169 422 149 422 140 c 0
 422 104 415 48 404 25 c 0
 402 20 396 14 383 8 c 0
 366 0 309 -16 236 -16 c 0
 128 -16 41 28 41 141 c 0
 41 288 185 330 242 367 c 0
 293 400 329 444 329 509 c 16
 329 576 281 631 216 631 c 16
 160 631 115 584 105 526 c 0
 102 511 89 498 70 498 c 0
 65 498 63 508 63 523 c 0
 63 554 71 604 72 607 c 0
 74 617 80 630 89 630 c 0
 99 630 175 664 232 664 c 16
 323 664 414 622 414 539 c 0
 414 396 321 372 251 325 c 0
 189 283 130 236 130 154 c 16
 130 83 177 17 248 17 c 16
EndSplineSet
Validated: 1
EndChar

StartChar: uni01AB
Encoding: 427 427 2181
Width: 314
VWidth: 0
Flags: W
HStem: -288 37<121.461 198.854> -14 55<175.024 233.238> 352 48<156.344 303.943> 352 27<36.6315 66.1682>
VStem: 85 70<60.25 351.513> 234 72<-172.807 -6>
LayerCount: 3
Fore
SplineSet
189 -14 m 0xec
 127 -14 85 22 85 105 c 2
 85 337 l 2
 85 349 78 352 47 352 c 0
 43 352 35 365 35 372 c 0
 35 375 38 378 40 379 c 0xdc
 93 394 134 468 144 468 c 0
 150 468 158 467 158 458 c 2
 156 414 l 2
 156 405 167 400 180 400 c 2
 294 400 l 2
 299 400 304 388 304 376 c 0
 304 364 299 352 294 352 c 2
 195 352 l 2
 161 352 155 351 155 324 c 2
 155 135 l 2
 155 61 190 41 221 41 c 0
 260 41 280 48 296 60 c 0
 302 64 306 55 306 47 c 0
 306 -14 299 -128 284 -173 c 0
 255 -259 196 -288 142 -288 c 0
 102 -288 44 -272 44 -249 c 0
 44 -219 60 -193 82 -193 c 0
 106 -193 114 -251 157 -251 c 0
 182 -251 209 -234 219 -199 c 0
 230 -162 234 -95 234 -6 c 1
 220 -11 204 -14 189 -14 c 0xec
EndSplineSet
Validated: 1
EndChar

StartChar: uni01AC
Encoding: 363 428 2182
Width: 578
VWidth: 0
Flags: W
HStem: -5 29<185.692 261.52 411.207 487.308> 451 21G<48.5 70> 604 39<98.8203 292.76 378.75 604.568>
VStem: 8 66<514.7 584.138> 296 80<48.375 600.468> 619 35<517.175 586.637>
LayerCount: 3
Fore
SplineSet
227 643 m 2
 556 642 l 2
 585 642 604 649 614 656 c 0
 634 670 649 692 664 692 c 0
 668 692 671 679 671 669 c 0
 671 666 670 662 670 660 c 0
 661 623 654 587 654 561 c 0
 654 557 654 553 654 549 c 0
 654 537 648 517 638 517 c 0
 628 517 624 532 619 558 c 0
 614 586 591 604 527 604 c 0
 475 604 410 602 392 600 c 0
 378 598 376 575 376 557 c 2
 376 102 l 2
 376 54 405 33 455 24 c 0
 478 20 488 15 488 6 c 0
 488 -2 476 -5 459 -5 c 0
 405 -5 388 0 342 0 c 24
 292 0 268 -5 214 -5 c 0
 197 -5 185 -2 185 6 c 0
 185 15 195 20 218 24 c 0
 268 33 296 54 296 102 c 2
 296 557 l 2
 296 575 294 597 278 600 c 0
 259 604 238 604 204 604 c 2
 142 604 l 2
 112 604 74 574 74 549 c 0
 74 516 108 517 108 494 c 0
 108 470 78 451 62 451 c 0
 35 451 8 487 8 524 c 0
 8 614 93 643 227 643 c 2
EndSplineSet
Validated: 1
EndChar

StartChar: uhorn
Encoding: 367 432 290
Width: 527
VWidth: 0
Flags: W
HStem: -19 56<186.992 285.45> 21 24<446.943 516.841> 365 32<29.0288 68.315 280.055 351.573>
VStem: 85 70<71.1627 353.726> 368 70<78.3695 352.826> 511 50<425.034 495.5>
AnchorPoint: "ogonek" 433 18 basechar 0
AnchorPoint: "below_accent" 259 -100 basechar 0
AnchorPoint: "top_accent" 251 550 basechar 0
LayerCount: 3
Fore
SplineSet
438 326 m 2xbc
 438 114 l 2
 438 73 440 45 456 45 c 0
 466 45 492 46 502 48 c 0
 507 49 517 47 517 35 c 0
 517 24 508 21 503 21 c 0x7c
 451 14 415 -1 386 -13 c 0
 382 -15 368 -19 362 -19 c 0
 358 -19 359 -18 359 -15 c 0
 359 -2 364 34 364 51 c 2
 364 57 l 1
 312 6 261 -14 199 -14 c 0
 134 -14 85 27 85 105 c 2
 85 308 l 2
 85 337 72 353 42 365 c 0
 39 366 29 370 29 380 c 0
 29 393 39 396 44 397 c 0
 98 399 108 405 147 414 c 1
 157 415 162 410 161 400 c 0
 157 369 155 353 155 323 c 2
 155 128 l 2
 155 80 196 37 239 37 c 0
 273 37 298 38 323 57 c 0
 338 68 368 91 368 132 c 2
 368 315 l 2
 368 356 323 364 303 365 c 0
 298 365 280 368 280 382 c 0
 280 394 299 397 303 397 c 0
 404 402 425 412 433 414 c 1
 433 414 511 418 511 446 c 0
 511 460 501 473 488 475 c 8
 475 477 466 488 466 501 c 16
 466 526 496 534 521 534 c 12
 546 534 561 508 561 483 c 0
 561 423 525 392 447 378 c 0
 439 377 437 363 437 351 c 0
 437 342 438 333 438 326 c 2xbc
EndSplineSet
Validated: 1
EndChar

StartChar: uni01B1
Encoding: 368 433 2320
Width: 759
VWidth: 0
Flags: W
HStem: -14 33<322.816 464.567> 622 31<52.1602 173.554 562.461 714.926>
VStem: 80 100<179.691 412.482> 226 76<588.681 644.5> 461 75<579.5 643.5> 579 100<191.457 428.653>
LayerCount: 3
Fore
SplineSet
302 641 m 0
 302 615 278 582 255 558 c 0
 185 485 180 419 180 294 c 0
 180 174 256 19 391 19 c 16
 528 19 579 149 579 286 c 0
 579 391 561 477 506 545 c 0
 495 558 461 607 461 641 c 0
 461 646 462 652 469 652 c 0
 474 652 544 650 582 650 c 0
 621 650 661 653 687 653 c 0
 704 653 716 650 716 642 c 0
 716 633 706 627 683 622 c 0
 634 611 536 614 536 592 c 0
 536 577 542 571 550 565 c 0
 632 503 679 426 679 303 c 0
 679 137 546 -14 385 -14 c 8
 219 -14 80 105 80 283 c 0
 80 402 129 501 198 554 c 0
 219 570 226 586 226 592 c 0
 226 606 118 610 84 620 c 0
 62 627 51 633 51 642 c 0
 51 650 63 653 80 653 c 0
 111 653 148 650 194 650 c 0
 234 650 289 652 294 652 c 0
 300 652 302 648 302 641 c 0
EndSplineSet
Validated: 1
EndChar

StartChar: uni01B9
Encoding: 441 441 2113
Width: 404
VWidth: 0
Flags: W
HStem: -285 37<212.315 344.643> 282 21G<345 355> 367 35<156.75 314.438> 396 20G<363.5 367>
VStem: 24 85<-137.548 13.8173> 198 104<94.3626 137.304> 334 33<282.029 346.155>
LayerCount: 3
Fore
SplineSet
363 -222 m 0xee
 372 -216 381 -215 381 -226 c 0
 381 -234 378 -240 369 -249 c 0
 345 -274 303 -285 247 -285 c 0
 128 -285 24 -187 24 -80 c 0
 24 6 76 91 163 110 c 0
 186 115 198 119 198 125 c 0
 198 127 197 130 195 133 c 2
 70 343 l 2
 54 370 46 387 46 394 c 0
 46 401 58 404 68 404 c 0
 98 404 154 402 216 402 c 2
 288 402 l 10xee
 312 402 345 403 350 407 c 0
 356 412 362 416 365 416 c 0xde
 369 416 375 415 375 405 c 0
 375 395 367 349 367 312 c 2
 367 307 l 2
 367 292 360 282 350 282 c 0
 340 282 335 303 334 311 c 0
 329 352 300 367 252 367 c 2
 158 367 l 2
 144 367 146 362 149 358 c 2
 273 151 l 2
 281 137 302 102 302 95 c 0
 302 81 298 80 284 80 c 0
 273 80 242 94 211 94 c 0
 154 94 109 18 109 -56 c 0
 109 -128 177 -248 273 -248 c 0
 321 -248 337 -240 363 -222 c 0xee
EndSplineSet
Validated: 1
EndChar

StartChar: uni01BA
Encoding: 377 442 2377
Width: 426
VWidth: 0
Flags: W
HStem: -289 44<86.8128 277.009> -155 46<87.2899 271.749> 94 26<214.774 250.868> 286 21G<33.5 43> 368 34<104.384 257.125> 396 20G<57 60.5>
VStem: 24 51<-230.294 -170.148> 37 28<294 326.955> 301 85<-60.6128 54.1212>
LayerCount: 3
Fore
SplineSet
171 -109 m 0xfa80
 255 -109 301 -93 301 -21 c 0
 301 53 259 94 199 94 c 16
 168 94 129 83 115 83 c 0
 101 83 111 100 110 101 c 1
 113 109 125 131 137 151 c 2
 261 354 l 2
 264 358 267 363 252 364 c 0
 221 365 189 368 158 368 c 0xfa80
 151 368 143 367 136 367 c 0
 116 366 85 337 65 311 c 0
 60 305 48 286 38 286 c 0
 29 286 33 300 37 308 c 0
 45 327 49 380 49 405 c 0
 49 415 55 416 59 416 c 0xf580
 62 416 68 412 74 407 c 0
 79 403 103 402 122 402 c 18
 194 402 l 2
 256 402 310 403 363 404 c 0
 368 404 372 396 370 392 c 0
 360 374 353 363 340 343 c 0
 288 263 261 218 215 133 c 0
 210 123 216 120 224 120 c 0
 231 120 239 122 241 122 c 8
 311 122 386 101 386 15 c 0
 386 -92 277 -155 169 -155 c 0
 113 -155 75 -173 75 -201 c 0
 75 -238 139 -245 187 -245 c 16
 233 -245 288 -229 311 -214 c 0
 326 -204 334 -186 353 -186 c 0
 361 -186 361 -192 361 -197 c 0
 361 -213 294 -289 167 -289 c 8
 103 -289 24 -275 24 -211 c 16
 24 -141 93 -109 171 -109 c 0xfa80
EndSplineSet
Validated: 1
EndChar

StartChar: uni01BC
Encoding: 444 444 2397
Width: 568
VWidth: 0
Flags: W
HStem: -14 31<187.464 303.799> 359 40<153.751 299.582> 611 39<180.459 385.495> 622 31<21.0745 96.1275>
VStem: 66 44<88.106 172.905> 379 90<119.448 280.442> 405 38<521.051 591.215>
LayerCount: 3
Fore
SplineSet
254 399 m 8xea
 363 399 470 328 469 219 c 16
 468 67 346 -14 225 -14 c 0
 171 -14 143 0 111 15 c 0
 98 21 80 34 77 52 c 0
 73 80 66 123 66 159 c 0
 66 167 76 174 86 174 c 0
 90 174 98 159 110 130 c 0
 138 60 187 17 242 17 c 0
 347 17 379 114 379 200 c 8
 379 286 312 359 226 359 c 16
 186 359 113 332 102 332 c 0
 88 332 90 345 90 358 c 2
 112 550 l 2
 117 597 103 613 53 622 c 0
 30 626 20 633 20 642 c 0
 20 650 32 653 49 653 c 0xdc
 103 653 120 650 166 650 c 18
 386 650 l 2
 389 650 419 655 425 655 c 0
 432 655 435 645 435 641 c 0
 436 598 443 573 443 540 c 0
 443 526 434 519 429 519 c 0
 422 519 407 536 405 547 c 0
 401 570 392 611 333 611 c 2
 229 611 l 2
 190 611 179 599 176 576 c 2
 153 381 l 1
 182 389 235 399 254 399 c 8xea
EndSplineSet
Validated: 33
EndChar

StartChar: uni021D
Encoding: 476 541 2387
Width: 391
VWidth: 0
Flags: W
HStem: -290 41<70.3865 205.908> 87 45<219.815 238.55> 379 32<126.373 227.639>
VStem: 37 38<257.873 335.488> 270 71<224.178 343.053> 287 80<-121.145 34.8659>
LayerCount: 3
Fore
SplineSet
270 279 m 16xf8
 270 331 233 379 181 379 c 8
 129 379 86 339 75 300 c 0
 69 280 61 254 48 254 c 0
 37 254 37 264 37 277 c 0
 37 303 39 304 43 334 c 0
 44 344 49 367 59 367 c 0
 87 367 126 411 197 411 c 8
 268 411 341 369 341 298 c 8xf8
 341 220 277 169 220 138 c 0
 216 136 216 132 221 132 c 8
 305 132 367 55 367 -28 c 8
 367 -165 233 -290 132 -290 c 0
 88 -290 51 -281 51 -261 c 0
 51 -237 72 -228 84 -228 c 0
 94 -228 118 -249 151 -249 c 0
 264 -249 287 -141 287 -44 c 8xf4
 287 22 246 87 180 87 c 16
 138 87 109 47 105 47 c 0
 97 47 88 48 88 56 c 16
 88 65 107 97 119 104 c 0
 141 117 170 135 199 161 c 0
 217 177 270 225 270 279 c 16xf8
EndSplineSet
Validated: 1
EndChar

StartChar: uni0221
Encoding: 480 545 2191
Width: 637
VWidth: 0
Flags: W
HStem: -14 55<448.645 572.095> -14 45<184.419 298.086> 135 40<497.285 585.054> 379 35<175.114 291.457> 684 20G<415 424>
VStem: 35 74<111.575 287.804> 351 35<-58.3316 0.69043> 352 70<98.3757 323.828 384.004 628.506> 593 44<52.0221 128.759>
LayerCount: 3
Fore
SplineSet
229 379 m 0x7d80
 190 379 109 347 109 213 c 0
 109 62 213 31 257 31 c 0
 313 31 352 72 352 120 c 2
 352 255 l 2
 352 311 307 379 229 379 c 0x7d80
375 23 m 1
 370 28 366 33 362 39 c 0
 360 41 351 56 351 57 c 1xbe80
 331 26 286 -14 220 -14 c 0
 106 -14 35 89 35 190 c 0
 35 306 120 414 260 414 c 0
 288 414 332 400 338 393 c 0
 342 388 346 384 348 384 c 0
 351 384 352 390 352 408 c 2
 352 566 l 2
 352 620 335 632 301 639 c 0
 296 640 293 646 293 652 c 0
 293 657 295 663 300 664 c 0
 373 681 408 704 422 704 c 0
 426 704 428 702 429 698 c 1
 429 686 422 652 422 562 c 2
 422 125 l 2x7d80
 422 115 424 106 426 98 c 1
 463 140 512 175 569 175 c 0
 608 175 637 157 637 104 c 0
 637 37 562 -14 493 -14 c 0
 453 -14 425 -8 404 2 c 1
 397 -12 390 -25 386 -37 c 0
 383 -45 377 -59 364 -59 c 0
 357 -59 351 -51 351 -43 c 0xbe80
 351 -31 360 -6 375 23 c 1
446 65 m 1
 466 47 497 41 530 41 c 0
 556 41 593 56 593 84 c 0
 593 119 573 135 547 135 c 0
 515 135 477 104 446 65 c 1
EndSplineSet
Validated: 1
EndChar

StartChar: uni0225
Encoding: 484 549 2193
Width: 389
VWidth: 0
Flags: W
HStem: -287 30<170.014 255.093> 0 35<126.777 284.014> 286 21G<38.5 48> 364 37<95.9758 241.234> 396 20G<67 70.5>
VStem: 37 33<291.591 332.258> 311 70<-184.212 -24.6128>
LayerCount: 3
Fore
SplineSet
210 -257 m 8xf6
 278 -257 311 -184 311 -116 c 16
 311 -60 296 0 244 0 c 18
 119 0 l 2
 91 0 56 -5 39 -5 c 0
 34 -5 25 7 25 12 c 0
 25 17 48 51 62 70 c 0
 129 166 175 238 248 354 c 0
 251 358 254 364 239 364 c 2
 122 364 l 2xf6
 104 364 90 337 70 311 c 0
 65 305 53 286 43 286 c 0
 34 286 33 300 37 308 c 0
 45 327 54 373 54 398 c 0
 54 408 65 416 69 416 c 0xee
 72 416 78 412 84 407 c 0
 90 402 109 401 127 401 c 0
 142 401 156 402 165 402 c 0
 234 402 290 403 351 405 c 0
 356 405 361 397 358 393 c 0
 344 376 334 363 320 343 c 2
 127 50 l 2
 122 42 133 35 139 35 c 2
 281 35 l 10
 347 35 381 -34 381 -100 c 16
 381 -191 306 -287 206 -287 c 16
 186 -287 170 -280 170 -272 c 0
 170 -263 189 -257 210 -257 c 8xf6
EndSplineSet
Validated: 1
EndChar

StartChar: uni0229
Encoding: 553 553 333
Width: 388
VWidth: 0
Flags: W
HStem: -274 49<151.625 229.545> -14 60<170.037 265.51> 257 31<111.332 284.014> 383 31<163.177 267.455>
VStem: 30 62<133.034 255.743> 249 50<-205.712 -134.075> 295 63<292.515 363.238> 337 17<81.0588 89.6221>
LayerCount: 3
Fore
SplineSet
164 -129 m 0xfd
 157 -129 146 -123 146 -114 c 0
 146 -111 148 -108 151 -104 c 2
 223 -13 l 1
 215 -14 207 -14 198 -14 c 0
 107 -14 30 70 30 203 c 0
 30 316 116 414 229 414 c 0
 310 414 358 376 358 323 c 0xfa
 358 290 351 275 337 268 c 0
 323 261 303 257 281 257 c 2
 117 257 l 2
 101 257 92 254 92 220 c 0
 92 130 153 46 243 46 c 0
 268 46 311 56 337 90 c 0
 340 93 345 97 348 97 c 0
 355 97 356 85 354 77 c 0
 347 51 314 13 260 -4 c 1
 231 -43 l 2
 229 -45 227 -49 227 -51 c 0
 227 -57 234 -62 238 -63 c 0
 270 -77 299 -106 299 -139 c 0
 299 -219 210 -274 174 -274 c 0
 147 -274 144 -252 144 -233 c 0
 144 -219 153 -214 157 -214 c 0
 164 -214 177 -225 210 -225 c 0
 236 -225 249 -206 249 -180 c 0
 249 -144 225 -123 190 -123 c 0
 177 -123 171 -129 164 -129 c 0xfd
213 383 m 0
 157 383 111 329 111 303 c 0
 111 295 116 288 130 288 c 2
 212 288 l 2
 241 288 264 289 285 293 c 0
 292 294 295 310 295 321 c 0
 295 361 252 383 213 383 c 0
EndSplineSet
Validated: 1
EndChar

StartChar: uni0236
Encoding: 501 566 2196
Width: 323
VWidth: 0
Flags: W
HStem: -13 54<174.482 258.59> 135 40<170.123 269.02> 352 48<158.021 301.965> 352 24<36.1639 63.8924>
VStem: 9 35<-50.3316 4.29443> 85 70<147 351.422> 279 44<50.8292 125.929>
LayerCount: 3
Fore
SplineSet
157 107 m 1xce
 165 56 194 41 221 41 c 0
 247 41 279 55 279 83 c 0
 279 122 251 135 225 135 c 0
 205 135 181 124 157 107 c 1xce
155 147 m 1
 183 164 215 175 247 175 c 0
 286 175 323 156 323 103 c 0
 323 36 242 -13 189 -13 c 0
 143 -13 109 6 94 49 c 1
 72 23 53 -5 44 -29 c 0
 41 -37 35 -51 22 -51 c 0
 15 -51 9 -43 9 -35 c 0
 9 -15 38 42 85 91 c 1
 85 173 85 255 85 337 c 0
 85 356 68 350 47 352 c 0
 43 353 35 362 35 369 c 0
 35 372 38 375 40 376 c 0xde
 93 391 134 468 144 468 c 0
 150 468 158 467 158 458 c 2
 158 414 l 2
 158 405 167 400 180 400 c 2
 294 400 l 2xee
 299 400 302 388 302 376 c 0xde
 302 364 299 352 294 352 c 2
 195 352 l 2xee
 161 352 155 351 155 324 c 2
 155 147 l 1
EndSplineSet
Validated: 1
EndChar

StartChar: uni0239
Encoding: 569 569 2097
Width: 811
VWidth: 0
Flags: W
HStem: -285 27<311.997 365.97 464.131 527.003> -14 38<204.516 336.195> -14 31<487.568 614.672> 369 45<523.792 631.995> 382 32<198.653 318.636> 401 20G<441.5 446>
VStem: 35 82<108.761 280.438> 377 70<-246.875 17.7238 47.0042 335.223> 436 23<397.892 420.24> 696 80<129.645 298.441>
LayerCount: 3
Fore
SplineSet
459 411 m 0x86c0
 455 386 450 357 450 351 c 2
 450 348 l 1
 469 367 549 414 612 414 c 0
 715 414 776 320 776 225 c 0
 776 107 677 -14 551 -14 c 0xb2c0
 523 -14 471 0 451 18 c 1
 448 18 447 -27 447 -33 c 2
 447 -220 l 2
 447 -247 485 -252 505 -258 c 0
 516 -262 528 -266 528 -276 c 0
 528 -284 510 -285 502 -285 c 0
 501 -285 447 -281 412 -281 c 0
 377 -281 371 -285 332 -285 c 0
 325 -285 311 -284 311 -276 c 0
 311 -266 323 -262 334 -258 c 0
 354 -252 377 -247 377 -220 c 2
 377 -5 l 2
 377 18 375 25 371 25 c 0
 368 25 365 23 362 20 c 0
 345 5 298 -14 235 -14 c 0
 131 -14 35 54 35 178 c 0
 35 319 135 414 282 414 c 0xcb40
 350 414 405 392 410 392 c 0
 424 392 429 402 436 417 c 0
 437 418 440 421 443 421 c 0
 449 421 459 416 459 411 c 0x86c0
257 382 m 0xcb40
 185 382 117 320 117 205 c 0
 117 72 212 24 272 24 c 0
 306 24 333 28 358 47 c 0
 378 61 378 124 378 171 c 0
 378 207 378 250 377 275 c 0
 375 335 323 382 257 382 c 0xcb40
566 17 m 0xb340
 605 17 696 59 696 193 c 0
 696 347 603 369 560 369 c 0
 526 369 499 359 474 340 c 0
 459 329 450 310 448 269 c 0
 448 252 447 229 447 205 c 0
 447 171 448 136 449 115 c 0
 450 97 454 60 473 42 c 0
 488 28 522 17 566 17 c 0xb340
EndSplineSet
Validated: 1
EndChar

StartChar: uni023B
Encoding: 506 571 2200
Width: 640
VWidth: 0
Flags: W
HStem: -15 31<326.024 480.938> 632 31<314.682 483.324>
VStem: 46 100<217.847 434.419> 576 37<473.764 560.679> 617 1<700.048 703.952>
LayerCount: 3
Fore
SplineSet
116 -74 m 10
 558 700 l 26
 567 717 585 717 604 717 c 16
 611 717 618 711 618 704 c 0
 618 703 617 701 617 700 c 10
 175 -74 l 26
 166 -90 149 -92 130 -92 c 16
 119 -92 115 -84 115 -77 c 0
 115 -76 113 -79 116 -74 c 10
EndSplineSet
Refer: 32 67 N 1 0 0 1 0 0 2
Validated: 5
EndChar

StartChar: uni023D
Encoding: 573 573 2202
Width: 574
VWidth: 0
Flags: W
HStem: -5 29<27.3563 94.228> -5 40<220.001 480.636> 317 36<46.0087 387.479> 622 31<37.0745 116.488 238.822 330.926>
VStem: 130 80<47.25 603.136> 541 34<139.048 159.894>
LayerCount: 3
Fore
SplineSet
60 317 m 2x3c
 51 317 46 329 46 335 c 0
 46 344 58 353 70 353 c 2
 377 353 l 2
 383 353 391 348 391 342 c 0
 391 341 390 340 390 339 c 0
 383 326 374 317 359 317 c 2
 60 317 l 2x3c
EndSplineSet
Refer: 36 76 N 1 0 0 1 0 0 2
Validated: 5
EndChar

StartChar: uni0242
Encoding: 513 578 2371
Width: 328
VWidth: 0
Flags: W
HStem: -3 27<53.0556 106.97 199.03 252.944> 271 21G<35.5 47.5> 381 30<111.76 206.147>
VStem: 30 38<275.656 342.797> 118 70<31.1488 165.995> 241 63<245.57 354.712>
LayerCount: 3
Fore
SplineSet
241 294 m 16
 241 334 216 381 160 381 c 0
 122 381 93 358 68 317 c 0
 57 299 54 271 41 271 c 0
 30 271 30 281 30 294 c 0
 30 320 32 321 36 351 c 0
 37 361 41 376 50 380 c 0
 74 391 132 411 173 411 c 0
 244 411 304 386 304 310 c 8
 304 251 250 204 220 184 c 0
 189 163 188 153 188 118 c 2
 188 62 l 2
 188 35 211 30 231 24 c 0
 242 20 254 16 254 6 c 0
 254 -2 241 -3 234 -3 c 0
 195 -3 188 2 153 2 c 0
 118 2 111 -3 72 -3 c 0
 65 -3 52 -2 52 6 c 0
 52 16 64 20 75 24 c 0
 95 30 118 35 118 62 c 2
 118 120 l 2
 118 152 134 165 172 189 c 0
 202 208 241 245 241 294 c 16
EndSplineSet
Validated: 1
EndChar

StartChar: uni0243
Encoding: 514 579 2198
Width: 578
VWidth: 0
Flags: W
HStem: -5 29<19.6924 97.1038> -4 41<222.575 361.026> 175 36<28.3151 326.602> 343 28<219.903 332.234> 627 30<30.0088 101.681 217.08 343.047>
VStem: 130 78<50.5126 335.62 374.396 607.62> 410 86<428.462 576.093> 443 94<115.164 267.324>
LayerCount: 3
Fore
SplineSet
40 175 m 2x3c
 31 175 26 179 26 185 c 0
 26 194 38 211 50 211 c 2
 316 211 l 2
 322 211 330 207 330 200 c 0
 330 193 312 175 298 175 c 2
 40 175 l 2x3c
EndSplineSet
Refer: 30 66 N 1 0 0 1 0 0 2
Validated: 5
EndChar

StartChar: uni0244
Encoding: 580 580 2205
Width: 738
VWidth: 0
Flags: W
HStem: -14 50<292.425 478.672> 268 36<28.3151 711.602> 620 33<25.4669 83.9594 202.114 256.781 515.06 566.939 662.499 726.313>
VStem: 103 80<153.613 606.064> 588 57<323.395 604.72> 592 43<161.769 455.301>
LayerCount: 3
Fore
SplineSet
40 268 m 2xf0
 31 268 26 272 26 278 c 0
 26 287 38 304 50 304 c 2
 701 304 l 2
 707 304 715 300 715 293 c 0
 715 286 697 268 683 268 c 2
 40 268 l 2xf0
EndSplineSet
Refer: 48 85 N 1 0 0 1 0 0 2
Validated: 5
EndChar

StartChar: uni024A
Encoding: 586 586 2366
Width: 701
VWidth: 0
Flags: W
HStem: -276 31<627.578 706.471> -15 31<292.774 431.009> 632 31<288.378 439.534>
VStem: 41 100<189.154 430.645> 521 80<-213.256 15.4158 74.489 576.137> 728 84<-216.164 -152.771>
LayerCount: 3
Fore
SplineSet
521 116 m 2
 521 524 l 2
 521 580 449 632 358 632 c 8
 212 632 141 473 141 326 c 8
 141 177 210 16 366 16 c 0
 419 16 521 65 521 116 c 2
492 12 m 0
 464 -2 406 -15 339 -15 c 0
 169 -15 41 120 41 302 c 0
 41 496 180 663 374 663 c 0
 406 663 514 640 532 634 c 0
 550 628 579 671 593 671 c 0
 601 671 601 655 601 638 c 2
 601 -47 l 2
 601 -213 618 -245 667 -245 c 0
 701 -245 728 -220 728 -180 c 0
 728 -162 783 -126 804 -126 c 0
 812 -126 812 -139 812 -152 c 0
 812 -238 722 -276 639 -276 c 0
 580 -276 521 -226 521 -109 c 2
 521 -3 l 2
 521 25 508 20 492 12 c 0
EndSplineSet
Validated: 33
EndChar

StartChar: uni024D
Encoding: 524 589 2211
Width: 334
VWidth: 0
Flags: W
HStem: -3 27<30.0556 80.5886 180.901 235.944> 176 44<24.0137 240.596> 348 66<217.752 307.912> 349 25<39.0145 72.2253>
VStem: 39 125<347.525 398.3> 90 70<36.7083 329.52>
LayerCount: 3
Fore
SplineSet
46 220 m 26xc0
 229 220 l 18
 235 220 242 214 242 208 c 0
 242 188 228 176 211 176 c 26
 36 176 l 26
 29 176 22 182 22 188 c 0
 22 197 30 220 46 220 c 26xc0
EndSplineSet
Refer: 12 114 N 1 0 0 1 0 0 2
Validated: 5
EndChar

StartChar: uni024E
Encoding: 590 590 2212
Width: 578
VWidth: 0
Flags: W
HStem: -5 29<153.692 226.247 382.521 455.308> 468 36<28.3151 566.602> 620 33<1.64938 59.1406 191.55 253.781 385.06 452.318 540.619 617.641>
VStem: 264 80<52.5 323.576> 458 163<579 646>
LayerCount: 3
Fore
SplineSet
40 468 m 2
 31 468 26 472 26 478 c 0
 26 487 38 504 50 504 c 2
 556 504 l 2
 562 504 570 500 570 493 c 0
 570 486 552 468 538 468 c 2
 40 468 l 2
EndSplineSet
Refer: 49 89 N 1 0 0 1 0 0 2
Validated: 5
EndChar

StartChar: uni0252
Encoding: 529 594 2071
Width: 522
VWidth: 0
Flags: W
HStem: -14 32<221.243 342.347> -2 21G<99 105.5> 349 25<38.0088 71.8682> 376 38<219.835 336.551> 410 20G<157.5 159.5>
VStem: 93 70<64.7773 338.287> 424 82<119.562 291.239>
LayerCount: 3
Fore
SplineSet
93 104 m 10x66
 93 291 l 26
 93 320 79 342 46 349 c 0
 41 350 38 356 38 362 c 0
 38 368 41 373 45 374 c 0
 96 386 129 413 156 429 c 0
 157 429 157 430 158 430 c 0x6e
 161 430 163 426 164 423 c 1
 164 416 162 404 161 372 c 0
 161 366 161 364 162 364 c 0
 167 364 223 414 311 414 c 0
 415 414 506 346 506 222 c 0
 506 81 406 -14 259 -14 c 0xb6
 203 -14 152 13 138 13 c 0
 126 13 108 -2 103 -2 c 0
 95 -2 86 3 86 9 c 0
 86 11 93 52 93 104 c 10x66
284 18 m 0xb6
 356 18 424 80 424 195 c 0
 424 328 329 376 269 376 c 0
 235 376 216 365 191 346 c 0
 176 335 163 310 163 268 c 2
 163 125 l 2
 163 65 218 18 284 18 c 0xb6
EndSplineSet
Validated: 1
EndChar

StartChar: uni0253
Encoding: 595 595 2116
Width: 515
VWidth: 0
Flags: W
HStem: -14 31<213.819 334.869> -2 21G<81 87.5> 373 41<206.387 329.343> 676 30<194.909 261.114>
VStem: 75 70<69.4872 337.996 355.054 575.542> 405 75<112.179 288.838>
LayerCount: 3
Fore
SplineSet
75 465 m 2x7c
 75 612 169 706 255 706 c 0
 288 706 319 702 332 686 c 0
 338 679 340 673 340 667 c 0
 340 645 322 622 303 622 c 0
 276 622 273 676 224 676 c 0
 181 676 145 609 145 500 c 2
 145 388 l 2
 145 367 145 356 154 355 c 1
 200 406 266 414 300 414 c 0
 404 414 480 325 480 217 c 0
 480 100 408 -14 257 -14 c 0xbc
 195 -14 134 13 120 13 c 0
 108 13 90 -2 85 -2 c 0
 77 -2 68 3 68 9 c 0
 68 11 75 52 75 105 c 2
 75 465 l 2x7c
282 17 m 0
 358 17 405 94 405 195 c 0
 405 272 360 373 265 373 c 0
 237 373 188 362 166 338 c 0
 152 323 145 306 145 253 c 2
 145 132 l 2
 145 62 212 17 282 17 c 0
EndSplineSet
Validated: 1
EndChar

StartChar: uni0257
Encoding: 534 599 2117
Width: 506
VWidth: 0
Flags: W
HStem: -19 50<184.419 289.304> 21 24<433.943 503.841> 379 35<175.114 291.457> 676 30<473.694 540.114>
VStem: 35 74<111.575 287.804> 352 70<62.7966 323.828 384.004 575.542>
LayerCount: 3
Fore
SplineSet
422 110 m 2xbc
 422 68 427 45 443 45 c 0
 453 45 479 46 489 48 c 0
 494 49 504 47 504 35 c 0
 504 24 495 21 490 21 c 0x7c
 438 14 402 -1 373 -13 c 0
 369 -15 355 -19 349 -19 c 0
 345 -19 346 -18 346 -15 c 0
 346 -2 351 34 351 51 c 2
 351 57 l 1
 331 26 286 -14 220 -14 c 0
 106 -14 35 89 35 190 c 0
 35 306 120 414 260 414 c 0
 288 414 332 400 338 393 c 0
 342 388 346 384 348 384 c 0
 351 384 352 390 352 408 c 2
 352 465 l 2
 352 612 448 706 534 706 c 0
 567 706 598 702 611 686 c 0
 617 679 619 673 619 667 c 0
 619 645 601 622 582 622 c 0
 555 622 552 676 503 676 c 0
 460 676 423 609 422 500 c 1
 422 110 l 2xbc
229 379 m 0
 190 379 109 347 109 213 c 0
 109 62 213 31 257 31 c 0xbc
 313 31 352 72 352 120 c 2
 352 255 l 2
 352 311 307 379 229 379 c 0
EndSplineSet
Validated: 1
EndChar

StartChar: uni0258
Encoding: 600 600 1999
Width: 388
VWidth: 0
Flags: W
HStem: -14 58<91.4334 234.31> 252 36<98.0943 279.668> 383 31<118.503 230.127>
VStem: 33 64<293.056 362.441> 37 21<77.6868 92.8573> 299 60<116.62 285.27>
LayerCount: 3
Back
SplineSet
171 -14 m 4
 127 -14 63 5 33 42 c 0
 20 58 38.4863 73.1143 53 84 c 16
 57 87 62 88 67 88 c 0
 77 88 86 83 91 78 c 0
 124 42 142.2 23 186 23 c 0
 232.174 23 301.2 75 301.2 171 c 0
 301.2 205 298.988 255.604 283 255 c 2
 120 249 l 10
 97.4434 248.17 78.2 249 62.2002 252 c 0
 42.518 255.69 28.2002 262 28.2002 295 c 0
 28.2002 334 88 414 190 414 c 0
 300 414 371.893 327.688 372 227 c 0
 372.2 39 258.2 -14 171 -14 c 4
273 318 m 0
 261 340 223.974 371.728 168 370 c 0
 103.2 368 88.2002 340 88 320 c 0
 87.9297 312.93 94.2002 295 105.2 293 c 0
 126.2 289 148.931 288 177 288 c 18
 267 288 l 2
 289 288 280 305 273 318 c 0
EndSplineSet
Fore
SplineSet
191 414 m 0xf4
 301 414 359 336 359 224 c 0
 359 121 323 -14 168 -14 c 0
 89 -14 47 42 37 77 c 0
 35 85 42 93 49 93 c 0
 52 93 55 91 58 88 c 0xec
 84 54 139 44 162 44 c 0
 272 44 299 148 299 220 c 0
 299 254 290 257 274 257 c 2
 110 252 l 2
 105 252 100 252 95 252 c 0
 80 252 67 253 56 255 c 0
 35 259 33 285 33 318 c 0
 33 359 97 414 191 414 c 0xf4
276 318 m 0
 264 340 234 383 178 383 c 0
 130 383 101 365 98 333 c 0
 98 331 97 325 97 319 c 0xf4
 97 308 99 294 106 293 c 0
 127 289 151 288 179 288 c 18
 261 288 l 2
 275 288 280 295 280 303 c 0
 280 308 279 313 276 318 c 0
EndSplineSet
Validated: 1
EndChar

StartChar: uni025D
Encoding: 605 605 2217
Width: 377
VWidth: 0
Flags: W
HStem: -14 32<115.927 224.656> 190 47<123.206 252.54> 240 49<401.845 462.42> 271 21G<59.5 71.5> 381 30<135.76 230.584>
VStem: 35 33<66.1914 123.449> 54 38<275.656 342.797> 265 63<247.049 311> 269 73<53.8956 175.292> 361 39<291.08 359.879>
LayerCount: 3
Fore
SplineSet
361 381 m 2xdb40
 372 389 401 410 410 410 c 0
 419 410 430 405 430 396 c 0
 430 390 400 366 400 324 c 0
 400 296 417 289 430 289 c 0
 449 289 473 312 480 312 c 0
 490 312 493 304 493 294 c 0
 493 284 448 240 405 240 c 0
 384 240 361 270 361 298 c 0
 361 315 370 340 370 340 c 1
 370 340 363 337 354 330 c 2
 328 311 l 1xeb40
 328 280 317 255 307 245 c 0
 292 231 287 229 260 218 c 0
 257 217 256 211 260 211 c 0
 299 207 342 178 342 120 c 0
 342 44 297 18 272 4 c 1
 245 -13 203 -14 158 -14 c 0
 126 -14 50 5 41 40 c 0
 35 67 35 78 35 99 c 0
 35 115 41 124 50 124 c 0
 55 124 62 108 68 94 c 0
 93 38 132 18 169 18 c 0
 222 18 269 55 269 115 c 0xecc0
 269 154 244 196 204 196 c 0
 189 196 179 190 157 190 c 0
 141 190 123 196 123 212 c 0
 123 231 140 237 164 237 c 0
 177 237 188 231 207 231 c 0
 230 231 265 255 265 295 c 0
 265 334 240 381 184 381 c 0
 146 381 117 358 92 317 c 0
 81 299 78 271 65 271 c 0
 54 271 54 281 54 294 c 0
 54 320 56 321 60 351 c 0
 61 361 65 376 74 380 c 0
 98 391 156 411 197 411 c 0
 253 411 303 396 321 352 c 1
 361 381 l 2xdb40
EndSplineSet
Validated: 1
EndChar

StartChar: uni025E
Encoding: 606 606 2152
Width: 457
VWidth: 0
Flags: W
HStem: -14 31<196.098 304.618> 190 47<203.206 333.587> 383 31<179.342 293.759>
VStem: 35 82<101.86 279.37> 345 63<247.016 343.156> 351 71<52.9545 173.771>
LayerCount: 3
Fore
SplineSet
231 -14 m 0xf4
 119 -14 35 70 35 187 c 0
 35 298 131 414 257 414 c 0
 328 414 408 386 408 311 c 0xf8
 408 280 397 255 387 245 c 0
 372 231 367 229 340 218 c 0
 337 217 336 211 340 211 c 0
 379 207 422 178 422 120 c 0
 422 44 377 18 352 4 c 1
 325 -13 273 -14 231 -14 c 0xf4
252 17 m 1
 305 18 351 55 351 115 c 0xf4
 351 154 324 196 284 196 c 0
 269 196 259 190 237 190 c 0
 221 190 203 196 203 212 c 0
 203 231 220 237 244 237 c 0
 257 237 268 231 287 231 c 0
 310 231 345 255 345 295 c 0
 345 334 296 383 240 383 c 0
 201 383 173 374 149 343 c 0
 122 309 117 258 117 210 c 0
 117 112 163 17 251 17 c 2
 252 17 l 1
EndSplineSet
Validated: 1
EndChar

StartChar: uni0260
Encoding: 543 608 2118
Width: 522
VWidth: 0
Flags: W
HStem: -288 41<165.578 290.887> -14 38<204.516 336.195> 382 32<198.653 318.666> 676 30<496.909 563.114>
VStem: 35 82<108.761 280.438> 377 70<-120.42 24.9941 45.2624 335.223 405.957 575.542>
LayerCount: 3
Back
SplineSet
82 -134 m 0xf880
 82 -200 130 -250 209 -250 c 0
 287 -250 357 -192 357 -109 c 0
 357 -72 310 -51 277 -44 c 0
 252 -39 202 -35 179 -34 c 0
 172 -34 162 -32 156 -34 c 1
 144 -42 119 -67 106 -80 c 1
 89 -100 82 -118 82 -134 c 0xf880
200 386 m 8
 143 386 113 318 113 270 c 8
 113 208 150 141 207 141 c 0
 257 141 295 200 295 265 c 8xf5
 295 325 256 386 200 386 c 8
365 295 m 4
 365 198 295.621 106 197 106 c 16
 175 106 161 108 143 118 c 1
 122 102 99 82 99 69 c 0xf3
 99 41 163 31 195 28 c 0
 322 16 418 7 418 -77 c 0
 418 -187 296 -290 195 -290 c 0
 111 -290 11 -264 11 -176 c 0xf880
 11 -129 43 -100 60 -90 c 0
 88 -72 115 -55 130 -31 c 1
 96 -24 40 -3 40 44 c 0xf2
 40 59 49 70 63 81 c 0
 82 95 107 104 122 127 c 1
 114 129 35 173 35 258 c 0
 35 358 126 416 213 416 c 0
 238.987 416 257.303 409.791 277 403.112 c 0
 289.895 398.74 293 403.206 293 410 c 26
 293 465 l 2
 293 612 389 706 475 706 c 0
 508 706 539 702 552 686 c 0
 558 679 560 673 560 667 c 0
 560 645 542 622 523 622 c 0
 496 622 493 676 444 676 c 0
 401 676 365 609 365 500 c 2
 365 500 365 310 365 295 c 4
EndSplineSet
Fore
SplineSet
377 -57 m 2
 377 -6 l 2
 377 17 375 25 371 25 c 0
 368 25 365 23 362 20 c 0
 345 5 298 -14 235 -14 c 0
 131 -14 35 54 35 178 c 0
 35 319 135 414 282 414 c 0
 305 414 344 411 367 406 c 0
 372 405 377 409 377 414 c 26
 377 465 l 2
 377 612 471 706 557 706 c 0
 590 706 621 702 634 686 c 0
 640 679 642 673 642 667 c 0
 642 645 624 622 605 622 c 0
 578 622 575 676 526 676 c 0
 483 676 447 609 447 500 c 2
 447 8 l 2
 447 -222 289 -288 202 -288 c 0
 137 -288 43 -247 43 -211 c 0
 43 -190 73 -151 86 -151 c 0
 104 -151 148 -247 224 -247 c 0
 286 -247 374 -192 377 -57 c 2
257 382 m 0
 185 382 117 320 117 205 c 0
 117 72 212 24 272 24 c 0
 306 24 333 28 358 47 c 0
 373 58 376 91 378 132 c 1
 378 171 l 2
 378 207 378 250 377 275 c 0
 375 335 323 382 257 382 c 0
EndSplineSet
Validated: 1
EndChar

StartChar: uni0264
Encoding: 547 612 2362
Width: 438
VWidth: 0
Flags: W
HStem: -14 30<182.574 251.069> 280 21G<19.5 38 405 423.5> 350 66<54.1318 108.626 341.974 392.4>
VStem: 119 51<23.4713 108.685> 259 66<19.4493 113.621>
LayerCount: 3
Fore
SplineSet
325 80 m 0
 325 22 296 -14 213 -14 c 0
 166 -14 119 11 119 58 c 0
 119 88 197 193 197 193 c 1
 197 193 114 350 78 350 c 0
 46 350 46 280 30 280 c 0
 9 280 5 308 5 328 c 0
 5 373 45 416 97 416 c 0
 153 416 243 248 243 248 c 1
 243 248 329 414 375 414 c 0
 427 414 438 373 438 328 c 0
 438 308 434 280 413 280 c 0
 397 280 404 350 364 350 c 0
 333 350 260 211 260 211 c 1
 260 211 325 106 325 80 c 0
216 153 m 1
 216 153 170 83 170 70 c 0
 170 38 187 16 219 16 c 0
 251 16 259 39 259 63 c 0
 259 77 216 153 216 153 c 1
EndSplineSet
Validated: 1
EndChar

StartChar: uni0268
Encoding: 551 616 2154
Width: 245
VWidth: 0
Flags: W
HStem: -3 27<24.9975 78.9702 171.03 224.926> 176 44<13.1414 90 160 233.893> 352 25<35.0088 66.0645> 513 101<77.1171 159.823>
VStem: 68 101<522.117 604.823> 90 70<31.1488 176 220 339.165>
LayerCount: 3
Fore
SplineSet
162 434 m 0xf4
 166 434 169 432 169 429 c 0xf8
 165 388 160 339 160 294 c 2
 160 220 l 1
 223 220 l 2
 228 220 235 214 235 208 c 0
 235 188 224 176 210 176 c 2
 160 176 l 1
 160 62 l 2
 160 35 183 30 203 24 c 0
 214 20 226 16 226 6 c 0
 226 -2 215 -3 206 -3 c 0
 168 -3 160 2 125 2 c 0
 90 2 83 -3 44 -3 c 0
 36 -3 24 -2 24 6 c 0
 24 16 36 20 47 24 c 0
 67 30 90 35 90 62 c 2
 90 176 l 1
 23 176 l 2
 16 176 12 182 12 188 c 0
 12 197 16 220 31 220 c 2
 90 220 l 1
 90 279 l 2
 90 315 77 345 43 352 c 0
 38 353 35 359 35 365 c 0
 35 370 38 376 42 377 c 0
 109 393 154 434 162 434 c 0xf4
68 563 m 0
 68 592 90 614 118 614 c 0
 147 614 169 592 169 563 c 0
 169 535 147 513 118 513 c 0
 90 513 68 535 68 563 c 0
EndSplineSet
Validated: 1
EndChar

StartChar: uni0269
Encoding: 552 617 2363
Width: 253
VWidth: 0
Flags: W
HStem: -14 46<163.2 230.118> 352 25<31.0088 62.0645>
VStem: 86 70<37.4688 339.165>
LayerCount: 3
Fore
SplineSet
156 76 m 10
 156 54 176 32 193 32 c 0
 223 32 234 44 242 54 c 0
 247 60 258 53 258 45 c 0
 258 37 229 -14 168 -14 c 8
 122 -14 86 24 86 70 c 18
 86 279 l 2
 86 315 73 345 39 352 c 0
 34 353 31 359 31 365 c 0
 31 370 34 376 38 377 c 0
 105 393 150 434 158 434 c 0
 162 434 165 432 165 429 c 0
 161 388 156 339 156 294 c 2
 156 76 l 10
EndSplineSet
Validated: 1
EndChar

StartChar: uni026B
Encoding: 554 619 2220
Width: 241
VWidth: 0
Flags: W
HStem: -3 27<20.0556 73.9702 166.03 219.944> 289 57<155 210.909> 328 56<18.6306 85> 685 20G<155.5 157.5>
VStem: 85 70<31.1488 290 382 627.687>
LayerCount: 3
Fore
SplineSet
238 385 m 0xd8
 244 385 248 384 248 373 c 0
 248 369 219 289 166 289 c 0xd8
 162 289 158 289 155 290 c 1
 155 62 l 2
 155 35 178 30 198 24 c 0
 209 20 221 16 221 6 c 0
 221 -2 208 -3 201 -3 c 0
 162 -3 155 2 120 2 c 0
 85 2 78 -3 39 -3 c 0
 32 -3 19 -2 19 6 c 0
 19 16 31 20 42 24 c 0
 62 30 85 35 85 62 c 2
 85 322 l 1
 75 326 64 328 50 328 c 0
 12 328 7 295 1 295 c 0
 -7 295 -12 301 -12 312 c 0
 -12 316 14 384 67 384 c 0xb8
 74 384 80 383 85 382 c 1
 85 566 l 2
 85 605 72 632 39 639 c 0
 34 640 31 646 31 652 c 0
 31 658 34 663 38 664 c 0
 89 676 122 692 154 704 c 0
 155 704 155 705 156 705 c 0
 159 705 162 701 162 698 c 0
 162 686 155 652 155 562 c 2
 155 349 l 1
 162 347 169 346 178 346 c 0
 216 346 230 385 238 385 c 0xd8
EndSplineSet
Validated: 1
EndChar

StartChar: uni026C
Encoding: 555 620 2218
Width: 284
VWidth: 0
Flags: W
HStem: -3 27<63.0556 116.97 209.03 262.944> 265 42<75.1911 128> 414 29<56.1904 107.705> 685 20G<198.5 200.5>
VStem: 0 52<328.289 412.813> 128 70<31.1488 265 312 401.637 439 627.687>
LayerCount: 3
Fore
SplineSet
198 62 m 2
 198 35 221 30 241 24 c 0
 252 20 264 16 264 6 c 0
 264 -2 251 -3 244 -3 c 0
 205 -3 198 2 163 2 c 0
 128 2 121 -3 82 -3 c 0
 75 -3 62 -2 62 6 c 0
 62 16 74 20 85 24 c 0
 105 30 128 35 128 62 c 2
 128 265 l 1
 57 268 0 298 0 352 c 0
 0 405 38 443 95 443 c 0
 107 443 118 442 128 439 c 1
 128 566 l 2
 128 605 115 632 82 639 c 0
 77 640 74 646 74 652 c 0
 74 658 77 663 81 664 c 0
 132 676 165 692 197 704 c 0
 198 704 198 705 199 705 c 0
 202 705 205 701 205 698 c 0
 205 686 198 652 198 562 c 0
 198 479 198 395 198 312 c 1
 221 318 243 327 268 342 c 0
 273 345 283 355 290 355 c 0
 299 355 299 347 299 338 c 0
 299 331 251 296 198 277 c 1
 198 62 l 2
128 307 m 1
 128 333 l 2
 128 375 111 414 78 414 c 0
 63 414 52 399 52 384 c 0
 52 339 77 312 128 307 c 1
EndSplineSet
Validated: 1
EndChar

StartChar: uni026E
Encoding: 622 622 2121
Width: 503
VWidth: 0
Flags: W
HStem: -285 40<159.854 285.962> -268 64<112.671 160.024> -3 27<20.0556 73.9702 166.03 219.944> 94 26<301.774 328.147> 368 34<191.646 344.125> 685 20G<155.5 157.5>
VStem: 85 70<31.1488 339.014 407.048 627.687> 388 85<-116.747 37.1514>
LayerCount: 3
Fore
SplineSet
388 -67 m 0xbf
 388 7 360 94 286 94 c 0
 255 94 216 83 202 83 c 0
 188 83 198 100 197 101 c 1
 200 109 212 131 224 151 c 2
 348 354 l 2
 351 358 354 363 339 364 c 0
 308 365 276 368 245 368 c 0
 238 368 230 367 223 367 c 0
 204 366 175 340 155 315 c 1
 155 62 l 2
 155 35 178 30 198 24 c 0
 209 20 221 16 221 6 c 0
 221 -2 208 -3 201 -3 c 0
 162 -3 155 2 120 2 c 0
 85 2 78 -3 39 -3 c 0
 32 -3 19 -2 19 6 c 0
 19 16 31 20 42 24 c 0
 62 30 85 35 85 62 c 2
 85 566 l 2
 85 605 72 632 39 639 c 0
 34 640 31 646 31 652 c 0
 31 658 34 663 38 664 c 0
 89 676 122 692 154 704 c 0
 155 704 155 705 156 705 c 0
 159 705 162 701 162 698 c 0
 162 686 156 652 156 562 c 2
 156 411 l 1
 158 410 159 408 161 407 c 0
 166 403 190 402 209 402 c 2
 281 402 l 2
 343 402 397 403 450 404 c 0
 455 404 459 396 457 392 c 0
 447 374 440 363 427 343 c 0
 375 263 348 218 302 133 c 0
 297 123 303 120 311 120 c 0
 318 120 326 122 328 122 c 0
 410 122 473 55 473 -31 c 0
 473 -138 356 -285 215 -285 c 0xbf
 204 -285 159 -284 129 -268 c 0
 114 -261 111 -246 111 -228 c 0
 111 -217 114 -204 125 -204 c 0x7f
 143 -204 150 -221 167 -230 c 0
 187 -241 203 -245 215 -245 c 0
 312 -245 388 -139 388 -67 c 0xbf
EndSplineSet
Validated: 1
EndChar

StartChar: uni0276
Encoding: 630 630 2252
Width: 686
VWidth: 0
Flags: W
HStem: -15 37<211.335 350.078> 0 39<444.029 609.559> 220 33<435.061 557.262> 414 37<435.576 600.375> 424 32<198.322 336.122>
VStem: 35 85<119.755 310.96> 365 70<45.189 220 253 402.884> 622 19<347.096 376.453>
AnchorPoint: "below_accent" 175 -100 basechar 0
AnchorPoint: "top_accent" 175 550 basechar 0
LayerCount: 3
Fore
SplineSet
349 398 m 0xaf
 323 421 309 424 266 424 c 0
 154 424 120 327 120 232 c 0
 120 115 176 22 288 22 c 0
 322 22 330 26 351 41 c 0
 361 49 365 62 365 79 c 2
 365 357 l 2
 365 372 360 388 349 398 c 0xaf
340 -3 m 0
 316 -12 303 -15 272 -15 c 0
 139 -15 35 88 35 217 c 0
 35 340 144 456 272 456 c 0xaf
 289 456 314 451 328 450 c 0
 358 448 362 448 392 448 c 0
 473 448 570 451 607 451 c 2
 618 451 l 2
 622 451 629 450 630 445 c 0
 635 419 641 377 641 353 c 0
 641 349 634 347 630 347 c 0
 625 347 624 349 622 354 c 0
 612 385 595 414 560 414 c 2
 460 414 l 2
 452 414 435 404 435 392 c 2
 435 268 l 2
 435 260 436 253 442 253 c 2
 523 253 l 2
 544 253 559 264 565 281 c 0
 567 284 576 294 579 294 c 0
 583 294 589 289 588 283 c 0
 587 267 586 252 586 237 c 0
 586 219 587 201 588 182 c 0
 589 176 588 170 582 170 c 8
 572 170 566 185 564 189 c 0
 558 210 544 220 532 220 c 2
 457 220 l 2
 438 220 435 219 435 200 c 2
 435 90 l 1
 436 62 450 39 480 39 c 2
 562 39 l 2
 565 39 601 44 610 51 c 0
 622 61 637 86 642 97 c 0
 646 105 666 108 666 96 c 1
 663 69 655 32 649 10 c 0
 648 4 647 -2 640 -2 c 8
 547 -2 469 0 401 0 c 0x77
 384 0 345 -1 340 -3 c 0
EndSplineSet
Validated: 1
EndChar

StartChar: uni0277
Encoding: 631 631 2389
Width: 708
VWidth: 0
Flags: W
HStem: -14 47<161.784 268.795 419.91 536.725> 380 34<260.655 453.556>
VStem: 50 80<70.0116 254.945> 317 85<121.188 286.522> 321 74<68.6175 232.744> 578 80<102.239 271.121>
LayerCount: 3
Fore
SplineSet
130 193 m 8xec
 130 123 140 33 210 33 c 16
 273 33 321 74 321 119 c 8xec
 321 166 317 192 317 239 c 16
 317 282 342 295 373 295 c 16
 397 295 402 262 402 235 c 8xf4
 402 187 395 131 395 111 c 8
 395 67 431 33 475 33 c 16
 555 33 578 105 578 172 c 16
 578 311 480 380 364 380 c 16
 227 380 130 310 130 193 c 8xec
658 198 m 16
 658 74 567 -14 451 -14 c 16
 393 -14 349 7 333 49 c 0
 330 56 327 60 323 60 c 0
 319 60 311 46 302 36 c 0
 279 9 249 -14 169 -14 c 8
 86 -14 50 79 50 162 c 16
 50 320 213 414 373 414 c 16
 513 414 658 337 658 198 c 16
EndSplineSet
Validated: 1
EndChar

StartChar: uni0280
Encoding: 575 640 2065
Width: 468
VWidth: 0
Flags: W
HStem: -14 34<390.068 452.565> -3 27<18.0556 71.377 164.03 217.944> 376 29<19.0403 73.303 158.307 263.413>
VStem: 82 70<31.5938 187.042 218.409 370.182> 289 75<243.215 358.077>
LayerCount: 3
Fore
SplineSet
289 302 m 0x38
 289 341 277 376 199 376 c 0
 161 376 152 360 152 338 c 2
 152 242 l 2
 152 218 182 217 185 217 c 0
 249 217 289 244 289 302 c 0x38
199 405 m 0
 300 405 364 378 364 303 c 0
 364 272 349 245 338 235 c 0
 324 221 307 210 298 206 c 0
 295 205 286 204 289 200 c 0
 332 135 338 106 386 41 c 0
 401 21 410 20 425 20 c 0
 432 20 440 21 449 21 c 0
 451 21 453 21 455 21 c 0
 458 21 459 18 459 15 c 0
 459 10 457 3 453 1 c 0
 444 -5 417 -14 400 -14 c 0xb8
 380 -14 332 -8 316 24 c 0
 294 68 294 68 247 145 c 0
 239 157 231 165 217 172 c 24
 197 182 175 186 162 187 c 0
 155 188 152 182 152 173 c 2
 153 63 l 2
 153 35 176 30 196 24 c 0
 207 20 219 16 219 6 c 0
 219 -2 206 -3 199 -3 c 0
 198 -3 197 -3 196 -3 c 0
 157 -3 153 2 118 2 c 0
 83 2 79 -3 40 -3 c 0
 39 -3 38 -3 37 -3 c 0
 30 -3 17 -2 17 6 c 0
 17 16 29 20 40 24 c 0x78
 60 30 82 35 82 63 c 2
 82 320 l 2
 82 371 67 369 36 376 c 0
 33 377 19 384 19 390 c 0
 19 396 27 402 32 402 c 0
 67 405 159 405 199 405 c 0
EndSplineSet
Validated: 1
EndChar

StartChar: uni0282
Encoding: 642 642 2224
Width: 323
VWidth: 0
Flags: W
HStem: -288 28<82.9154 170.865> -189 20G<234.5 249> -14 27<102.43 195.956> 388 26<139.796 216.84>
VStem: 30 65<-242.084 0> 30 41<34.8134 90.8655> 52 61<279.201 364.214> 182 72<-248.392 -189.197> 221 72<30.4043 132.916> 246 40<312.953 366.913>
LayerCount: 3
Fore
SplineSet
95 -36 m 2xf880
 95 -202 102 -260 140 -260 c 0
 166 -260 182 -238 182 -219 c 0
 182 -201 224 -169 245 -169 c 0
 253 -169 254 -182 254 -195 c 0
 254 -258 188 -288 116 -288 c 0
 50 -288 31 -211 30 -104 c 1xf9
 30 -104 30 -31 30 24 c 0
 30 52 30 75 30 83 c 0
 30 89 39 92 47 92 c 0
 54 92 70 75 71 70 c 0
 78 36 112 13 147 13 c 0
 203 13 221 44 221 84 c 0xf480
 221 120 193 143 149 174 c 0
 101 208 52 251 52 300 c 0
 52 353 92 414 190 414 c 0
 230 414 259 401 269 391 c 1
 281 376 286 341 286 313 c 0
 286 310 284 309 280 309 c 0
 270 309 247 321 246 330 c 0xf240
 244 354 215 388 182 388 c 0
 127 388 113 348 113 320 c 0xf3
 113 285 166 251 198 231 c 0
 228 212 293 172 293 106 c 0
 293 37 260 -14 149 -14 c 0
 95 -14 95 0 95 0 c 9
 95 -36 l 2xf880
EndSplineSet
Validated: 1
EndChar

StartChar: uni0284
Encoding: 644 644 2225
Width: 221
VWidth: 0
Flags: W
HStem: -287 27<-15.3848 22.4884> 176 44<13.1049 90 160 219.962> 352 25<10.0116 51.277> 676 30<209.175 275.114>
VStem: 90 70<-125.075 176 220 328.821 389.146 575.542>
LayerCount: 3
Fore
SplineSet
90 465 m 1
 92 612 183 706 269 706 c 0
 302 706 333 702 346 686 c 0
 352 679 354 673 354 667 c 0
 354 645 336 622 317 622 c 0
 290 622 287 676 238 676 c 0
 195 676 160 610 160 500 c 2
 160 220 l 1
 209 220 l 2
 214 220 221 214 221 208 c 0
 221 188 211 176 195 176 c 2
 160 176 l 1
 160 91 l 2
 160 29 159 -72 130 -152 c 0
 105 -220 45 -287 5 -287 c 0
 -2 -287 -16 -284 -16 -277 c 0
 -16 -269 -7 -261 -5 -260 c 0
 19 -254 42 -237 61 -197 c 0
 90 -136 90 0 90 69 c 2
 90 176 l 1
 23 176 l 2
 17 176 12 182 12 188 c 0
 12 197 16 220 31 220 c 2
 90 220 l 1
 90 286 l 2
 90 322 52 345 18 352 c 0
 13 353 10 359 10 365 c 0
 10 370 14 377 17 377 c 0
 22 377 67 382 82 389 c 0
 89 392 90 403 90 408 c 10
 90 465 l 1
EndSplineSet
Validated: 1
EndChar

StartChar: uni0286
Encoding: 646 646 2226
Width: 213
VWidth: 0
Flags: W
HStem: -287 43<-69.0043 42.5645> -135 34<-64.4584 72.0684> 676 30<211.909 278.114>
VStem: -139 54<-228.349 -152.05> 91 72<-113.037 575.542>
LayerCount: 3
Fore
SplineSet
-5 -244 m 0
 10 -244 42 -237 61 -197 c 0
 67 -185 71 -170 75 -153 c 1
 49 -142 21 -135 -8 -135 c 0
 -37 -135 -85 -150 -85 -184 c 0
 -85 -217 -62 -244 -5 -244 c 0
163 91 m 2
 163 32 162 -65 136 -144 c 1
 206 -188 255 -251 255 -266 c 0
 255 -276 252 -288 243 -288 c 0
 235 -288 229 -280 223 -271 c 0
 210 -251 173 -210 123 -178 c 1
 97 -236 53 -287 -21 -287 c 0
 -83 -287 -139 -257 -139 -206 c 0
 -139 -145 -66 -101 4 -101 c 0
 30 -101 56 -106 81 -116 c 1
 90 -53 91 24 91 69 c 2
 91 465 l 2
 91 612 186 706 272 706 c 0
 305 706 336 702 349 686 c 0
 355 679 357 673 357 667 c 0
 357 645 339 622 320 622 c 0
 293 622 290 676 241 676 c 0
 198 676 163 609 163 500 c 2
 163 91 l 2
EndSplineSet
Validated: 1
EndChar

StartChar: uni028B
Encoding: 586 651 2235
Width: 468
VWidth: 0
Flags: W
HStem: -14 43<194.702 300.632> 365 32<29.0288 68.315> 394 20G<127.5 153 328.5 346.5>
VStem: 85 70<71.9521 353.726> 368 70<141.147 304.408>
LayerCount: 3
Back
SplineSet
432 415 m 4x1c
 433 415 433 415 434 415 c 4x1c
 443 415 451 405 446 397 c 4
 442 390 438 342 438 326 c 6
 438 114 l 6
 438 73 440 45 456 45 c 4
 466 45 492 46 502 48 c 4
 507 49 517 47 517 35 c 4
 517 24 508 21 503 21 c 4x6c
 451 14 415 -1 386 -13 c 4
 382 -15 368 -19 362 -19 c 4
 358 -19 359 -18 359 -15 c 4
 359 -2 364 34 364 51 c 4
 364 53 364 56 364 57 c 5
 312 6 261 -14 199 -14 c 4
 134 -14 85 27 85 105 c 6
 85 308 l 2
 85 337 72 353 42 365 c 0
 39 366 29 370 29 380 c 0
 29 393 39 396 44 397 c 0
 98 399 108 405 147 414 c 1
 157 415 162 410 161 400 c 0
 157 369 155 353 155 323 c 2
 155 128 l 6
 155 80 196 37 239 37 c 4
 273 37 298 38 323 57 c 4
 338 68 368 91 368 132 c 6
 368 315 l 6
 368 356 323 364 303 365 c 4
 298 365 280 368 280 382 c 4
 280 394 299 397 303 397 c 4xac
 404 402 396 405 432 415 c 4x1c
EndSplineSet
Fore
SplineSet
85 108 m 2xb8
 85 308 l 2
 85 337 72 353 42 365 c 0
 39 366 29 370 29 380 c 0
 29 393 39 396 44 397 c 0xd8
 98 399 108 405 147 414 c 0
 148 414 148 414 149 414 c 0
 157 414 162 409 161 400 c 0
 157 369 155 353 155 323 c 2
 155 149 l 2
 155 81 197 29 241 29 c 0
 347 29 368 124 368 218 c 0
 368 263 354 300 331 326 c 0
 318 340 281 361 281 366 c 0
 281 385 320 414 337 414 c 0
 356 414 438 357 438 249 c 0
 438 132 361 -14 211 -14 c 0
 155 -14 85 39 85 108 c 2xb8
EndSplineSet
Validated: 1
EndChar

StartChar: uni0293
Encoding: 594 659 2231
Width: 426
VWidth: 0
Flags: W
HStem: -285 40<91.2888 209.463> -97 34<84.8524 204.52> 94 26<214.774 241.147> 286 21G<33.5 43> 368 34<104.384 257.125> 396 20G<57 60.5>
VStem: 18 51<-224.225 -115.163> 37 28<294 326.955> 301 85<-120.205 37.1514>
LayerCount: 3
Fore
SplineSet
339 -167 m 1xf980
 370 -203 391 -241 391 -269 c 0
 391 -278 390 -286 383 -286 c 0
 376 -286 368 -273 362 -262 c 0
 352 -243 336 -220 315 -197 c 1
 271 -248 209 -285 140 -285 c 0
 56 -285 18 -240 18 -179 c 0
 18 -107 87 -63 156 -63 c 0
 200 -63 249 -87 291 -121 c 1
 298 -102 301 -84 301 -67 c 0
 301 7 273 94 199 94 c 0
 168 94 129 83 115 83 c 0
 101 83 111 100 110 101 c 1
 113 109 125 131 137 151 c 2
 261 354 l 2
 264 358 267 363 252 364 c 0
 221 365 189 368 158 368 c 0xfa80
 151 368 143 367 136 367 c 0
 116 366 85 337 65 311 c 0
 60 305 48 286 38 286 c 0
 29 286 33 300 37 308 c 0
 45 327 49 380 49 405 c 0
 49 415 55 416 59 416 c 0xf580
 62 416 68 412 74 407 c 0
 79 403 103 402 122 402 c 2
 194 402 l 2
 256 402 310 403 363 404 c 0
 368 404 372 396 370 392 c 0
 360 374 353 363 340 343 c 0
 288 263 261 218 215 133 c 0
 210 123 216 120 224 120 c 0
 231 120 239 122 241 122 c 0
 323 122 386 55 386 -31 c 0
 386 -74 369 -123 339 -167 c 1xf980
274 -158 m 1
 233 -124 183 -97 130 -97 c 0
 86 -97 69 -126 69 -154 c 0
 69 -214 95 -245 140 -245 c 0
 200 -245 247 -206 274 -158 c 1
EndSplineSet
Validated: 1
EndChar

StartChar: uni0295
Encoding: 596 661 2247
Width: 377
VWidth: 0
Flags: W
HStem: -3 27<124.056 177.97 270.03 323.944> 663 37<159.712 278.981>
VStem: 32 74<471.624 594.587> 189 70<31.1488 315.672>
LayerCount: 3
Fore
SplineSet
32 504 m 0
 32 628 133 700 246 700 c 16
 289 700 336 689 366 652 c 0
 369 648 371 644 371 640 c 0
 371 623 343 606 333 606 c 0
 324 606 313 611 308 616 c 0
 275 652 264 663 214 663 c 8
 147 663 106 597 106 530 c 16
 106 495 149 432 181 412 c 0
 211 393 259 334 259 268 c 2
 259 62 l 2
 259 35 282 30 302 24 c 0
 313 20 325 16 325 6 c 0
 325 -2 312 -3 305 -3 c 0
 266 -3 259 2 224 2 c 0
 189 2 182 -3 143 -3 c 0
 136 -3 123 -2 123 6 c 0
 123 16 135 20 146 24 c 0
 166 30 189 35 189 62 c 2
 189 244 l 2
 189 280 171 327 132 355 c 0
 93 383 32 454 32 504 c 0
EndSplineSet
Validated: 1
EndChar

StartChar: uni0296
Encoding: 597 662 2248
Width: 379
VWidth: 0
Flags: W
HStem: -14 37<98.0191 217.288> 685 20G<188.5 190.5>
VStem: 118 70<370.328 627.713> 271 74<91.413 214.376>
LayerCount: 3
Fore
SplineSet
188 567 m 2
 188 442 l 2
 188 406 206 359 245 331 c 0
 284 303 345 232 345 182 c 0
 345 58 244 -14 131 -14 c 16
 88 -14 41 -3 11 34 c 0
 8 38 6 42 6 46 c 0
 6 63 34 80 44 80 c 0
 53 80 64 75 69 70 c 0
 102 34 113 23 163 23 c 8
 230 23 271 89 271 156 c 16
 271 191 228 254 196 274 c 0
 166 293 118 352 118 418 c 2
 118 567 l 2
 118 605 105 632 72 639 c 0
 67 640 64 646 64 652 c 0
 64 658 67 663 71 664 c 0
 122 676 155 692 187 704 c 0
 188 704 188 705 189 705 c 0
 192 705 195 701 195 698 c 0
 195 686 188 656 188 567 c 2
EndSplineSet
Validated: 1
EndChar

StartChar: uni0298
Encoding: 599 664 2251
Width: 675
VWidth: 0
Flags: W
HStem: -14 39<267.189 428.052> 272 110<292.847 379.153> 625 39<252.248 411.452>
VStem: 40 80<212.424 441.209> 281 110<283.847 370.153> 555 80<203.781 446.405>
LayerCount: 3
Fore
SplineSet
336 382 m 24
 366 382 391 357 391 327 c 24
 391 297 366 272 336 272 c 24
 306 272 281 297 281 327 c 24
 281 357 306 382 336 382 c 24
40 315 m 0
 40 497 165 664 338 664 c 0
 515 664 635 512 635 335 c 0
 635 152 521 -14 338 -14 c 0
 165 -14 40 141 40 315 c 0
331 625 m 0
 196 625 120 485 120 350 c 0
 120 194 196 25 351 25 c 0
 486 25 555 170 555 305 c 0
 555 457 483 625 331 625 c 0
EndSplineSet
Validated: 1
EndChar

StartChar: uni029A
Encoding: 666 666 2157
Width: 461
VWidth: 0
Flags: W
HStem: -14 31<163.805 270.593> 188 59<176.703 258.579> 199 34<138.856 226.974> 383 31<143.524 256.635>
VStem: 35 75<60.8454 164.891> 47 70<249.42 354.012> 344 82<113.57 289.08>
LayerCount: 3
Fore
SplineSet
215 17 m 0xba
 324 17 344 150 344 189 c 0
 344 284 288 383 202 383 c 0
 158 383 117 365 117 318 c 0
 117 259 146 233 173 233 c 0xb6
 192 233 215 247 228 247 c 0
 252 247 260 230 260 215 c 0
 260 202 244 188 228 188 c 0xd6
 206 188 191 199 176 199 c 0
 136 199 110 162 110 114 c 0
 110 66 162 17 215 17 c 0xba
193 -14 m 0
 88 -14 35 23 35 91 c 0x9a
 35 176 90 197 129 207 c 0
 139 209 138 213 129 214 c 0
 90 220 47 242 47 295 c 0
 47 378 148 414 219 414 c 0
 335 414 426 321 426 213 c 0
 426 96 343 -14 193 -14 c 0
EndSplineSet
Validated: 1
EndChar

StartChar: uni029C
Encoding: 668 668 2067
Width: 510
VWidth: 0
Flags: W
HStem: -3 27<26.0556 79.377 171.437 225.944 286.056 338.682 432.178 485.944> 191 37<160 350> 376 27<30.0556 80.4012 169.599 219.944 292.997 341.691 430.888 483.003>
VStem: 90 70<31.5938 191 228 370.47> 350 70<31.8574 191 228 369.352>
LayerCount: 3
Fore
SplineSet
350 337 m 2
 350 364 335 370 315 376 c 0
 304 380 292 384 292 394 c 0
 292 402 304 403 312 403 c 0
 313 403 314 403 315 403 c 0
 354 403 352 398 387 398 c 0
 422 398 422 403 461 403 c 0
 462 403 463 403 464 403 c 0
 472 403 484 402 484 394 c 0
 484 384 472 380 461 376 c 0
 441 370 420 364 420 337 c 2
 420 63 l 2
 420 36 444 30 464 24 c 0
 475 20 487 16 487 6 c 0
 487 -2 474 -3 467 -3 c 0
 466 -3 465 -3 464 -3 c 0
 425 -3 421 2 386 2 c 0
 351 2 347 -3 308 -3 c 0
 307 -3 306 -3 305 -3 c 0
 298 -3 285 -2 285 6 c 0
 285 16 297 20 308 24 c 0
 328 30 350 36 350 63 c 2
 350 186 l 2
 350 191 349 191 346 191 c 2
 163 191 l 10
 160 191 160 189 160 184 c 2
 160 63 l 2
 160 35 184 30 204 24 c 0
 215 20 227 16 227 6 c 0
 227 -2 214 -3 207 -3 c 0
 206 -3 205 -3 204 -3 c 0
 165 -3 161 2 126 2 c 0
 91 2 87 -3 48 -3 c 0
 47 -3 46 -3 45 -3 c 0
 38 -3 25 -2 25 6 c 0
 25 16 37 20 48 24 c 0
 68 30 90 35 90 63 c 2
 90 337 l 2
 90 364 72 370 52 376 c 0
 41 380 29 384 29 394 c 0
 29 402 42 403 49 403 c 0
 50 403 51 403 52 403 c 0
 91 403 91 398 126 398 c 0
 161 398 159 403 198 403 c 0
 199 403 200 403 201 403 c 0
 208 403 221 402 221 394 c 0
 221 384 209 380 198 376 c 0
 178 370 160 364 160 337 c 2
 160 234 l 2
 160 229 167 228 170 228 c 2
 345 228 l 2
 347 228 350 230 350 236 c 2
 350 337 l 2
EndSplineSet
Validated: 1
EndChar

StartChar: uni029D
Encoding: 669 669 2232
Width: 213
VWidth: 0
Flags: W
HStem: -287 43<-88.0043 23.5645> -135 34<-83.4584 53.0684> 352 25<17.0088 48.0645> 513 101<60.1171 142.823>
VStem: -158 54<-228.349 -152.05> 51 101<522.117 604.823> 71 73<-113.038 340.129>
LayerCount: 3
Fore
SplineSet
-24 -244 m 0xf8
 -9 -244 23 -237 42 -197 c 0
 48 -185 52 -170 56 -153 c 1
 30 -142 2 -135 -27 -135 c 0
 -56 -135 -104 -150 -104 -184 c 0
 -104 -217 -81 -244 -24 -244 c 0xf8
51 563 m 0xfc
 51 592 73 614 101 614 c 0
 130 614 152 592 152 563 c 0
 152 535 130 513 101 513 c 0
 73 513 51 535 51 563 c 0xfc
104 -178 m 1
 78 -236 34 -287 -40 -287 c 0
 -102 -287 -158 -257 -158 -206 c 0
 -158 -145 -85 -101 -15 -101 c 0
 11 -101 37 -106 62 -116 c 1
 71 -53 71 23 71 69 c 2
 71 279 l 2
 71 315 59 345 25 352 c 0
 20 353 17 359 17 365 c 0
 17 370 20 376 24 377 c 0
 91 393 136 434 144 434 c 0
 148 434 151 432 151 429 c 0
 147 388 144 320 144 275 c 2
 144 91 l 2xfa
 144 31 143 -65 117 -144 c 1
 187 -188 236 -251 236 -266 c 0
 236 -276 233 -288 224 -288 c 0
 216 -288 210 -280 204 -271 c 0
 191 -251 154 -210 104 -178 c 1
EndSplineSet
Validated: 1
EndChar

StartChar: uni02A0
Encoding: 607 672 2123
Width: 522
VWidth: 0
Flags: W
HStem: -285 27<312.056 365.97 461.69 521.003> -14 38<204.516 336.195> 382 32<198.653 318.966> 676 30<496.77 563.114>
VStem: 35 82<108.761 280.438> 377 70<-248.32 24.9948 45.2624 335.223 406.188 580.836>
LayerCount: 3
Fore
SplineSet
447 -220 m 2
 447 -247 479 -252 499 -258 c 0
 510 -262 522 -266 522 -276 c 0
 522 -284 510 -285 502 -285 c 0
 501 -285 500 -285 499 -285 c 0
 460 -285 447 -280 412 -280 c 0
 377 -280 373 -285 334 -285 c 0
 333 -285 332 -285 331 -285 c 0
 324 -285 311 -284 311 -276 c 0
 311 -266 323 -262 334 -258 c 0
 354 -252 377 -247 377 -220 c 2
 377 -5 l 2
 377 18 375 25 371 25 c 0
 368 25 365 23 362 20 c 0
 345 5 298 -14 235 -14 c 0
 131 -14 35 54 35 178 c 0
 35 319 135 414 282 414 c 0
 310 414 335 410 356 406 c 0
 371 403 375 409 375 418 c 26
 375 465 l 2
 375 612 471 706 557 706 c 0
 590 706 621 702 634 686 c 0
 640 679 642 673 642 667 c 0
 642 645 624 622 605 622 c 0
 578 622 575 676 526 676 c 0
 483 676 447 609 447 500 c 2
 447 -220 l 2
257 382 m 0
 185 382 117 320 117 205 c 0
 117 72 212 24 272 24 c 0
 306 24 333 28 358 47 c 0
 378 61 378 124 378 171 c 0
 378 207 378 250 377 275 c 0
 375 335 323 382 257 382 c 0
EndSplineSet
Validated: 1
EndChar

StartChar: uni02A3
Encoding: 610 675 2090
Width: 735
VWidth: 0
Flags: W
HStem: -14 45<184.419 298.086> -5 40<481.777 651.375> 364 37<448.611 604.999> 379 35<175.114 291.457> 684 20G<415 424>
VStem: 35 74<111.575 287.804> 352 70<91.9014 323.828 407.239 628.506>
LayerCount: 3
Back
SplineSet
373 -13 m 4x7780
 368 -15 355 -19 349 -19 c 0
 345 -19 346 -18 346 -15 c 0
 346 -2 351 34 351 51 c 0
 351 53 351 56 351 57 c 1
 331 26 286 -14 220 -14 c 0
 106 -14 35 89 35 190 c 0
 35 306 120 414 260 414 c 0xaf80
 288 414 332 400 338 393 c 0
 342 388 346 384 348 384 c 0
 351 384 352 390 352 408 c 2
 352 566 l 2
 352 620 335 632 301 639 c 0
 296 640 293 646 293 652 c 0
 293 657 295 663 300 664 c 0
 373 681 408 704 422 704 c 0
 426 704 428 702 429 698 c 1
 429 686 422 652 422 562 c 2
 422 110 l 2
 422 70 427 47 441 45 c 1
 447 54 453 63 458 70 c 0
 525 166 571 238 644 354 c 0
 647 358 650 364 635 364 c 2
 518 364 l 2
 500 364 486 337 466 311 c 0
 461 305 449 286 439 286 c 0
 430 286 429 300 433 308 c 0
 441 327 450 373 450 398 c 0
 450 408 461 416 465 416 c 0
 468 416 474 412 480 407 c 0
 486 402 505 401 523 401 c 0
 538 401 552 402 561 402 c 0
 630 402 686 403 747 405 c 0
 752 405 757 397 754 393 c 0
 740 376 730 363 716 343 c 2
 523 50 l 2
 518 42 529 35 535 35 c 2
 652 35 l 2
 682 35 708 69 738 112 c 0
 741 117 748 136 760 136 c 0
 769 136 768 117 768 113 c 0
 768 105 745 25 740 9 c 0
 739 4 732 -5 726 -5 c 0
 697 -5 624 0 515 0 c 0
 487 0 401 -2 373 -13 c 4x7780
229 379 m 0
 190 379 109 347 109 213 c 0
 109 62 213 31 257 31 c 0
 313 31 352 72 352 120 c 2
 352 255 l 2
 352 311 307 379 229 379 c 0
EndSplineSet
Fore
SplineSet
229 379 m 0x9e
 190 379 109 347 109 213 c 0
 109 62 213 31 257 31 c 0
 313 31 352 72 352 120 c 2
 352 255 l 2
 352 311 307 379 229 379 c 0x9e
351 51 m 2
 351 57 l 1
 331 26 286 -14 220 -14 c 0
 106 -14 35 89 35 190 c 0
 35 306 120 414 260 414 c 0x9e
 288 414 332 400 338 393 c 0
 342 388 346 384 348 384 c 0
 351 384 352 390 352 408 c 2
 352 566 l 2
 352 620 335 632 301 639 c 0
 296 640 293 646 293 652 c 0
 293 657 295 663 300 664 c 0
 373 681 408 704 422 704 c 0
 426 704 428 702 429 698 c 1
 429 686 422 652 422 562 c 2
 422 438 l 2
 422 423 433 412 439 407 c 0
 445 402 464 401 482 401 c 0
 497 401 511 402 520 402 c 0
 589 402 645 403 706 405 c 0
 711 405 716 397 713 393 c 0
 699 376 689 363 675 343 c 2
 482 50 l 2
 477 42 488 35 494 35 c 2
 611 35 l 2
 641 35 667 69 697 112 c 0
 700 117 707 136 719 136 c 0
 728 136 727 117 727 113 c 0
 727 105 704 25 699 9 c 0
 698 4 691 -5 685 -5 c 0x6e
 656 -5 527 0 418 0 c 0
 358 0 351 34 351 51 c 2
422 281 m 2
 422 110 l 2
 422 98 423 91 426 91 c 0
 428 91 430 93 433 97 c 2
 603 354 l 2
 604 356 605 357 605 359 c 0
 605 362 603 364 594 364 c 2
 477 364 l 2x2e
 459 364 447 346 431 318 c 0
 427 311 422 294 422 281 c 2
EndSplineSet
Validated: 1
EndChar

StartChar: uni02A4
Encoding: 611 676 2102
Width: 758
VWidth: 0
Flags: W
HStem: -285 40<423.854 549.963> -268 64<376.671 424.024> -19 50<184.419 289.304> 21 24<433.943 503.841> 94 26<565.774 592.147> 368 34<438.985 608.125> 379 35<175.114 291.457> 684 20G<415 424>
VStem: 35 74<111.575 287.804> 352 70<62.7966 323.417 403.249 628.506> 652 85<-116.747 37.1514>
LayerCount: 3
Fore
SplineSet
422 409 m 1x2be0
 428 403 451 402 473 402 c 2
 545 402 l 2
 607 402 661 403 714 404 c 0
 719 404 723 396 721 392 c 0
 711 374 704 363 691 343 c 0
 639 263 612 218 566 133 c 0
 561 123 567 120 575 120 c 0
 582 120 594 122 596 122 c 0
 678 122 737 55 737 -31 c 0
 737 -138 620 -285 479 -285 c 0x8de0
 468 -285 423 -284 393 -268 c 0
 378 -261 375 -246 375 -228 c 0
 375 -217 378 -204 389 -204 c 0x49e0
 407 -204 414 -221 431 -230 c 0
 451 -241 467 -245 479 -245 c 0
 576 -245 652 -139 652 -67 c 0
 652 7 624 94 550 94 c 0
 519 94 488 82 474 82 c 0
 467 82 461 86 461 96 c 0
 461 105 476 131 488 151 c 2
 612 354 l 2
 615 358 618 363 603 364 c 0
 572 365 540 368 509 368 c 0
 502 368 494 367 487 367 c 0
 469 366 422 358 422 318 c 2
 422 110 l 2
 422 68 427 45 443 45 c 0
 453 45 479 46 489 48 c 0
 494 49 504 47 504 35 c 0
 504 24 495 21 490 21 c 0x9de0
 438 14 402 -1 373 -13 c 0
 369 -15 355 -19 349 -19 c 0
 345 -19 346 -18 346 -15 c 0
 346 -2 351 34 351 51 c 2
 351 57 l 1
 331 26 286 -14 220 -14 c 0
 106 -14 35 89 35 190 c 0
 35 306 120 414 260 414 c 0
 288 414 332 400 338 393 c 0
 342 388 346 384 348 384 c 0
 351 384 352 390 352 408 c 2
 352 566 l 2
 352 620 335 632 301 639 c 0
 296 640 293 646 293 652 c 0
 293 657 295 663 300 664 c 0
 373 681 408 704 422 704 c 0
 426 704 428 702 429 698 c 1
 429 686 422 652 422 562 c 2
 422 409 l 1x2be0
229 379 m 0x2be0
 190 379 109 347 109 213 c 0
 109 62 213 31 257 31 c 0
 313 31 352 72 352 120 c 2
 352 255 l 2
 352 311 307 379 229 379 c 0x2be0
EndSplineSet
Validated: 1
EndChar

StartChar: uni02A5
Encoding: 612 677 2243
Width: 735
VWidth: 0
Flags: W
HStem: -14 45<184.419 298.086> -1 36<482.777 534 583 678.738> 108 36<620.213 679.525> 364 37<448.611 604.999> 379 35<175.114 291.457> 684 20G<415 424>
VStem: 35 74<111.575 287.804> 352 70<91.9014 323.828 407.239 628.506> 515 35<-109.722 -6.40846> 684 42<40.6262 105.487>
LayerCount: 3
Fore
SplineSet
583 35 m 1x67c0
 640 35 l 2
 666 35 684 50 684 67 c 0
 684 91 677 108 649 108 c 0
 630 108 604 77 583 35 c 1x67c0
483 50 m 2
 478 42 489 35 495 35 c 2
 548 35 l 1
 575 94 618 144 665 144 c 0
 710 144 726 124 726 79 c 0
 726 11 654 -5 648 -5 c 0
 630 -5 609 -2 568 -1 c 1
 560 -24 553 -48 550 -72 c 0
 547 -93 537 -112 526 -112 c 0
 518 -112 515 -105 515 -96 c 0
 515 -69 522 -35 534 -1 c 1x77c0
 517 -1 441 0 418 0 c 0
 361 0 351 34 351 51 c 2
 351 57 l 1
 331 26 286 -14 220 -14 c 0
 106 -14 35 89 35 190 c 0
 35 306 120 414 260 414 c 0xafc0
 288 414 332 400 338 393 c 0
 342 388 346 384 348 384 c 0
 351 384 352 390 352 408 c 2
 352 566 l 2
 352 620 335 632 301 639 c 0
 296 640 293 646 293 652 c 0
 293 657 295 663 300 664 c 0
 373 681 408 704 422 704 c 0
 426 704 428 702 429 698 c 1
 429 686 422 652 422 562 c 2
 422 438 l 2
 422 423 433 412 439 407 c 0
 445 402 464 401 482 401 c 0x37c0
 497 401 511 402 520 402 c 0
 589 402 645 403 706 405 c 0
 711 405 716 397 713 393 c 0
 699 376 688 363 675 343 c 2
 483 50 l 2
229 379 m 0xafc0
 190 379 109 347 109 213 c 0
 109 62 213 31 257 31 c 0
 313 31 352 72 352 120 c 2
 352 255 l 2
 352 311 307 379 229 379 c 0xafc0
422 281 m 2
 422 110 l 2
 422 98 423 91 426 91 c 0
 428 91 430 93 433 97 c 2
 603 354 l 2
 604 356 605 357 605 359 c 0
 605 362 603 364 594 364 c 2
 477 364 l 2x37c0
 459 364 447 346 431 318 c 0
 427 311 422 294 422 281 c 2
EndSplineSet
Validated: 1
EndChar

StartChar: uni02A6
Encoding: 678 678 2091
Width: 521
VWidth: 0
Flags: W
HStem: 0 42<201.798 398.27> 352 48<158.021 253.965> 352 24<36.1639 63.8924> 388 26<340.807 415.362>
VStem: 85 70<87.8397 351.422> 262 61<277.348 370.551> 413 73<55.7218 140.904> 443 40<312.953 368>
LayerCount: 3
Fore
SplineSet
245 0 m 2x9e
 147 0 85 40 85 143 c 10
 85 337 l 2
 85 356 68 350 47 352 c 0
 43 353 35 362 35 369 c 0
 35 372 38 375 40 376 c 0
 93 391 134 468 144 468 c 0
 150 468 158 467 158 458 c 10
 158 414 l 18xbe
 158 405 167 400 180 400 c 10
 246 400 l 18xce
 251 400 254 388 254 376 c 0xae
 254 364 251 352 246 352 c 10
 195 352 l 18
 161 352 155 351 155 324 c 10
 155 175 l 18
 155 75 205 42 281 42 c 2
 332 42 l 2
 400 42 413 77 413 84 c 0xce
 413 120 398 143 354 174 c 0
 306 208 262 251 262 300 c 0
 262 353 291 414 389 414 c 0
 429 414 456 401 466 391 c 1
 478 376 483 341 483 313 c 0
 483 310 481 309 477 309 c 0
 467 309 444 321 443 330 c 0x9d
 441 354 414 388 381 388 c 0
 326 388 323 348 323 320 c 0
 323 285 371 251 403 231 c 0
 433 212 486 172 486 106 c 0
 486 37 433 0 322 0 c 2
 245 0 l 2x9e
EndSplineSet
Validated: 1
EndChar

StartChar: uni02A8
Encoding: 615 680 2242
Width: 706
VWidth: 0
Flags: W
HStem: -14 55<175.024 286.494 470.946 589.109> 140 40<488.847 616.077> 352 48<158.021 301.965> 352 24<36.1639 63.8924> 376 37<451.716 565.981>
VStem: 85 70<60.25 351.422> 322 69<129.775 283.536> 622 43<56.8701 133.323>
LayerCount: 3
Fore
SplineSet
189 -14 m 0xcf
 127 -14 85 22 85 105 c 2
 85 337 l 2
 85 356 68 350 47 352 c 0
 43 353 35 362 35 369 c 0
 35 372 38 375 40 376 c 0xd7
 93 391 134 468 144 468 c 0
 150 468 158 467 158 458 c 2
 158 414 l 2
 158 405 167 400 180 400 c 2
 294 400 l 2xe7
 299 400 302 388 302 376 c 0xcf
 302 364 299 352 294 352 c 2
 195 352 l 2xe7
 161 352 155 351 155 324 c 2
 155 135 l 2
 155 61 190 41 221 41 c 0
 266 41 306 59 345 82 c 1
 330 111 322 145 322 180 c 0
 322 303 410 413 533 413 c 0
 576 413 623 402 653 365 c 0
 656 361 658 357 658 353 c 0
 658 336 630 319 620 319 c 0
 611 319 600 324 595 329 c 0
 562 365 551 376 501 376 c 0
 428 376 391 299 391 226 c 0
 391 190 399 155 415 125 c 1
 464 154 516 180 582 180 c 0
 627 180 665 157 665 112 c 0
 665 44 589 -14 493 -14 c 0
 441 -14 397 11 367 49 c 1
 311 16 251 -14 189 -14 c 0xcf
438 92 m 1
 466 59 504 38 550 38 c 0
 596 38 622 72 622 94 c 0
 622 122 613 140 560 140 c 0
 523 140 482 119 438 92 c 1
EndSplineSet
Validated: 1
EndChar

StartChar: uni02AA
Encoding: 682 682 2093
Width: 467
VWidth: 0
Flags: W
HStem: -14 31<206.051 336.384> -2 21G<81 87.5> 388 26<283.796 360.84> 685 20G<141.5 143.5>
VStem: 75 70<63.8562 626.017> 196 61<279.201 364.214> 365 72<37.1626 132.916> 390 40<312.953 366.913>
LayerCount: 3
Back
SplineSet
302 13 m 0xbe
 358 13 376 44 376 84 c 0xbe
 376 120 348 143 304 174 c 0
 256 208 207 251 207 300 c 0
 207 353 247 414 345 414 c 0
 385 414 414 401 424 391 c 1
 436 376 441 341 441 313 c 0
 441 310 439 309 435 309 c 0
 425 309 402 321 401 330 c 0xbd
 399 354 370 388 337 388 c 0
 282 388 268 348 268 320 c 0
 268 285 321 251 353 231 c 0
 383 212 448 172 448 106 c 0
 448 37 415 -14 304 -14 c 4xbe
 219 -14 155 2 120 2 c 0
 85 2 78 -3 39 -3 c 0
 32 -3 19 -2 19 6 c 0
 19 16 31 20 42 24 c 0x7e
 62 30 85 35 85 62 c 2
 85 566 l 2
 85 605 72 632 39 639 c 0
 34 640 31 646 31 652 c 0
 31 658 34 663 38 664 c 0
 89 676 122 692 154 704 c 0
 155 704 155 705 156 705 c 0
 159 705 162 701 162 698 c 0
 162 686 156 652 156 562 c 2
 156 62 l 2
 156 29 267 13 302 13 c 0xbe
EndSplineSet
Fore
SplineSet
120 13 m 0xbe
 108 13 90 -2 85 -2 c 0x7e
 77 -2 68 3 68 9 c 0
 68 11 75 52 75 105 c 2
 75 566 l 2
 75 601 61 632 28 639 c 0
 23 640 20 646 20 652 c 0
 20 658 23 663 27 664 c 0
 78 676 108 692 140 704 c 0
 141 704 141 705 142 705 c 0
 145 705 148 701 148 698 c 0
 148 693 145 649 145 593 c 2
 145 138 l 2
 145 51 208 17 277 17 c 0
 333 17 365 44 365 84 c 0xbe
 365 120 337 143 293 174 c 0
 245 208 196 251 196 300 c 0
 196 353 236 414 334 414 c 0
 374 414 403 401 413 391 c 1
 425 376 430 341 430 313 c 0
 430 310 428 309 424 309 c 0
 414 309 391 321 390 330 c 0xbd
 388 354 359 388 326 388 c 0
 271 388 257 348 257 320 c 0
 257 285 310 251 342 231 c 0
 372 212 437 172 437 106 c 0
 437 37 404 -14 261 -14 c 0
 207 -14 134 13 120 13 c 0xbe
EndSplineSet
Validated: 1
EndChar

StartChar: uni02AB
Encoding: 683 683 2094
Width: 466
VWidth: 0
Flags: W
HStem: -3 27<20.0811 73.9702> 0 35<215.777 382.748> 364 37<179.265 331.594> 685 20G<155.5 157.5>
VStem: 85 70<84 342.776 407.145 627.687>
LayerCount: 3
Back
SplineSet
120 2 m 0x77
 85 2 78 -3 39 -3 c 0
 32 -3 19 -2 19 6 c 0
 19 16 31 20 42 24 c 0
 62 30 85 35 85 62 c 2
 85 566 l 2
 85 605 72 632 39 639 c 0
 34 640 31 646 31 652 c 0
 31 658 34 663 38 664 c 0
 89 676 122 692 154 704 c 0
 155 704 155 705 156 705 c 0
 159 705 162 701 162 698 c 0
 162 686 156 652 156 562 c 0
 156 389 155 260 155 62 c 0
 155 35 178 26 195 24 c 0
 196 24 206 27 206 28 c 0
 215 45 221 57 231 70 c 0
 298 166 344 238 417 354 c 0
 420 358 423 364 408 364 c 2
 291 364 l 2xb7
 273 364 259 337 239 311 c 0
 234 305 222 286 212 286 c 0
 203 286 202 300 206 308 c 0
 214 327 223 373 223 398 c 0
 223 408 234 416 238 416 c 0x2f
 241 416 247 412 253 407 c 0
 259 402 278 401 296 401 c 0
 311 401 325 402 334 402 c 0
 403 402 459 403 520 405 c 0
 525 405 530 397 527 393 c 0
 513 376 503 363 489 343 c 2
 296 50 l 2
 291 42 302 35 308 35 c 2
 425 35 l 2
 455 35 481 69 511 112 c 0
 514 117 521 136 533 136 c 0
 542 136 541 117 541 113 c 0
 541 105 518 25 513 9 c 0
 512 4 505 -5 499 -5 c 0
 470 -5 397 0 288 0 c 0
 260 0 225 -5 208 -5 c 0
 184 -5 155 2 120 2 c 0x77
EndSplineSet
Fore
SplineSet
155 294 m 2x38
 155 84 l 2
 155 74 158 74 164 82 c 2
 337 354 l 2
 340 358 343 364 328 364 c 2
 211 364 l 2
 193 364 188 358 168 332 c 0
 163 326 155 306 155 294 c 2x38
173 407 m 0
 180 404 198 401 216 401 c 0
 231 401 245 402 254 402 c 0
 323 402 379 403 440 405 c 0
 445 405 450 397 447 393 c 0
 433 376 423 363 409 343 c 2
 216 50 l 2
 211 42 222 35 228 35 c 2
 345 35 l 2
 375 35 401 69 431 112 c 0
 434 117 441 136 453 136 c 0
 462 136 461 117 461 113 c 0
 461 105 438 25 433 9 c 0
 432 4 425 -5 419 -5 c 0
 390 -5 317 0 208 0 c 0x78
 180 0 50 -3 40 -3 c 0
 30 -3 19 -2 19 6 c 0
 19 16 31 20 42 24 c 0xb8
 62 30 85 35 85 62 c 2
 85 566 l 2
 85 605 72 632 39 639 c 0
 34 640 31 646 31 652 c 0
 31 658 34 663 38 664 c 0
 89 676 122 692 154 704 c 0
 155 704 155 705 156 705 c 0
 159 705 162 701 162 698 c 0
 162 686 155 652 155 562 c 2
 155 433 l 2
 155 419 166 410 173 407 c 0
EndSplineSet
Validated: 1
EndChar

StartChar: uni02AD
Encoding: 620 685 2309
Width: 435
VWidth: 0
Flags: W
HStem: -14 21G<49 56.5 357 364.5> 151 57<87 348> 457 57<87 348>
VStem: 40 47<-11.3967 151 294.603 457> 348 47<-11.3967 151 294.603 457>
LayerCount: 3
Fore
SplineSet
382 514 m 10
 388 514 395 510 395 504 c 2
 395 316 l 10
 395 299 369 292 360 292 c 0
 354 292 348 299 348 306 c 26
 348 457 l 25
 87 457 l 25
 87 316 l 10
 87 299 61 292 52 292 c 0
 46 292 40 299 40 306 c 18
 40 486 l 2
 40 496 49 514 64 514 c 10
 382 514 l 10
382 208 m 10
 388 208 395 204 395 198 c 2
 395 10 l 10
 395 -7 369 -14 360 -14 c 0
 354 -14 348 -7 348 0 c 26
 348 151 l 25
 87 151 l 25
 87 10 l 10
 87 -7 61 -14 52 -14 c 0
 46 -14 40 -7 40 0 c 18
 40 180 l 2
 40 190 49 208 64 208 c 10
 382 208 l 10
EndSplineSet
Validated: 1
EndChar

StartChar: uni02AF
Encoding: 622 687 2241
Width: 585
VWidth: 0
Flags: W
HStem: -288 28<522.496 592.593> -189 20G<656.5 671> -14 52<249.746 342.307> 277 21G<25.5 48.5> 365 32<328.055 399.573> 368 46<69.332 135.241>
VStem: 143 70<75.244 363.26> 416 70<-223.491 48.718 64.7269 352.523> 604 72<-248.392 -189.197>
LayerCount: 3
Fore
SplineSet
213 128 m 10xf780
 213 77.52734375 263 38 306 38 c 0
 331 38 370 45 389 60 c 0
 410 77 416 91 416 132 c 2
 416 316 l 2
 416 356 371 364 351 365 c 0
 346 365 328 368 328 382 c 0
 328 394 347 397 351 397 c 0
 452 402 444 405 480 415 c 1
 482 415 l 2
 491 415 499 405 494 397 c 0xfb80
 490 390 486 342 486 327 c 2
 486 -45 l 18
 486 -211 510 -260 554 -260 c 0
 590 -260 604 -238 604 -219 c 0
 604 -201 646 -169 667 -169 c 0
 675 -169 676 -182 676 -195 c 0
 676 -258 613 -288 534 -288 c 0
 456 -288 416 -223 416 -144 c 14
 416 12 l 2
 416 36 413 43 408 49 c 1
 377 26 320 -14 257 -14 c 0
 192 -14 143 27.9931640625 143 106 c 2
 143 255 l 2
 143 339 139 368 102 368 c 0
 51 368 62 277 35 277 c 0
 16 277 13 300 13 322 c 0
 13 375 61 414 121 414 c 0
 201 414 213 358 213 274 c 2
 213 128 l 10xf780
EndSplineSet
Validated: 1
EndChar

StartChar: uni02B0
Encoding: 623 688 609
Width: 332
VWidth: 0
Flags: W
HStem: 273 24<6.35742 45.1243 105.948 141.684 187.357 222.518 286.432 323.643> 488 36<130.097 211.809>
VStem: 49 54<298.587 471.533 493.147 649.535> 227 54<298.718 475.726>
LayerCount: 3
Fore
SplineSet
281 323 m 2
 281 307 296 300 309 297 c 1
 316 294 324 289 324 283 c 0
 324 277 312 273 309 273 c 2
 202 273 l 2
 199 273 187 277 187 283 c 0
 187 289 195 294 202 297 c 1
 215 300 227 307 227 323 c 2
 227 434 l 10
 227 464 200 488 172 488 c 0
 156 488 133 481 120 472 c 0
 107 462 103 454 103 429 c 2
 103 321 l 2
 103 305 114 300 127 297 c 1
 135 294 142 289 142 283 c 0
 142 277 131 273 127 273 c 2
 21 273 l 2
 18 273 6 277 6 283 c 0
 6 289 14 294 21 297 c 1
 34 300 49 305 49 321 c 2
 49 608 l 2
 49 629 42 647 20 652 c 8
 12 654 11 672 19 674 c 16
 52 681 75 690 96 698 c 1
 97 698 l 2
 101 698 107 696 109 694 c 1
 109 687 103 677 103 612 c 2
 103 515 l 2
 103 508 105 496 108 493 c 1
 128 507 161 524 202 524 c 0
 244 524 281 498 281 452 c 2
 281 323 l 2
EndSplineSet
Validated: 1
EndChar

StartChar: caron
Encoding: 641 711 973
Width: 277
VWidth: 0
Flags: W
HStem: 447 201
VStem: 30 217<620 644>
LayerCount: 3
Back
SplineSet
-237 630 m 2
 -167 534 l 1
 -98 630 l 2
 -93 637 -81 648 -69 648 c 0
 -63 648 -58 643 -58 636 c 0
 -58 633 -59 630 -61 627 c 2
 -61 627 -114 519 -139 476 c 0
 -150 458 -160 447 -167 447 c 0
 -174 447 -184 458 -195 476 c 0
 -216 513 -273 627 -273 627 c 2
 -275 630 -275 633 -275 636 c 0
 -275 643 -271 648 -265 648 c 0
 -253 648 -243 638 -237 630 c 2
EndSplineSet
Fore
SplineSet
135 542 m 0
 138 538 139 538 142 542 c 0
 166 572 196 610 208 626 c 0
 215 635 230 648 238 648 c 0
 247 648 247 644 247 635 c 0
 247 620 178 499 158 465 c 0
 153 456 146 447 138 447 c 0
 130 447 123 456 118 465 c 0
 99 499 30 620 30 635 c 0
 30 644 30 648 39 648 c 0
 47 648 62 635 69 626 c 0
 81 610 111 572 135 542 c 0
EndSplineSet
Validated: 1
EndChar

StartChar: uni02C8
Encoding: 712 712 2269
Width: 90
VWidth: 0
Flags: W
HStem: 500 175<30 70>
VStem: 30 40<501.246 673.507>
LayerCount: 3
Fore
SplineSet
30 657 m 18
 30 665 48 675 57 675 c 0
 65 675 70 667 70 659 c 10
 70 520 l 18
 70 513 56 500 43 500 c 16
 35 500 30 510 30 519 c 10
 30 657 l 18
EndSplineSet
Validated: 1
EndChar

StartChar: uni02C9
Encoding: 643 713 970
Width: 316
VWidth: 0
Flags: W
HStem: 490 50<28.1042 279.526>
VStem: 25 260<492.828 539.814>
LayerCount: 3
Fore
SplineSet
254 490 m 10
 39 490 l 26
 32 490 25 496 25 502 c 0
 25 511 31 540 49 540 c 26
 272 540 l 18
 278 540 285 535 285 529 c 0
 285 520 272 490 254 490 c 10
EndSplineSet
Validated: 1
EndChar

StartChar: uni02D1
Encoding: 721 721 2285
Width: 220
VWidth: 2048
Flags: W
HStem: 250 120
VStem: 35 150
LayerCount: 3
Fore
SplineSet
110 250 m 1
 35 370 l 1
 185 370 l 1
 110 250 l 1
EndSplineSet
Validated: 1
EndChar

StartChar: dotaccent
Encoding: 729 729 346
Width: 192
VWidth: 0
Flags: W
HStem: 493 101<54.1171 136.823>
VStem: 45 101<502.117 584.823>
LayerCount: 3
Fore
SplineSet
45 543 m 0
 45 572 67 594 95 594 c 0
 124 594 146 572 146 543 c 0
 146 515 124 493 95 493 c 0
 67 493 45 515 45 543 c 0
EndSplineSet
Validated: 1
EndChar

StartChar: uni02E1
Encoding: 737 737 618
Width: 149
VWidth: 0
Flags: W
HStem: 273 25<4.52148 44.4531 103.547 143.479> 652 22<11.4746 33.0131>
VStem: 47 54<299.79 648.847>
LayerCount: 3
Fore
SplineSet
101 320 m 2
 101 304 116 302 129 298 c 0
 136 296 144 289 144 283 c 0
 144 277 132 273 129 273 c 2
 19 273 l 2
 16 273 4 277 4 283 c 0
 4 289 12 296 19 298 c 0
 32 302 47 304 47 320 c 2
 47 608 l 2
 47 617 38 648 17 652 c 8
 9 654 9 672 17 674 c 16
 50 681 71 691 92 698 c 1
 94 698 l 2
 98 698 105 696 105 694 c 0
 105 687 101 666 101 612 c 2
 101 320 l 2
EndSplineSet
Validated: 1
EndChar

StartChar: gravecomb
Encoding: 768 768 969
Width: 0
VWidth: 0
Flags: W
HStem: 456 193
VStem: 8 157
AnchorPoint: "top_accent" 133 550 mark 0
LayerCount: 3
Back
SplineSet
-85 479 m 4
 -165 590 -223 625 -223 644 c 4
 -223 658 -206 672 -189 672 c 22
 -188 672 l 6
 -166 672 -149 663 -138 645 c 4
 -117 611 -45 485 -45 470 c 4
 -45 461 -49 457 -58 457 c 4
 -67 457 -80 472 -85 479 c 4
EndSplineSet
Fore
SplineSet
126 478 m 4
 95 511 8 612 8 626 c 4
 8 642 32 649 57 649 c 4
 67 649 78 641 84 631 c 4
 103 598 165 484 165 469 c 4
 165 460 165 456 156 456 c 4
 148 456 134 469 126 478 c 4
EndSplineSet
Validated: 1
Substitution2: "Single Substitution lookup 13 subtable" gravecomb.stack
Substitution2: "'case' Case-Sensitive Forms lookup 6 subtable" gravecomb.cap
EndChar

StartChar: acutecomb
Encoding: 769 769 621
Width: 0
VWidth: 0
Flags: W
HStem: 456 193
VStem: 14 157
AnchorPoint: "top_accent" 46 550 mark 0
LayerCount: 3
Fore
SplineSet
53 478 m 4
 45 469 31 456 23 456 c 4
 14 456 14 460 14 469 c 4
 14 484 76 598 95 631 c 4
 101 641 112 649 122 649 c 4
 147 649 171 642 171 626 c 4
 171 612 84 511 53 478 c 4
EndSplineSet
Validated: 1
Substitution2: "Single Substitution lookup 13 subtable" acutecomb.stack
Substitution2: "'case' Case-Sensitive Forms lookup 6 subtable" acutecomb.cap
EndChar

StartChar: tildecomb
Encoding: 771 771 110
Width: 0
VWidth: 0
Flags: W
HStem: 453 21G<35 44> 483 66<106.697 244.916> 490 67<78.2107 213.803>
VStem: 26 268
AnchorPoint: "top_stack" 148 644 basemark 0
AnchorPoint: "top_accent" 152 533 mark 0
LayerCount: 3
Back
SplineSet
50 483 m 0x60
 71 522 92 570 137 570 c 0x60
 183 570 199 554 240 554 c 16
 266 554 280 569 297 591 c 0
 298 592 299 593 300 593 c 0
 305 593 313 578 310 573 c 0
 296 546 277 481 228 481 c 0xa0
 180 481 174 497 120 497 c 0
 97 497 81 483 65 465 c 4
 64 464 64 464 63 464 c 0
 57 464 47 478 50 483 c 0x60
EndSplineSet
Fore
SplineSet
40 453 m 4xb0
 30 453 26 463 26 473 c 4
 26 483 89 557 114 557 c 4xb0
 139 557 196 549 221 549 c 4
 256 549 270 583 278 583 c 4
 288 583 294 576 294 566 c 4
 294 556 234 483 209 483 c 4xd0
 184 483 122 490 97 490 c 4
 72 490 48 453 40 453 c 4xb0
EndSplineSet
Validated: 1
Substitution2: "'case' Case-Sensitive Forms lookup 6 subtable" tildecomb.cap
EndChar

StartChar: uni030A
Encoding: 674 778 122
Width: 0
VWidth: 0
Flags: W
HStem: 480 26<87.0434 143.692> 620 27<78.8786 135.359>
VStem: 28 41<517.159 614.013> 155 41<512.696 608.205>
AnchorPoint: "top_accent" 111 550 mark 0
LayerCount: 3
Fore
SplineSet
115 647 m 0
 159 647 196 613 196 569 c 0
 196 517 153 480 109 480 c 0
 65 480 28 519 28 563 c 0
 28 607 71 647 115 647 c 0
69 568 m 0
 69 535 88 506 116 506 c 0
 146 506 155 530 155 562 c 0
 155 590 134 620 106 620 c 0
 78 620 69 596 69 568 c 0
EndSplineSet
Validated: 1
Substitution2: "'case' Case-Sensitive Forms lookup 6 subtable" uni030A.cap
EndChar

StartChar: uni030E
Encoding: 782 782 623
Width: 0
VWidth: 0
Flags: W
HStem: 500 175<30 70 110 150>
VStem: 30 40<501.246 673.507> 110 40<501.246 673.507>
AnchorPoint: "top_accent" 90 550 mark 0
LayerCount: 3
Fore
SplineSet
110 657 m 18
 110 665 128 675 137 675 c 0
 145 675 150 667 150 659 c 10
 150 520 l 18
 150 513 136 500 123 500 c 16
 115 500 110 510 110 519 c 10
 110 657 l 18
30 657 m 18
 30 665 48 675 57 675 c 0
 65 675 70 667 70 659 c 10
 70 520 l 18
 70 513 56 500 43 500 c 16
 35 500 30 510 30 519 c 10
 30 657 l 18
EndSplineSet
Validated: 1
EndChar

StartChar: uni0313
Encoding: 683 787 125
Width: 0
VWidth: 0
Flags: W
HStem: 461 21<10.0396 51.456> 603 78<5.56667 84.873>
VStem: 94 52<519.849 594.689>
AnchorPoint: "top_accent" 66 550 mark 0
LayerCount: 3
Fore
SplineSet
47 603 m 4
 18 604 0 623 0 645 c 4
 0 661 18 681 47 681 c 4
 95 681 146 640 146 584 c 4
 146 520 81 463 30 461 c 5
 28 461 l 6
 16 461 10 466 10 471 c 4
 10 475 15 480 24 482 c 4
 67 491 94 524 94 557 c 4
 94 578 77 601 47 603 c 4
EndSplineSet
Validated: 1
EndChar

StartChar: uni0314
Encoding: 788 788 126
Width: 0
VWidth: 0
Flags: W
HStem: 466 21<126.544 167.954> 608 78<97.4508 172.433>
VStem: 32 52<521.956 596.595>
AnchorPoint: "top_accent" 107 550 mark 0
LayerCount: 3
Fore
SplineSet
131 608 m 4
 111 608 84 580 84 558 c 4
 84 528 111 496 154 487 c 4
 163 485 168 480 168 476 c 4
 168 471 161 466 148 466 c 4
 97 466 32 519 32 589 c 4
 32 645 83 686 131 686 c 4
 160 686 178 666 178 650 c 4
 178 628 160 608 131 608 c 4
EndSplineSet
Validated: 1
EndChar

StartChar: uni0315
Encoding: 685 789 976
Width: 0
VWidth: 0
Flags: W
HStem: 470 21<36.0396 77.456> 612 78<31.5667 110.873>
VStem: 120 52<528.849 603.689>
LayerCount: 3
Fore
SplineSet
73 612 m 4
 44 613 26 632 26 654 c 4
 26 670 44 690 73 690 c 4
 121 690 172 649 172 593 c 0
 172 529 107 472 56 470 c 5
 54 470 l 6
 42 470 36 475 36 480 c 4
 36 484 41 489 50 491 c 4
 93 500 120 533 120 566 c 4
 120 587 103 610 73 612 c 4
EndSplineSet
Validated: 1
EndChar

StartChar: uni0318
Encoding: 792 792 2305
Width: 0
VWidth: 0
Flags: W
HStem: -181 40<21.8372 140>
VStem: 140 40<-248.163 -181 -141 -69.2917>
AnchorPoint: "below_accent" 100 -100 mark 0
LayerCount: 3
Fore
SplineSet
180 -226 m 10
 180 -240 161 -250 152 -250 c 0
 146 -250 140 -243 140 -236 c 26
 140 -181 l 25
 34 -181 l 10
 27 -181 20 -175 20 -169 c 0
 20 -160 30 -141 44 -141 c 26
 140 -141 l 25
 140 -98 l 10
 140 -82 160 -67 166 -67 c 0
 173 -67 180 -73 180 -80 c 26
 180 -226 l 10
EndSplineSet
Validated: 1
EndChar

StartChar: uni0319
Encoding: 689 793 2304
Width: 0
VWidth: 0
Flags: W
HStem: -181 40<60 178.163>
VStem: 20 40<-252.708 -181 -141 -73.8372>
AnchorPoint: "below_accent" 100 -100 mark 0
LayerCount: 3
Fore
SplineSet
20 -96 m 10
 20 -82 39 -72 48 -72 c 0
 54 -72 60 -79 60 -86 c 26
 60 -141 l 25
 166 -141 l 10
 173 -141 180 -147 180 -153 c 0
 180 -162 170 -181 156 -181 c 26
 60 -181 l 25
 60 -224 l 10
 60 -240 40 -255 34 -255 c 0
 27 -255 20 -249 20 -242 c 26
 20 -96 l 10
EndSplineSet
Validated: 1
EndChar

StartChar: uni031A
Encoding: 690 794 2310
Width: 0
VWidth: 0
Flags: W
HStem: 624 40<21.8372 154>
VStem: 154 40<532.837 624>
AnchorPoint: "top_accent" 100 550 mark 0
LayerCount: 3
Fore
SplineSet
180 664 m 2
 187 664 194 657 194 651 c 10
 194 555 l 10
 194 541 175 531 166 531 c 0
 160 531 154 538 154 545 c 26
 154 624 l 25
 34 624 l 10
 27 624 20 630 20 636 c 0
 20 645 30 664 44 664 c 2
 180 664 l 2
EndSplineSet
Validated: 1
EndChar

StartChar: uni031B
Encoding: 691 795 2317
Width: 199
VWidth: 0
Flags: W
HStem: 373 41<26.2742 126.568>
VStem: 130 58<424.543 494.5>
LayerCount: 3
Fore
SplineSet
60 414 m 0
 93 414 130 424 130 442 c 0
 130 456 126 460 115 467 c 0
 100 477 93 483 93 501 c 0
 93 526 119 534 148 534 c 0
 179 534 188 506 188 483 c 0
 188 425 127 373 57 373 c 0
 48 373 24 373 24 383 c 0
 24 398 36 414 60 414 c 0
EndSplineSet
Validated: 1
EndChar

StartChar: uni031F
Encoding: 799 799 2301
Width: 0
VWidth: 0
Flags: W
HStem: -181 40<6.83716 80 120 193.105>
VStem: 80 40<-248.163 -181 -141 -69.2917>
AnchorPoint: "below_accent" 100 -100 mark 0
LayerCount: 3
Fore
SplineSet
19 -181 m 14
 12 -181 5 -175 5 -169 c 4
 5 -160 15 -141 29 -141 c 30
 80 -141 l 29
 80 -98 l 14
 80 -82 100 -67 106 -67 c 4
 113 -67 120 -73 120 -80 c 30
 120 -141 l 29
 182 -141 l 14
 188 -141 195 -145 195 -151 c 4
 195 -168 181 -181 164 -181 c 30
 120 -181 l 29
 120 -226 l 14
 120 -240 101 -250 92 -250 c 4
 86 -250 80 -243 80 -236 c 30
 80 -181 l 29
 19 -181 l 14
EndSplineSet
Validated: 1
EndChar

StartChar: uni032C
Encoding: 812 812 2126
Width: 0
VWidth: 0
Flags: W
HStem: -254 201
VStem: 30 217<-81 -57>
AnchorPoint: "below_accent" 138 -100 mark 0
LayerCount: 3
Fore
SplineSet
135 -159 m 0
 138 -163 139 -163 142 -159 c 0
 166 -129 196 -91 208 -75 c 0
 215 -66 230 -53 238 -53 c 0
 247 -53 247 -57 247 -66 c 0
 247 -81 178 -202 158 -236 c 0
 153 -245 146 -254 138 -254 c 0
 130 -254 123 -245 118 -236 c 0
 99 -202 30 -81 30 -66 c 0
 30 -57 30 -53 39 -53 c 0
 47 -53 62 -66 69 -75 c 0
 81 -91 111 -129 135 -159 c 0
EndSplineSet
Validated: 1
Substitution2: "'case' Case-Sensitive Forms lookup 6 subtable" uni032C.cap
EndChar

StartChar: uni0338
Encoding: 720 824 2138
Width: 0
VWidth: 0
Flags: W
LayerCount: 3
Fore
SplineSet
30 -47 m 10
 327 648 l 26
 334 663 349 665 366 665 c 20
 373 665 380 659 380 652 c 0
 380 651 379 649 379 648 c 10
 82 -47 l 26
 76 -61 61 -62 46 -62 c 16
 38 -62 29 -57 29 -50 c 0
 29 -49 30 -48 30 -47 c 10
EndSplineSet
Validated: 1
EndChar

StartChar: uni033A
Encoding: 826 826 2313
Width: 0
VWidth: 0
Flags: W
HStem: -250 109<5.21558 44.9956 205.216 244.071> -250 40<45 205>
VStem: 5 40<-210 -142.837> 205 40<-210 -142.837>
AnchorPoint: "below_accent" 125 -100 mark 0
LayerCount: 3
Fore
SplineSet
18 -250 m 10xb0
 12 -250 5 -246 5 -240 c 2
 5 -165 l 10
 5 -151 24 -141 33 -141 c 0xb0
 39 -141 45 -148 45 -155 c 26
 45 -210 l 25
 205 -210 l 25x70
 205 -165 l 10
 205 -151 224 -141 233 -141 c 0
 239 -141 245 -148 245 -155 c 18
 245 -222 l 2
 245 -232 236 -250 221 -250 c 10
 18 -250 l 10xb0
EndSplineSet
Validated: 1
EndChar

StartChar: uni033B
Encoding: 723 827 2314
Width: 0
VWidth: 0
Flags: W
HStem: -257 30<45 124> -142 30<45 124>
VStem: 5 40<-227 -142> 124 40<-227 -142>
AnchorPoint: "below_accent" 85 -100 mark 0
LayerCount: 3
Fore
SplineSet
45 -142 m 25
 45 -227 l 25
 124 -227 l 25
 124 -142 l 1
 45 -142 l 25
152 -112 m 2
 158 -112 164 -117 164 -126 c 2
 164 -229 l 2
 164 -239 155 -257 140 -257 c 10
 18 -257 l 10
 12 -257 5 -253 5 -247 c 2
 5 -136 l 2
 5 -122 24 -112 33 -112 c 2
 152 -112 l 2
EndSplineSet
Validated: 1
EndChar

StartChar: uni0351
Encoding: 732 849 2288
Width: 0
VWidth: 0
Flags: W
HStem: 479 25<92.954 136.283> 621 26<87.5813 138.091>
VStem: 34 38<518.177 610.609>
AnchorPoint: "top_accent" 89 531 mark 0
LayerCount: 3
Fore
SplineSet
125 479 m 0
 72 479 34 514 34 558 c 0
 34 610 76 647 129 647 c 0
 136 647 139 644 139 639 c 0
 139 631 131 621 125 621 c 0
 89 621 72 597 72 569 c 0
 72 530 93 504 129 504 c 0
 135 504 137 500 137 496 c 0
 137 489 131 479 125 479 c 0
EndSplineSet
Validated: 1
EndChar

StartChar: uni0364
Encoding: 737 868 2421
Width: 0
VWidth: 0
Flags: W
HStem: 490 26<81.015 147.356> 590 18<65.285 143.33> 648 21<80.433 138.676>
VStem: 23 37<532.081 630.026> 144 33<608.033 644.646>
AnchorPoint: "top_accent" 108 550 mark 0
LayerCount: 3
Fore
SplineSet
23 572 m 0
 23 623.60546875 61.39453125 669 113 669 c 0
 146.423828125 669 177 648.423828125 177 615 c 0
 177 602.538085938 177.1796875 590 166 590 c 2
 67 590 l 2
 59 590 60 587 60 577 c 0
 60 548.583007812 81.58 516 110 516 c 0
 147 516 157 542 159 542 c 0
 167 542 176 538.830078125 176 533 c 0
 176 518 147 490 104 490 c 0
 57.85 490 23 525.846679688 23 572 c 0
65 612 m 0
 65 608 69 608 72 608 c 2
 134 608 l 2
 144 608 144 620 144 625 c 8
 144 641.991210938 123.991210938 648 107 648 c 16
 92 648 65 634 65 612 c 0
EndSplineSet
Validated: 1
EndChar

StartChar: uni037A
Encoding: 890 890 2480
Width: 221
Flags: W
HStem: -222 62<82 149.666>
VStem: 40 66<-159.987 -63.3407>
AnchorPoint: "grk_bottom" 75.9 -151 mark 0
LayerCount: 3
Fore
SplineSet
106 -127 m 0
 106 -152 109 -160 123 -160 c 0
 144 -160 159 -146 162 -146 c 0
 171 -146 172 -151 172 -162 c 0
 172 -171 149 -222 99 -222 c 0
 65 -222 40 -190 40 -140 c 0
 40 -94 43 -61 74 -61 c 0
 97 -61 110 -68 110 -87 c 0
 110 -99 106 -111 106 -127 c 0
EndSplineSet
Validated: 1
EndChar

StartChar: tonos
Encoding: 741 900 2458
Width: 0
VWidth: 0
Flags: W
HStem: 456 207<23 72>
VStem: 14 102
AnchorPoint: "grk_uc_top" 77 578 mark 0
AnchorPoint: "grk_top" 30 510.1 mark 0
LayerCount: 3
Fore
SplineSet
47 478 m 0
 40.98 467.573054138 31 456 23 456 c 0
 14 456 14 460 14 469 c 0
 14 487 38 610.099609375 47 645 c 0
 49.912109375 656.291992188 64 663 72 663 c 0
 91 663 116 638 116 622 c 0
 116 612 67.565 513.619624858 47 478 c 0
EndSplineSet
Validated: 1
EndChar

StartChar: Pi
Encoding: 928 928 1083
Width: 804
VWidth: 0
Flags: W
HStem: -5 29<9.69245 87.1038 236.099 310.308 495.692 569.396 717.602 795.308> 610 40<200.148 605> 622 31<21.0745 97.4412 709.205 786.926>
VStem: 120 80<47.9769 605.956> 604 80<46.8529 604.158>
LayerCount: 3
Fore
SplineSet
604 99 m 2xb8
 605 591 l 2
 605 598 603 610 594 610 c 2
 213 610 l 2xd8
 203 610 200 595 200 587 c 2
 200 99 l 2
 200 57 228 33 278 24 c 0
 301 20 311 15 311 6 c 0
 311 -2 299 -5 282 -5 c 0
 228 -5 211 0 166 0 c 24
 116 0 92 -5 38 -5 c 0
 21 -5 9 -2 9 6 c 0
 9 15 19 20 42 24 c 0
 92 33 120 51 120 98 c 2
 120 550 l 2
 120 597 103 613 53 622 c 0
 30 626 20 633 20 642 c 0
 20 650 32 653 49 653 c 0xb8
 103 653 120 650 166 650 c 2
 650 650 l 2xd8
 693 650 705 653 759 653 c 0
 776 653 788 650 788 642 c 0
 788 633 778 626 755 622 c 0
 705 613 684 597 684 550 c 2
 684 98 l 2
 684 51 713 33 763 24 c 0
 786 20 796 15 796 6 c 0
 796 -2 784 -5 767 -5 c 0
 713 -5 696 0 650 0 c 24
 601 0 578 -5 524 -5 c 0
 507 -5 495 -2 495 6 c 0
 495 15 505 20 528 24 c 0
 578 33 604 57 604 99 c 2xb8
EndSplineSet
Validated: 1
EndChar

StartChar: Psi
Encoding: 774 936 1164
Width: 745
VWidth: 0
Flags: W
HStem: -5 29<219.692 297.104 443.602 521.308> 567 50<12.8409 71.6194 672.381 731.159> 622 31<231.074 307.441 435.205 512.926>
VStem: 330 80<46.875 288.945 318.45 604.242>
LayerCount: 3
Fore
SplineSet
410 99 m 2
 410 51 439 33 489 24 c 0
 512 20 522 15 522 6 c 0
 522 -2 510 -5 493 -5 c 0
 439 -5 422 0 376 0 c 24
 326 0 302 -5 248 -5 c 0
 231 -5 219 -2 219 6 c 0
 219 15 229 20 252 24 c 0
 302 33 330 51 330 99 c 2
 330 269 l 2
 330 296 324 288 316 289 c 0
 270 296 230 310 197 339 c 0
 165 367 139 419 114 481 c 0
 101 514 72 567 16 567 c 0
 4 567 0 571 0 577 c 0
 0 584 6 593 12 599 c 0
 30 616 44 617 71 617 c 0
 123 617 170 544 199 451 c 0
 220 383 254 324 324 317 c 0
 329 316 330 321 330 336 c 2
 330 551 l 2
 330 597 313 613 263 622 c 0
 240 626 230 633 230 642 c 0
 230 650 242 653 259 653 c 0
 313 653 330 650 376 650 c 24
 419 650 431 653 485 653 c 0
 502 653 514 650 514 642 c 0
 514 633 504 626 481 622 c 0
 431 613 410 597 410 551 c 2
 410 334 l 2
 410 319 410 316 420 317 c 0
 490 325 524 383 545 451 c 0
 574 544 621 617 673 617 c 0
 700 617 714 616 732 599 c 0
 738 593 744 584 744 577 c 0
 744 571 740 567 728 567 c 0
 672 567 643 514 630 481 c 0
 605 419 579 367 547 339 c 0
 514 310 467 295 421 289 c 0
 410 288 410 276 410 263 c 2
 410 99 l 2
EndSplineSet
Validated: 1
EndChar

StartChar: Omega
Encoding: 937 937 1135
Width: 830
VWidth: 0
Flags: W
HStem: 0 70<96.4899 277.223 548.08 733.384> 631 33<338.707 479.931>
VStem: 100 100<238.683 455.811> 630 100<255.249 454.984>
AnchorPoint: "top_accent" 414 700 basechar 0
AnchorPoint: "below_accent" 415 -100 basechar 0
AnchorPoint: "grk_uc_top" 79 650 basechar 0
LayerCount: 3
Fore
SplineSet
277 81 m 0
 174 128 100 226 100 345 c 0
 100 523 245 664 421 664 c 16
 582 664 730 531 730 365 c 0
 730 242 657 137 555 85 c 0
 551 83 542 75 547 74 c 0
 570 70 596 70 618 70 c 2
 643 70 l 2
 691 70 730 76 751 113 c 0
 760 129 769 143 782 143 c 0
 787 143 791 139 791 134 c 0
 791 133 790 131 790 130 c 0
 772 79 754 37 749 12 c 0
 747 3 745 -5 735 -5 c 0
 705 -5 683 0 655 0 c 0
 618 0 596 1 579 1 c 0
 546 1 536 0 480 0 c 0
 474 0 472 4 472 11 c 0
 472 24 480 45 481 48 c 0
 485 58 499 74 503 77 c 0
 566 124 630 227 630 332 c 0
 630 469 545 631 408 631 c 8
 280 631 200 497 200 377 c 0
 200 252 246 135 333 71 c 0
 348 60 354 37 358 11 c 0
 359 6 357 0 350 0 c 0
 294 0 284 1 250 1 c 0
 234 1 212 0 175 0 c 0
 147 0 125 -5 95 -5 c 0
 85 -5 83 3 81 12 c 0
 76 37 58 79 40 130 c 0
 40 131 39 133 39 134 c 0
 39 139 43 143 48 143 c 0
 61 143 70 129 79 113 c 0
 100 76 138 70 187 70 c 2
 208 70 l 2
 226 70 247 70 266 72 c 0
 272 72 282 79 277 81 c 0
EndSplineSet
Validated: 1048577
EndChar

StartChar: alpha
Encoding: 945 945 2433
Width: 502
Flags: W
HStem: -15 73<374.269 461.752> -14 56<92.7631 194.14> 323 71<156.759 247.693> 394 20G<377.337 411.782>
VStem: 35 40<61.1672 222.342> 299 48<129.309 236.71> 329.028 103.972<320.461 362.852>
AnchorPoint: "grk_bottom" 268 -147 basechar 0
AnchorPoint: "grk_top" 242 550 basechar 0
LayerCount: 3
Back
SplineSet
128 -14 m 2
 75 -14 49 20 49 89 c 0
 49 200 153 394 243 394 c 0
 329 394 347 317 361 263 c 0
 364 253 367 251 371 260 c 0
 382.5762 286.0459 382 302 392 330 c 0
 405 369 434 414 458 414 c 0
 481 414 488 387 488 364 c 0
 488 328 450 270 412 212 c 0
 402 197 382 181 382 166 c 0
 382 123 404 62 447 62 c 0
 478 62 503 80 521 106 c 0
 527 115 529 115 540 115 c 0
 547 115 547 83 542 74 c 0
 518 30 484 -12 432 -12 c 0
 379 -12 361.2962 41.8587 352 90 c 0
 349.20001 104.5 342.2002 111.5 339.2002 106.5 c 0
 304.2002 49.5 222.0002 -14 128.0002 -14 c 2
 128 -14 l 2
335 193 m 1
 328 271 309 325 269 325 c 0
 217 325 90 188 90 86 c 0
 90 58 101 42 132 42 c 0
 162 42 228 74 269 107 c 0
 310 140 323 163 335 193 c 1
EndSplineSet
Fore
SplineSet
317 119 m 1x9c
 295 62 234 -14 140 -14 c 0
 73 -14 35 51.3779296875 35 142 c 0
 35 252 116 394 199 394 c 0x6c
 269 394 299.5 336.5 318 279 c 0
 320.054609889 272.614050345 322 265 324 265 c 0
 325 265 327.993118658 275.009192368 329.028320312 279 c 0
 345.5 342.5 354.674804688 414 400 414 c 0
 423.563476562 414 433 394 433 381 c 0x1a
 433 345 380.028320312 266 356.028320312 213 c 0
 349.028320312 198 347 183 347 162 c 8
 347 112.220703125 371.220703125 58 421 58 c 16
 457.708007812 58 492.028320312 111 494 111 c 0
 502.689453125 111 505 105 505 96 c 0
 505 25.2041015625 445.645507812 -15 407 -15 c 0
 360.674804688 -15 323.1015625 54.931640625 317 119 c 1x9c
299 193 m 16
 299 253.599609375 245 323 205 323 c 0
 158 323 75 238 75 141 c 0
 75 68 100 42 133 42 c 0
 163 42 222 74 256 107 c 0
 290 140 299 155.500976562 299 193 c 16
EndSplineSet
Validated: 1
EndChar

StartChar: beta
Encoding: 946 946 2434
Width: 510
Flags: W
HStem: -285 21G<110.906 158.5> -14 62<189.992 345.685> 288 36<334.218 389.014> 628 77<176.48 307.776>
VStem: 60 41<-152.971 58.6687 109.007 530.53> 351 35<420.165 575.128> 425 49<120.935 255.932>
LayerCount: 3
Back
SplineSet
93 71 m 0
 77 15 77 -20 77 -80 c 0
 77 -158 101 -186 107 -250 c 0
 109 -269 94 -286 75 -286 c 0
 46 -286 21 -269 21 -236 c 0
 21 -116 44 21 58 87 c 2
 119 377 l 2
 144.624 498.817 235.671 705 378 705 c 0
 426.3549 705 486 653 486 566 c 0
 486 423 403 338 368 302 c 0
 367.302974 301.283059 359 291 359 291 c 1
 359 288 369.0293 287.48293 373 287 c 0
 447 278 482 213 482 158 c 0
 482 51 399 -14 308 -14 c 0
 246 -14 160.741 27.3884 127 78 c 0
 107.6628 107.0058 96.7192 84.0172 93 71 c 0
436 161 m 0
 436 207 395 251 360 251 c 0
 317.4151 251 303 207 257 207 c 0
 251 207 242 218 242 233 c 0
 242 277.0784 282.4705 306.7275 315 317 c 0
 353 329 440 442 443 527 c 0
 444.81641 578.4541 398.3613 627 352 627 c 0
 309 627 246 551 205 465 c 0
 171 394 131 240 131 183 c 0
 131 110 250 47 315 48 c 0
 366.448 48.791508 436 96 436 161 c 0
EndSplineSet
Fore
SplineSet
60 -111.099609375 m 6
 60 377 l 2
 60.37109375 557.9765625 110 705 252 705 c 0
 342.038085938 705 386 602.274414062 386 517 c 0
 386 439.151367188 354.392342649 361.954135338 339 341 c 0
 338.165261418 339.863641122 333 328 333 328 c 1
 334 325 344 324 348 324 c 0
 436.026367188 313.576171875 474 244 474 165 c 0
 474 59 375 -14 268 -14 c 0
 206 -14 165.909459328 20.7761582191 145 45 c 0
 136.211492876 55.1815834985 129 59 124 59 c 0
 115 59 101 45.9990234375 101 34 c 2
 101 -78 l 6
 101 -158 177 -236 177 -254 c 4
 177 -274 168 -285 149 -285 c 12
 72.8125 -285 60 -202.379514251 60 -111.099609375 c 6
425 189 m 0
 425 239.383789062 393 288 342 288 c 0
 299 288 281 224 235 224 c 0
 224.322265625 224 213 239.049804688 213 259 c 0
 213 295 247.087890625 313.838867188 269 332 c 0
 328 380.900390625 351 438.870117188 351 525 c 0
 351 567 307.716796875 628 252 628 c 0
 152.592773438 628 102 544.079101562 102 415 c 2
 101 163 l 2
 100.709960938 89.998046875 194 48 261 48 c 0
 344 48 425 106 425 189 c 0
EndSplineSet
Validated: 33
Substitution2: "ipa_variants subtable" beta.ipa
EndChar

StartChar: gamma
Encoding: 785 947 2435
Width: 430
Flags: W
HStem: -285 21G<172 188.5> 328 86<37.389 109.53> 406 20G<363 378>
VStem: 197 33<-42.1174 32.7636> 352.106 62.8936<334.361 413.545>
LayerCount: 3
Back
SplineSet
532 322 m 0
 532 311 353.803 102.64 247 -43 c 0
 236 -58 220 -131 212 -149 c 0
 195 -189 147 -246 122 -246 c 0
 92 -246 77 -232 77 -204 c 0
 77 -134 169.2617 -58.969 190 -26 c 0
 229 36 237 96 237 147 c 0
 237 245 192 341 145 341 c 0
 103 341 85 312 74 269 c 0
 71 258 72 248 59 248 c 0
 43 248 12 280 12 329 c 0
 12 362 61 410 117 410 c 0
 235 410 275 275 275 156 c 0
 275 134 270.2489 84.4255 266 69 c 0
 261.80156 53.7577 261.64897 47.9669 272 61 c 0
 370.8 185.4 487 336 511 336 c 0
 517 336 532 332 532 322 c 0
EndSplineSet
Fore
SplineSet
237 100 m 0xd8
 286 192 334.081054688 341.002929688 352.106445312 406 c 0
 354.244140625 413.708984375 359 426 367 426 c 0xb8
 389 426 415 398 415 363 c 0
 415 327 310.30264027 165.381990113 237 19 c 0
 231.626890946 8.27014915793 230.123046875 -7.001953125 230 -11 c 0
 229.106445312 -40 215.106613159 -232 211 -254 c 0
 207.513587677 -272.677452229 194 -285 183 -285 c 0
 161 -285 132 -254 132 -228 c 0
 132 -160 176 -54 188 -26 c 0
 202 7 199 53 197 84 c 0
 186 231 117 328 64 328 c 4
 33 328 10 301 3 301 c 4
 -4 301 -7 303 -7 313 c 4
 -7 345 33 414 94 414 c 4
 154 414 223 226 223 107 c 0
 223 102 223 94 228 94 c 0
 232 94 235 96 237 100 c 0xd8
EndSplineSet
Validated: 33
EndChar

StartChar: delta
Encoding: 786 948 2436
Width: 418
Flags: W
HStem: -14 51<125.848 225.372> 338.5 58.5<187.731 285.5> 630 71<146.365 239.174>
VStem: 35 50<78.6096 226.82> 79 67<603.589 665.5> 313 62<136.618 323.704>
LayerCount: 3
Back
SplineSet
58 125 m 0
 57 209 151 362 258 362 c 0
 274 362 283 352 286 341 c 0
 290.74342 323.6075 294.20117 340.060547 293 352 c 0
 276.4004 517 201 589 201 661 c 0
 201 690 206 701 243 701 c 0
 274 701 312 680 342 643 c 0
 418 549 436 515 436 453 c 0
 436 445 433 440 427 440 c 0
 405 440 345 642 248 642 c 0
 240 642 242.92871 632.99902 243 631 c 0
 244.40039 592 343 512 343 244 c 0
 343 126 259 -14 161 -14 c 0
 96 -14 59 44 58 125 c 0
96 114 m 0
 96 70 119 52 151 52 c 0
 216 52 297 165 298 256 c 0
 298 276 290 300 270 300 c 0
 218 300 96 190 96 114 c 0
EndSplineSet
Fore
SplineSet
35 158 m 0xf4
 35 244 101 397 195 397 c 0
 216 397 251 383.5 262 372.5 c 0
 275.508789062 358.991210938 278.963867188 366.416015625 274 374.5 c 0
 239 431.5 173 522.5 127 570 c 0
 115.675259076 581.694025954 79 627 79 658 c 4
 79 673 121 701 148 701 c 4
 179 701 273 676.5 311 639.5 c 0
 402 550.5 408 498 408 482 c 0
 408 477 405 474 400 474 c 0
 383.983735837 474 343.149295498 564.343078135 268 606.5 c 0
 227 629.5 186.382835282 630 160 630 c 4
 156 630 146 628 146 622 c 4xec
 146 610 159.594726562 585.01953125 170 572.5 c 0
 202 534 259.776668588 464.178707447 306 410.5 c 0
 337 374.5 375 299 375 213 c 0
 375 81 276 -14 194 -14 c 0
 126 -14 35 61 35 158 c 0xf4
85 131 m 0xf4
 85 79 136 37 170 37 c 0
 227 37 313 118 313 230 c 0
 313 264 304 338.5 267 338.5 c 0
 169 338.5 85 249 85 131 c 0xf4
EndSplineSet
Validated: 1
EndChar

StartChar: zeta
Encoding: 788 950 2437
Width: 329
Flags: W
HStem: -190 72<152.095 233.244> -5 80<104.347 278.805> 552 27<144.022 168.996>
VStem: 35 40<107.901 283.141> 56 69<588.424 682.768> 279 35<-70.0636 31.6875>
LayerCount: 3
Back
SplineSet
538 647 m 1
 538 625 521.0996 612.7002 496.0996 597.7002 c 0
 352.0996 511.7002 85.0996 320.7002 85.0996 125.7002 c 0
 85.0996 -56.2998 403.9996 5.0002 405.9996 -157.9998 c 0
 406.9996 -259.9998 317.9996 -284.9998 207.9996 -284.9998 c 0
 173.9996 -284.9998 140.9996 -250.9998 140.9996 -230.9998 c 0
 140.9996 -207.9998 162.9996 -193.9998 186.9996 -193.9998 c 0
 219.9996 -193.9998 262.9996 -241.9998 294.9996 -241.9998 c 0
 333.9996 -241.9998 348.9996 -202.9998 348.9996 -171.9998 c 0
 348.9996 -97.9998 42.9996 -107.9998 42.9996 116.0002 c 0
 42.9996 284.0002 146.8276 398.3302 278.9996 516.0002 c 0
 319.0996 551.7002 311.0992 551.7004 285.09921 551.7004 c 0
 237.09921 551.7004 161.99921 590.0002 161.99921 642.0002 c 0
 161.99921 690.0002 253.99921 750.0002 299.99921 750.0002 c 0
 315.99921 750.0002 324.99921 746.0002 324.99921 737.0002 c 0
 324.99921 724.0002 248.99921 680.0002 248.99921 632.0002 c 0
 248.99921 604.0002 293.99921 579.0002 323.99921 579.0002 c 0
 345.99921 579.0002 355.34691 583.58223 388.99921 612.0002 c 2
 433.99921 650.0002 l 2
 463.99921 675.0002 484.99921 690.0002 498.99921 690.0002 c 0
 522.99921 690.0002 537.99921 682.0002 537.99921 647.0002 c 1
 538 647 l 1
EndSplineSet
Fore
SplineSet
35 163 m 0xf4
 35 243 73 388 157 520 c 0
 168.774598782 538.502940943 169 542 169 547 c 0
 169 553 164 552 155 552 c 0
 108.51171875 552 56 576.516601562 56 636 c 0
 56 682 109 714 152 714 c 0
 159 714 160 714 160 704 c 0
 160 694 125 683.612304688 125 642 c 0xec
 125 605.40234375 142.985351562 579 176 579 c 0
 185 579 187.242889924 579.553612404 194 588 c 0
 251.196766465 659.495958082 292 690 303 690 c 0
 326.103515625 690 334 677.842773438 334 639 c 0
 334 622 320 611 301 598 c 0
 185 519 75 355 75 177 c 0
 74 127 102 75 154 75 c 0
 165 75 253 78 265 78 c 0
 290 78 314 62.375 314 1 c 0
 314 -96 252 -190 191 -190 c 0
 170 -190 138 -161 138 -141 c 0
 138 -122.610351562 147 -118 160 -118 c 0
 232 -118 279 -65 279 -26 c 0
 279 -8 263.879882812 0 240 0 c 0
 225 0 152 -5 132 -5 c 0
 56 -5 35 85.9935067673 35 163 c 0xf4
EndSplineSet
Validated: 33
EndChar

StartChar: eta
Encoding: 951 951 2438
Width: 460
Flags: W
HStem: -285 21G<350.865 376> -14 21G<114.19 126> 328 86<52.6485 111.948 285.903 347.103>
VStem: 122 35<194.539 316.607> 300 92<-271.187 -131.76> 354 38<56.129 325.405>
AnchorPoint: "grk_top" 232 550 basechar 0
AnchorPoint: "grk_bottom" 104 -147 basechar 0
LayerCount: 3
Back
SplineSet
162 306 m 0
 162 322 157 328 150 328 c 0
 140 328 136 294 102 294 c 0
 90 294 81 312 81 318 c 0
 81 347 123 414 162 414 c 0
 203 414 224 407 224 364 c 1
 226 301 193 222 170 177 c 0
 163 164 171 154 189 179 c 0
 263 282 353 416 404 416 c 0
 411 416 439 400 439 373 c 0
 439 230 319 -90 289 -156 c 0
 276 -185 254 -207 238 -207 c 0
 216 -207 197 -201 197 -182 c 0
 197 -119 247 -90 265 -57 c 0
 299 5 392 222 392 300 c 0
 392 312 389 322 378 322 c 0
 341 322 286 221 135 28 c 0
 121 10 87 -14 73 -14 c 0
 64 -14 43 0 43 16 c 0
 43 36 83 77 101 120 c 0
 119 163 161 254 162 306 c 0
EndSplineSet
Fore
SplineSet
122 256 m 0xf4
 122 277.383789062 120.399993896 328 74 328 c 0
 43.400390625 328 34.400390625 315 27 315 c 0
 20.400390625 315 17 316.740234375 17 327 c 0
 17 359 60 414 95 414 c 0
 144.399993896 414 157 376.07421875 157 307 c 0
 157 254.634765625 154.399993896 238 149 201 c 0
 148.422336624 197.041931655 151 194 154 194 c 0
 157 194 159.673828125 193.395507812 164.400390625 205 c 0
 219.80078125 341 287 414 338 414 c 0
 387.90625 414 392 340.525390625 392 278 c 0xf4
 392 122 392.400390625 -183 392 -235 c 0
 391.770507812 -264.83203125 384 -285 368 -285 c 0
 333.73046875 -285 298.999023438 -266.032226562 300 -231 c 0xf8
 300.400390625 -217 309.09298331 -190.792646716 316.400390625 -161 c 0
 329.399993896 -108 354 161 354 257 c 0
 354 281.437621988 351.400390625 334 313 334 c 0
 268.400390625 334 198.399993896 211 145 28 c 0
 139.231959091 8.23311597458 133 -14 119 -14 c 0
 109.379882812 -14 83 0.8701171875 83 20 c 0
 83 41 92.9618575455 79.7296624517 104 119 c 0
 114.399993896 156 122 204 122 256 c 0xf4
EndSplineSet
Validated: 33
EndChar

StartChar: theta
Encoding: 790 952 2439
Width: 430
Flags: W
HStem: -14 70<157.601 250> 339 49<100.955 326.487> 623 74<180.976 273.967>
VStem: 45 45<183.953 338.953> 337 48<387.031 513.803>
LayerCount: 3
Back
SplineSet
180 -14 m 1
 99 -14 102.7998 158 88.7998 158 c 0
 73.7998 158 75.7998 102 54.7998 102 c 0
 35.7998 102 27.7998 141 27.7998 171 c 0
 27.7998 200 56.7998 229.4004 85.7998 229.4004 c 0
 142.7998 229.4004 122.7998 47.4004 194.7998 47.4004 c 0
 323.7998 47.4004 375.9998 270.0004 375.9998 402.0004 c 0
 375.9998 492.0004 330.9998 638.0004 255.9998 638.0004 c 0
 192.9998 638.0004 154.9998 625.0004 154.9998 510.0004 c 0
 154.9998 447.0004 240.9998 350.0004 353.9998 350.0004 c 0
 445.9998 350.0004 470.9998 382.0004 491.9998 382.0004 c 0
 499.9998 382.0004 507.9998 369.0004 507.9998 358.0004 c 0
 507.9998 322.0004 392.9998 309.0004 338.9998 309.0004 c 0
 205.9998 309.0004 112.9998 414.0004 112.9998 528.0004 c 0
 112.9998 647.0004 159.7996 703.4004 239.7998 703.4004 c 0
 343.7998 703.4004 415.9998 548.0004 415.9998 387.0004 c 0
 415.9998 202.0004 359.9998 -13.9996 179.9998 -13.9996 c 1
 180 -14 l 1
EndSplineSet
Fore
SplineSet
314 338 m 6
 102 339 l 6
 94 339.038085938 89.9637520013 330.999906148 90 324 c 4
 90.4593200684 235.300003052 102 56 201 56 c 4
 280 56 316.458984375 198.299804688 327 323 c 4
 327.926757812 333.9609375 326 338 314 338 c 6
225 623 m 4
 161 623 116.458984375 495.299804688 101 401 c 4
 99.96484375 394.684570312 104 388.032226562 111 388 c 6
 325 387 l 6
 332 387 337.203137574 393.384954219 337 400 c 4
 333.459320068 515.299987793 309 623 225 623 c 4
225 697 m 4
 315 697 385 497 385 386 c 4
 385 262 331 -14 207 -14 c 4
 115 -14 45 196 45 331 c 4
 45 484 129 697 225 697 c 4
EndSplineSet
Validated: 1
EndChar

StartChar: iota
Encoding: 953 953 2440
Width: 221
Flags: W
HStem: -14 77.7002<104.091 174.846> 398 20G<91.9819 125.5>
VStem: 65 85<145.405 409.491> 67 58<65.156 304.9>
AnchorPoint: "grk_top" 111 550 basechar 0
AnchorPoint: "grk_bottom" 130 -147 basechar 0
LayerCount: 3
Back
SplineSet
180 124 m 0
 180 85 108 -14 54 -14 c 0
 42 -14 32 0 32 28 c 0
 32 40 34.36719 64.5605 45 100 c 2
 116 347 l 2
 123.18262 371.9883 132.438 409 156 409 c 0
 181 409 191 402 191 384 c 0
 191 366 115 175 115 136 c 0
 115 130 120.85254 120.2754 136 130 c 0
 150.0029 138.98926 165 152 168 152 c 0
 177 152 180 144 180 124 c 0
EndSplineSet
Fore
SplineSet
150 343 m 0xe0
 150 307 125 155 125 95 c 0
 125 70 139.31640625 63.7001953125 153.31640625 63.7001953125 c 0
 174.31640625 63.7001953125 185 78 188 78 c 0
 197.014648438 78 198 73.0302734375 198 62 c 0
 198 28 171.212890625 -14 121 -14 c 0
 87.1826171875 -14 67.546875 18.6982421875 67 86 c 2xd0
 65 332 l 2
 63.1240234375 373.958007812 72.9638671875 418 111 418 c 16
 140 418 150 391 150 343 c 0xe0
EndSplineSet
Validated: 33
EndChar

StartChar: lambda
Encoding: 955 955 2442
Width: 430
Flags: W
HStem: -15 80<307.27 393.367> 625 74<34.6109 119.455>
VStem: 0.883789 70.1162<-10.7752 53.1533>
LayerCount: 3
Back
SplineSet
571 35 m 0
 571 14.2841 556 -11 533 -11 c 0
 497 -11 437.5833 40.1634 417 137 c 0
 403.2778 201.5577 387.0132 268.328 366 333 c 0
 350.8582 379.6018 337.5771 388.6934 320 351 c 0
 290.417 287.5586 122.711 78.711 52 8 c 0
 46.99368 2.99368 34 -7 26 -7 c 0
 18 -7 -3 5 -3 15 c 0
 -3 33 7.3223 49.3223 25 67 c 0
 99.2461 141.2461 243 317.397 293 404 c 0
 304 423.0527 313.9167 444.3117 308 457 c 0
 299.54763 475.1262 275.4715 515.617 264 532 c 0
 244.4984 559.8512 236 567 196 572 c 0
 174.7656 574.6543 146 592 146 608 c 0
 146 639 164 660 208 660 c 0
 249 660 269 647 316 582 c 0
 351.678 532.6581 412.804 385.04 460 163 c 0
 468.52438 122.8959 502 77 518 77 c 0
 560 77 571 56 571 35 c 0
EndSplineSet
Fore
SplineSet
347 65 m 0
 382.646484375 64 411 99 419 99 c 0
 424 99 430 95 430 90 c 0
 430 15 374.846679688 -15 332 -15 c 0
 299 -15 280.080384555 -1.76526903054 265 48 c 0
 245 114 223.7734375 223.551757812 215 293 c 0
 214.373046875 297.9609375 210.696289062 298.703125 209 294 c 0
 187 233 117 100 71 18 c 0
 67.8672652284 12.4155597549 56 -18 48 -18 c 0
 34.208984375 -18 0.8837890625 -5.6142578125 0.8837890625 11.98046875 c 0
 0.8837890625 26.095703125 0.685617901648 22.6295482456 11 38 c 0
 62 114 163 270 194 366 c 0
 200.22265625 385.268554688 201.28515625 385.354492188 199 401 c 0
 186 490 149 625 69 625 c 0
 42.9833984375 625 7 586 0 586 c 0
 -7 586 -10 588 -10 598 c 0
 -10 630 30 699 91 699 c 0
 159 699 194.024830585 607.007749419 207 537 c 0
 219.248049668 470.915437663 245 273 288 122 c 0
 299.903518855 80.1992709988 331 65 347 65 c 0
EndSplineSet
Validated: 33
EndChar

StartChar: xi
Encoding: 796 958 2444
Width: 359
Flags: W
HStem: -190 72<192.095 273.244> -17 76<92.9184 253.887> 0 82<147.845 318.333>
VStem: 35 39<80.5623 194.625> 46 69<617.436 705.768> 60 50<377.319 487.462> 319 35<-70.0636 31.5>
LayerCount: 3
Back
SplineSet
442 673 m 0
 442 653 396 621 338 606 c 0
 249.4924 583.1101 125 496 125 406 c 0
 125 363.1836 164.1836 333 207 333 c 0
 254 333 335 405 382 405 c 0
 408 405 408 393 408 372 c 0
 408 304.1743 251.073 287.2236 209 263 c 0
 143 225 63 147 63 104 c 0
 63 70 89 40 124 40 c 0
 163 40 263 72 321 72 c 0
 350.333 72 382 57.333 382 28 c 0
 382 -68.127 297 -156 218 -156 c 0
 204 -156 192 -148 192 -133 c 0
 192 -119 198.20823 -91.5282 245 -87 c 0
 307 -81 317 -29 317 -13 c 0
 317 3 307 20 285 20 c 0
 218.5342 20 184.466 -14 118 -14 c 0
 63.1719 -14 10 21.1719 10 76 c 0
 10 156 106 234 168 277 c 0
 172.10857 279.84949 176.15842 289.3607 156 298 c 0
 121 313 77 353 77 401 c 0
 77 486 169.5854 560.591 220 593 c 0
 234 602 234.1294 604.8588 217 607 c 0
 185 611 136 627 136 688 c 0
 136 728 176 791 216 791 c 0
 227 791 233 783 233 766 c 0
 233 749 192 710 192 690 c 0
 192 660 230 646 260 646 c 0
 295 646 384 702 424 702 c 0
 433 702 442 687 442 673 c 0
EndSplineSet
Fore
SplineSet
145 588 m 0xca
 151.455078125 588 149.093228717 585.058025771 139 576 c 0
 100 541 60 477 60 437 c 0xc6
 60 370 99 350 144 332 c 0
 159.759765625 325.696289062 151.5 322.29296875 144 316 c 0
 91.7177734375 272.129882812 35 197 35 109 c 0
 35 56 67 -17 141 -17 c 0xd2
 161 -17 262 0 277 0 c 0
 301 0 319 -8 319 -26 c 0
 319 -65 272 -118 200 -118 c 0
 187 -118 178 -123 178 -141 c 0
 178 -161 210 -190 231 -190 c 0
 292 -190 354 -96 354 1 c 0
 354 62 295 82 270 82 c 0xb2
 234.584960938 82 167.255859375 59 132 59 c 0
 99 59 74 102 74 124 c 0xd2
 74 200.354492188 127 244 183 280 c 0
 222.634057289 305.479036829 259.653320312 317.951171875 301 333 c 0
 319.793945312 339.840820312 337 355 337 378 c 0
 337 395.029296875 330 407 303 407 c 0
 281 407 224 360 177 360 c 8
 141.1328125 360 110 388 110 423 c 0xc6
 110 470 140 510 200 557 c 0
 221.64906645 573.958435386 259.653320312 595.951171875 301 611 c 0
 319.793945312 617.840820312 337 646.213867188 337 656 c 0
 337 671 330 685 303 685 c 0
 281 685 220 645.885742188 186 619 c 0
 182.045898438 615.873046875 170.009765625 610 166 610 c 0
 132.985351562 610 115 628.40234375 115 665 c 0
 115 706.612304688 150 717 150 727 c 0
 150 737 149 737 142 737 c 0
 99 737 46 705 46 659 c 0
 46 599.516601562 99 588 145 588 c 0xca
EndSplineSet
Validated: 9
EndChar

StartChar: omicron
Encoding: 797 959 2445
Width: 400
Flags: W
HStem: -14 78<108.361 237.029> 334 80<161.471 283.517>
VStem: 35 40<97.9084 241.074> 325 40<158.352 295.909>
AnchorPoint: "grk_top" 202 550 basechar 0
AnchorPoint: "grk_bottom" 130 -147 basechar 0
LayerCount: 3
Back
SplineSet
313 245 m 0
 313 127 236 -14 138 -14 c 0
 72.792 -14 35 59 35 140 c 0
 35 278.24 148 414 234 414 c 0
 300 414 313 325 313 245 c 0
275 256 m 0
 275 293 262.65 327 233 327 c 0
 146 327 73 185 73 129 c 0
 73 85 96.1396 64 128 64 c 0
 193 64 275 193 275 256 c 0
EndSplineSet
Fore
SplineSet
175 -14 m 0
 76.892578125 -14 35 96.892578125 35 195 c 0
 35 305.557617188 104.442382812 414 215 414 c 0
 318.5234375 414 365 298.5234375 365 195 c 0
 365 84.8427734375 285.157226562 -14 175 -14 c 0
325 235 m 0
 325 283.849609375 288.849609375 334 240 334 c 0
 148.442382812 334 75 251.557617188 75 160 c 0
 75 111.263671875 106.263671875 64 155 64 c 0
 249.038085938 64 325 140.961914062 325 235 c 0
EndSplineSet
Validated: 1
EndChar

StartChar: rho
Encoding: 961 961 2447
Width: 426
Flags: W
HStem: -285 21G<103 127.5> -14 78<149.862 274.808> 345 69<192.876 316.492>
VStem: 60 83<-275.427 -109.902> 63 50<-192.858 37.3648 77.224 247.764> 353 38<148.041 303.291>
AnchorPoint: "grk_top" 232 550 basechar 0
LayerCount: 3
Back
SplineSet
329 314 m 0
 329 194 242 100 131 100 c 0
 102 100 86 115 71 127 c 0
 60 136 41 100 41 26 c 0
 41 -16 65 -54 107 -54 c 0
 142 -54 172 -47 209 -47 c 0
 245 -47 264 -74 264 -117 c 0
 264 -196 155 -288 67 -288 c 0
 55 -288 49 -283 49 -269 c 0
 49 -257 66 -221 80 -221 c 0
 125 -221 200 -211 200 -146 c 0
 200 -124 190 -107 172 -107 c 0
 148 -107 120 -114 90 -114 c 0
 41 -114 -3 -59 -3 0 c 0
 -3 213 142 414 242 414 c 0
 305 414 329 368 329 314 c 0
281 306 m 0
 281 334 266 350 249 350 c 0
 186 350 84 242 84 187 c 0
 84 171 97 164 117 164 c 0
 225 164 281 212 281 306 c 0
EndSplineSet
Fore
SplineSet
113 22 m 4xec
 113 -7 115 -43 118 -78 c 4
 125 -164 143 -245 143 -263 c 4
 143 -283 137 -285 118 -285 c 12
 88 -285 60 -269 60 -234 c 4xf4
 60 -209 63 129 63 204 c 0
 63 325 132 414 243 414 c 0
 347 414 391 312 391 208 c 0
 391 98 313 -14 203 -14 c 0
 168 -14 142 12 123 37 c 0
 117 45 113 39 113 22 c 4xec
353 246 m 0
 353 295 314 345 265 345 c 0
 201 345 112 302 112 112 c 0
 112 90 143 64 171 64 c 0
 302 64 353 132 353 246 c 0
EndSplineSet
Validated: 1
EndChar

StartChar: sigma
Encoding: 801 963 2449
Width: 485
Flags: W
HStem: -14 78<114.652 237.591> 341 69<270.7 463.929> 350 66<155.19 356.888>
VStem: 35 40<99.7313 251.734> 317 47<148.225 298.545>
LayerCount: 3
Back
SplineSet
275 256 m 0
 275 293 271.65039 335 242 335 c 0
 155 335 73 185 73 129 c 0
 73 85 96.1396 64 128 64 c 0
 193 64 275 193 275 256 c 0
304.2 325.2 m 0
 310.05254 303.2 313.9998 288.1998 313.9998 244.9998 c 0
 313.9998 126.9998 235.9998 -14.0002 137.9998 -14.0002 c 0
 72.7918 -14.0002 34.9998 58.9998 34.9998 139.9998 c 0
 34.9998 278.2398 172.9998 413.9998 258.9998 413.9998 c 0
 300.9998 413.9998 369.9998 399.9998 421.9998 399.9998 c 0
 445.9998 399.9998 458.9998 426.9998 476.9998 426.9998 c 0
 488.9998 426.9998 495.9998 408.9998 495.9998 372.9998 c 0
 495.9998 341.4822 455.9998 332.9998 435.9998 332.9998 c 0
 395.9998 332.9998 348.9998 339.9998 321.9998 339.9998 c 0
 294.9998 339.9998 300.2889 339.9011672 304.2 325.2 c 0
EndSplineSet
Fore
SplineSet
75 160 m 0xb8
 75 106 112 64 160 64 c 0
 261 64 317 149 317 239 c 0
 317 271.740234375 307.400390625 340 272.400390625 347 c 0
 260.388671875 349.40234375 235 350 222 350 c 0
 127 350 75 245 75 160 c 0xb8
182 -14 m 0
 83 -14 35 102 35 195 c 0
 35 316 139 416 215 416 c 4xb8
 257 416 368 410 420 410 c 4
 444 410 471 433 476 433 c 4
 482 433 484 429 484 424 c 4
 484 374 453 341 424 341 c 4xd8
 410 341 331 344 324 344 c 0
 317.399993896 344 313.399993896 338 320 330 c 0
 333.232486011 313.96063785 364 276.293945312 364 223 c 0
 364 123 286 -14 182 -14 c 0
EndSplineSet
Validated: 1
EndChar

StartChar: tau
Encoding: 802 964 2450
Width: 410
Flags: W
HStem: -14 78<211 287.993> 268 21G<24 32> 332 68<249.929 397.369> 343 65<74.4651 207.597> 410 20G<400 410>
VStem: 15 27<268.026 306.316>
LayerCount: 3
Back
SplineSet
281 136 m 0
 281 130 286.85254 120.2754 302 130 c 0
 316.0029 138.98926 331 152 334 152 c 0
 343 152 346 144 346 124 c 0
 346 85 274 -14 220 -14 c 0
 208 -14 198 0 198 28 c 0
 198 40 196.47754 65.9668 211 100 c 2
 310 332 l 2
 315.10038 343.9577 303 350 286 350 c 2
 207 350 l 2
 155 350 100 297 100 259 c 0
 100 238 104 236 104 229 c 0
 104 222 96 214 88 214 c 0
 71 214 57 229 57 258 c 0
 57 322 120.7109 400 208 400 c 2
 526 400 l 2
 555 400 569 394 569 380 c 0
 569 359 556.999 350 533 350 c 2
 400 350 l 2
 375 350 364.3511 342.01307 359 328 c 0
 342.6329 285.1387 281 157 281 136 c 0
EndSplineSet
Fore
SplineSet
405 430 m 0xec
 415 430 420 422 420 399 c 0
 420 370 392 332 368 332 c 0xec
 341 332 274 341 260 341 c 0
 250 341 241.578300535 337.86052862 240 329 c 0
 231.98398695 283.998359643 221 130 221 119 c 0
 221 82 249 64 263 64 c 0
 284 64 307 78 310 78 c 0
 319 78 320 73 320 62 c 0
 320 28 278 -14 228 -14 c 0
 194 -14 166 9 166 76 c 0
 166 126 209 313 209 327 c 0
 209 339 203.026727002 342.316446329 193 343 c 0
 178.034735817 344.02022936 126 345 126 345 c 0
 99 345 58.904296875 331.337890625 42 279 c 0
 40.34375 273.87109375 36 268 28 268 c 0
 20 268 15 277 15 296 c 0
 15 341 75 408 140 408 c 0xdc
 221 408 256 400 322 400 c 0
 407 400 395 430 405 430 c 0xec
EndSplineSet
Validated: 1
EndChar

StartChar: chi
Encoding: 805 967 2453
Width: 438
Flags: W
HStem: -290 21G<47 60.5591> -271 80<317.138 411.393> 340 74<34.6109 124.924>
VStem: 22 86<-207.932 -161>
LayerCount: 3
Back
SplineSet
205 342 m 0
 163 342 145 313 134 270 c 0
 131 259 132 249 119 249 c 0
 103 249 72 281 72 330 c 0
 72 363 121 411 177 411 c 0
 287 412 321 334 321 190 c 0
 321 159 326.24512 162.7461 347 183 c 2
 575 405 l 2
 584.63867 414.38477 593 421 602 421 c 0
 617 421 625 411 625 393 c 0
 625 382 621.66309 370.292 611 361 c 2
 362 144 l 2
 325.829 112.446 317 83 317 66 c 0
 317 -76 366 -157 431 -157 c 0
 489 -157 560 -79 560 -19 c 0
 560 4 566 21 577 21 c 0
 596 21 610 -21 610 -74 c 0
 610 -145 523 -206 447 -206 c 0
 313 -206 283 -82 287 51 c 0
 287.410156 64.623 284.21094 58.15137 276 50 c 2
 111 -114 l 2
 103.90429 -121.04634 56 -199 28 -199 c 0
 13 -199 0 -194 0 -179 c 0
 4.44089e-16 -172 6.54252 -156.7537 17 -146 c 2
 258 102 l 1
 276 119 286 138 286 160 c 0
 286 259.3244 271 342 205 342 c 0
EndSplineSet
Fore
SplineSet
108 -161 m 2x70
 62.569941656 -246.609036254 70.1181640625 -290 51 -290 c 4xb0
 43 -290 22 -288 22 -225 c 0
 22 -210.879882812 28.9189453125 -176.731445312 40 -157 c 2
 200.869140625 129.45703125 l 1
 200.249023438 133.54296875 199.62629123 140.712046238 199 145 c 0
 186 234 149 340 69 340 c 0
 42.9833984375 340 7 301 0 301 c 0
 -7 301 -10 303 -10 313 c 0
 -10 345 30 414 91 414 c 0
 159 414 194.024414062 322.0078125 207 252 c 0
 211.348432061 228.537813268 217.930664062 189.508789062 223.26953125 158.1640625 c 1
 329 381 l 2
 335.453125 393.42578125 343 414 352 414 c 0
 363.809570312 414 397 383 397 354 c 0
 397 344 383.510742188 320.359375 371.200195312 298.599609375 c 2
 238.73046875 82.2060546875 l 1
 245.072265625 50.1748046875 252.377445947 7.49021621171 261 -27 c 0
 295 -163 325 -191 357 -191 c 0
 392.66015625 -191 429 -157 437 -157 c 0
 442 -157 448 -161 448 -166 c 0
 448 -241 392.846679688 -271 350 -271 c 0
 317 -271 280.080078125 -257.765625 265 -208 c 0
 245.485228858 -143.60125523 224.802734375 -27.73828125 215.66015625 41.8759765625 c 1
 108 -161 l 2x70
EndSplineSet
Validated: 1
EndChar

StartChar: psi
Encoding: 806 968 2454
Width: 560
Flags: W
HStem: -285 21G<318 346.5> -16.5522 82.715<224.139 275.879> 328 86<51.3727 111.885> 372 42<539.642 589.04> 596 20G<294 320.5>
VStem: 273 69<338.612 614.513> 275.971 40.1393<-167.499 -16.5522 69.6494 268.338>
LayerCount: 3
Back
SplineSet
273 574 m 0xcc
 273 603 283 616 305 616 c 0
 336 616 342 605 342 568 c 0xcc
 342 536.0390625 316 433 316 -67 c 0
 316 -147 365 -236 365 -254 c 0
 365 -274 356 -285 337 -285 c 0
 299 -285 276 -191.379882812 276 -100.099609375 c 0xca
 276 399.900390625 273 552.340820312 273 574 c 0xcc
72 328 m 0xe8
 41 328 32 315 25 315 c 0
 18 315 15 317 15 327 c 0
 15 359 58.0244140625 412.705078125 93 414 c 0xe8
 147 416 171 334 186.23828125 158 c 0
 191.172851562 101.006835938 236.900721502 65.400390625 289 65.400390625 c 0
 359.944790222 65.400390625 383 136 415 244 c 0
 444.376711401 343.14640098 481 414 549 414 c 0
 577 414 590 399 590 388 c 0
 590 380 585.275795805 375.326078082 578 372 c 0xd8
 543 356 516 344 502 310 c 0
 481.6953125 260.6875 449 166 431 106 c 0
 402.822319979 12.0743999294 328.03953664 -15.4221051491 283 -16.599609375 c 0
 207.680628325 -18.5688421861 155.909179688 58.87109375 147.83203125 146 c 0
 133 306 109 328 72 328 c 0xe8
EndSplineSet
Fore
SplineSet
72 328 m 0xea
 41 328 32 315 25 315 c 0
 18 315 15 317 15 327 c 0
 15 359 58.0244140625 412.705078125 93 414 c 0xea
 147 416 171 334 186.23828125 158 c 0
 190.753590567 105.849205015 229.424755211 71.6053133239 275.879401489 66.1627857229 c 1
 275.319415442 434.798888857 273 554.955452901 273 574 c 0
 273 603 283 616 305 616 c 0
 336 616 342 605 342 568 c 0
 342 539.190781034 320.874971807 452.63050843 316.708627052 69.6494313755 c 1
 366.733992849 86.3956949219 387.584218847 151.471738764 415 244 c 0
 444.376711401 343.14640098 481 414 549 414 c 0
 577 414 590 399 590 388 c 0
 590 380 585.275795805 375.326078082 578 372 c 0xdc
 543 356 516 344 502 310 c 0
 481.6953125 260.6875 449 166 431 106 c 0
 409.000406748 32.6680224942 358.592051296 -0.171214335551 316.110163377 -11.606655894 c 1
 316.037677311 -29.5078417616 316 -47.9662974076 316 -67 c 0
 316 -147 365 -236 365 -254 c 0
 365 -274 356 -285 337 -285 c 0
 299 -285 276 -191.379882812 276 -100.099609375 c 0
 276 -71.0950229542 275.989904808 -43.2599967778 275.97088565 -16.5522147233 c 1
 204.470502675 -13.693038584 155.655400208 61.6086351872 147.83203125 146 c 0
 133 306 109 328 72 328 c 0xea
EndSplineSet
Validated: 33
EndChar

StartChar: theta1
Encoding: 813 977 2687
Width: 460
Flags: W
HStem: -14 72<182.299 265.637> 158 71<68.4789 125.098> 321 60.1681<233.101 350.112 391.992 444.596> 632 71<163.738 269.071>
VStem: 82 40<457.03 582.496> 351.894 40.1056<382.308 510.05>
LayerCount: 3
Back
SplineSet
218 -14 m 0
 186.87 -14 164.399810791 7.70020294189 152.796288276 42.7002017809 c 0
 136.786543314 90.9908009847 123 158 114 158 c 0
 79 158 58 120 48 120 c 0
 43 120 28 135 28 165 c 0
 28 203.452148438 56.5478515625 229 95 229 c 0
 118.102539062 229 138.16464298 199.919877404 148.130071395 165.700196525 c 0
 162.399810791 116.700202942 177 58 219 58 c 0
 306 58 352 237 352 369 c 0
 352 563 273 632 212 632 c 0
 175 632 122 585 122 511 c 0
 122 421 257 381 364 381 c 0
 410 381 434 391 445 391 c 0
 453 391 461 384 461 373 c 0
 461 361 459 352 447 338 c 0
 435 324 383 321 348 321 c 0
 215 321 82 407 82 514 c 0
 82 608 149 703 216 703 c 0
 312 703 392 516 392 387 c 0
 392 220 360 -14 218 -14 c 0
EndSplineSet
Fore
SplineSet
218 -14 m 0
 186.87 -14 164.399810791 7.70020294189 152.796288276 42.7002017809 c 0
 136.786543314 90.9908009847 123 158 114 158 c 0
 79 158 58 120 48 120 c 0
 43 120 28 135 28 165 c 0
 28 203.452148438 56.5478515625 229 95 229 c 0
 118.102539062 229 138.16464298 199.919877404 148.130071395 165.700196525 c 0
 162.399810791 116.700202942 177 58 219 58 c 0
 295.801063952 58 340.651468584 197.491902884 350.111566252 321.003635111 c 1
 349.401264431 321.003635111 348.697258792 321 348 321 c 0
 215 321 82 407 82 514 c 0
 82 608 149 703 216 703 c 0
 312 703 392 516 392 387 c 0
 392 385.441817967 391.991579175 383.877803118 391.991579175 382.308199949 c 1
 420.211204904 385.019230847 436.493102402 391 445 391 c 0
 453 391 461 384 461 373 c 0
 461 361 459 352 447 338 c 0
 439.383945637 329.114603243 415.655590145 324.660089296 390.38700268 322.591255471 c 1
 382.412050065 165.743123201 342.453340315 -14 218 -14 c 0
351.894446579 381.168131018 m 1
 348.65911827 565.894048854 271.707043768 632 212 632 c 0
 175 632 122 585 122 511 c 0
 122 424.36357078 247.097847798 384.059677783 351.894446579 381.168131018 c 1
EndSplineSet
Validated: 1
EndChar

StartChar: phi1
Encoding: 981 981 2485
Width: 510
Flags: W
HStem: -285 21G<251.816 273.5> -21.0228 69.7257<275.767 349.601> 359.056 65.2182<172.788 239.029 281.412 344.809> 596 20G<244 270.5>
VStem: 35 35<117.516 249.628> 224 63<-279.582 -27.2754> 239.537 36.2301<-223.254 -19.782 48.7029 359.008 422.388 551.228> 440 35<123.005 256.996>
LayerCount: 3
Back
SplineSet
287 -250 m 0xfc80
 287 -270 283 -285 264 -285 c 8
 239.631835938 -285 224 -259.498046875 224 -237 c 0xfc80
 224 -203 244.77044004 -60.9936849177 243 155 c 2xf980
 242 277 l 2
 240.598253275 448.013100437 233 547 233 569 c 0
 233 598 233 616 255 616 c 0
 286 616 288 589 288 552 c 0xfa80
 288 527 279.74441789 442.037282349 277 276 c 2
 275 155 l 2xf980
 271.346739502 -66.0222601571 287 -248 287 -250 c 0xfc80
70 175 m 0
 70 87.4853515625 167.485351562 48 255 48 c 0
 343.6328125 48 440 91.3671875 440 180 c 0
 440 279.27734375 359.27734375 360 260 360 c 0
 156.576171875 360 70 278.423828125 70 175 c 0
255 -22 m 0
 133.107421875 -22 35 78.107421875 35 200 c 0
 35 323.272460938 133.727539062 425 257 425 c 0
 379.181640625 425 475 322.181640625 475 200 c 0
 475 78.107421875 376.892578125 -22 255 -22 c 0
EndSplineSet
Fore
SplineSet
287 -250 m 0xfd
 287 -270 283 -285 264 -285 c 0
 239.631835938 -285 224 -259.498046875 224 -237 c 0xfd
 224 -213.399658117 234.007473579 -137.760440675 239.537385597 -21.4596415533 c 1
 124.916260804 -13.4200715291 35 83.3068266013 35 200 c 0
 35 317.21998023 124.27080831 414.958743677 239.028845937 424.273800968 c 1
 236.364505549 505.631198994 233 554.360493989 233 569 c 0
 233 598 233 616 255 616 c 0
 286 616 288 589 288 552 c 0
 288 535.911953291 284.581195075 494.992122257 281.41236159 423.614294024 c 1
 391.706875255 411.000612568 475 313.916377124 475 200 c 0
 475 85.1131929052 387.845933173 -10.4206954464 275.767488596 -21.0227944879 c 1xfb
 278.990707216 -155.049673988 287 -248.569378742 287 -250 c 0xfd
274.617674499 48.7028883483 m 1
 357.271600548 54.6160670386 440 97.8784288811 440 180 c 0
 440 272.870526957 369.359955131 349.503927704 278.971917225 359.008150409 c 1
 278.186641408 333.958666079 277.501358459 306.332186758 277 276 c 2
 275 155 l 2
 274.392959746 118.274064653 274.318981489 82.6261666143 274.617674499 48.7028883483 c 1
240.792003609 359.055602895 m 1
 146.076013952 349.70095308 70 271.94943758 70 175 c 0
 70 91.7712819843 158.170695713 51.9826957649 242.083088235 48.2851132333 c 1
 242.927047227 81.4545987939 243.310757783 117.087550514 243 155 c 2
 242 277 l 2
 241.758161969 306.504239833 241.331883131 333.86459901 240.792003609 359.055602895 c 1
EndSplineSet
Validated: 33
EndChar

StartChar: omega1
Encoding: 982 982 2484
Width: 562
Flags: W
HStem: -14 63<92.7552 206.58 318.304 415.471> 300 57<182.51 410.011> 441 56<169.494 356.812>
VStem: 35 35<78.2475 210.865> 109 47<371.368 424.087> 249 75<87.3737 243.141> 468 63<115.024 327.295>
LayerCount: 3
Back
SplineSet
468 251 m 0
 468 129 436 49 358 49 c 0
 318 49 309 87 304 108 c 0
 302 115 300 131 302 137 c 0
 313 166 324 196 324 221 c 0
 324 254 303 270 285 270 c 0
 253 270 237 247 237 219 c 0
 237 198 249 169 249 147 c 0
 249 92 208 52 131 52 c 0
 89 52 70 100 70 140 c 0
 70 236 170 323 170 338 c 0
 170 354 162 382 147 382 c 0
 119 382 35 311 35 170 c 0
 35 86 65 -14 150 -14 c 0
 235 -14 263 74 277 74 c 0
 286 74 290 -14 370 -14 c 0
 474 -14 531 117 531 221 c 0
 531 377 401 497 245 497 c 0
 191 497 109 463 109 415 c 0
 109 342 202 301 282 300 c 0
 337 299 454 319 530 386 c 0
 535 391 538 395.0234375 538 402 c 16
 538 410 533.799804688 418 526 418 c 16
 516 418 438 357 253 357 c 0
 207 357 151 370 151 405 c 0
 151 426 199 447 259 447 c 0
 372 447 468 364 468 251 c 0
EndSplineSet
Fore
SplineSet
468 251 m 0
 468 129 436 49 358 49 c 0
 318 49 309 87 304 108 c 0
 302 115 300 131 302 137 c 0
 313 166 324 196 324 221 c 0
 324 254 303 270 285 270 c 0
 253 270 237 247 237 219 c 0
 237 198 249 169 249 147 c 0
 249 92 208 52 131 52 c 0
 89 52 70 100 70 140 c 0
 70 224.921068136 148.250735823 302.799570049 166.311872707 330.026800287 c 1
 199.452106868 310.830153528 242.324772772 300.49594034 282 300 c 0
 319.493834189 299.318293924 385.800505184 308.395774508 448.289137984 335.469361654 c 1
 460.900073944 310.242289144 468 281.730508018 468 251 c 0
420.191668823 376.863633276 m 1
 378.593246259 365.879895937 323.584728583 357 253 357 c 0
 207 357 156 367 156 402 c 0
 156 423 210 441 270 441 c 0
 333.947265625 441 381.450036551 420.419499506 420.191668823 376.863633276 c 1
493.322785092 358.89909073 m 1
 506.240977656 366.930851159 518.583106852 375.935107357 530 386 c 0
 535 391 538 395.0234375 538 402 c 0
 538 410 533.799804688 418 526 418 c 0
 521.579429713 418 503.870679092 406.079720584 469.504759799 392.778048352 c 1
 416.795974507 456.837972484 335.248873568 497 245 497 c 0
 191 497 109 463 109 415 c 0
 109 398.882805618 113.533317281 384.325462343 121.459162079 371.414067517 c 1
 85.7067065502 346.84430503 35 279.549946911 35 170 c 0
 35 86 65 -14 150 -14 c 0
 235 -14 263 74 277 74 c 0
 286 74 290 -14 370 -14 c 0
 474 -14 531 117 531 221 c 0
 531 271.737894168 517.248216322 318.667602087 493.322785092 358.89909073 c 1
EndSplineSet
Validated: 41
EndChar

StartChar: uni03E1
Encoding: 993 993 2691
Width: 531
VWidth: 0
Flags: W
HStem: -174 21G<391.375 407.73>
VStem: 424 57<-77.7462 169.663>
LayerCount: 3
Back
SplineSet
119 47 m 0
 119 57 125.727539062 66.212890625 136 72 c 18
 420 232 l 10
 428.294921875 236.673828125 430.386149405 220.808760825 434 212 c 24
 436.828125 205.106445312 442.115234375 197.256835938 436 193 c 18
 199 28 l 10
 185.541992188 18.630859375 169 10 161 10 c 8
 139.170898438 10 119 42 119 47 c 0
23 281 m 0
 23 291 29.1943359375 301.282226562 40 306 c 18
 324 430 l 10
 332.725585938 433.809570312 334.386149405 418.808760825 338 410 c 24
 340.828125 403.106445312 346.517578125 394.611328125 340 391 c 18
 100 258 l 10
 85.65625 250.051757812 70 240 62 240 c 8
 39.931640625 240 23 276 23 281 c 0
108 676 m 0
 336 590 481 331.534179688 481 46 c 16
 481 -28.3603515625 477.17663384 -80.2040542276 449 -154 c 24
 441.249023438 -174.298828125 418.459960938 -174 397 -174 c 8
 385.750976562 -174 381 -160.610351562 381 -150 c 0
 381 -140 424 -32.2578125 424 46 c 16
 424 307.809570312 294 538 75 620 c 0
 56.8555093092 626.793827565 47 629 47 639 c 0
 47 664.9296875 79.0830078125 686.907226562 108 676 c 0
EndSplineSet
Fore
SplineSet
108 676 m 0
 336 590 481 331.534179688 481 46 c 0
 481 -28.3603515625 477.17663384 -80.2040542276 449 -154 c 0
 441.249023438 -174.298828125 418.459960938 -174 397 -174 c 0
 385.750976562 -174 381 -160.610351562 381 -150 c 0
 381 -140 424 -32.2578125 424 46 c 0
 424 90.7371018432 420.204159031 134.55096346 412.817041862 176.859965853 c 1
 199 28 l 2
 185.541992188 18.630859375 169 10 161 10 c 0
 139.170898438 10 119 42 119 47 c 0
 119 57 125.727539062 66.212890625 136 72 c 2
 403.295384071 222.588948772 l 1
 388.735877655 282.575911988 366.696924389 338.910327052 337.813062903 389.788072358 c 1
 100 258 l 2
 85.65625 250.051757812 70 240 62 240 c 0
 39.931640625 240 23 276 23 281 c 0
 23 291 29.1943359375 301.282226562 40 306 c 2
 315.332388702 426.215549996 l 1
 256.356827698 514.288555359 174.946942779 582.5769438 75 620 c 0
 56.8555093092 626.793827565 47 629 47 639 c 0
 47 664.9296875 79.0830078125 686.907226562 108 676 c 0
EndSplineSet
Validated: 33
EndChar

StartChar: uni03F0
Encoding: 822 1008 2473
Width: 468
Flags: W
HStem: -15 73<335.992 420.966> 328 86<60.9908 119.806>
VStem: 55 83<3.67376 79.6501> 130 35<194.206 316.014> 257 41<102.883 212.123>
LayerCount: 3
Fore
SplineSet
304 228 m 0xd8
 302 217 298 203 298 190 c 0
 298 127 325 58 388 58 c 0
 424 58 450 109 455 109 c 0
 461 109 463 104 463 100 c 0
 463 25 408 -15 365 -15 c 0
 301 -15 257 45 257 109 c 0
 257 153 269 194 280 218 c 0
 282 223 274 226 269 220 c 0
 243 190 209 160 170 114 c 0
 155 96 143 71 138 54 c 0
 129 24 118 -14 104 -14 c 0
 87 -14 55 23 55 42 c 0xe8
 55 63 105 106 120 144 c 0
 131 172 130 204 130 256 c 0
 130 277 128 328 82 328 c 0
 51 328 42 315 35 315 c 0
 28 315 25 317 25 327 c 0
 25 359 68 414 103 414 c 0
 152 414 165 376 165 307 c 0
 165 255 162 238 157 201 c 0
 156 197 159 194 162 194 c 0
 165 194 168 194 178 202 c 0
 203 223 248 262 276 290 c 0
 294 308 304 325 308 332 c 0
 338 383 371 414 381 414 c 0
 401 414 424 395 424 372 c 0
 424 356 410 344 390 326 c 0
 356 295 340 278 314 250 c 0
 308 243 305 235 304 228 c 0xd8
EndSplineSet
Validated: 33
EndChar

StartChar: uni0418
Encoding: 851 1048 1139
Width: 803
VWidth: 0
Flags: W
HStem: -5 29<37.6924 109.801 239.608 321.308 516.692 591.234 715.083 786.308> 622 31<45.0745 116.701 235.842 309.926 519.074 592.942 713.673 783.926>
VStem: 130 80<42.739 115.781 169.685 603.314> 616 81<40.3385 484.994 533.234 605.916>
AnchorPoint: "top_accent" 418 700 basechar 0
LayerCount: 3
Back
SplineSet
207 -2 m 0
 164 -2 102 -5 48 -5 c 0
 31 -5 19 -2 19 6 c 0
 19 15 29 20 52 24 c 0
 102 33 130 40 130 88 c 2
 130 551 l 2
 130 597 117 613 67 622 c 0
 44 626 34 633 34 642 c 0
 34 650 46 653 63 653 c 0
 117 653 132 650 176 650 c 24
 217 650 228 653 282 653 c 0
 299 653 311 650 311 642 c 0
 311 633 301 626 278 622 c 0
 228 613 210 590 210 551 c 2
 210 94 l 2
 210 66 213 64 234 98 c 2
 576 627 l 2
 584 639 596 652 613 652 c 16
 668 652 724 653 778 653 c 0
 795 653 807 650 807 642 c 0
 807 633 797 626 774 622 c 0
 724 613 697 602 697 564 c 2
 697 100 l 2
 697 51 714 33 764 24 c 0
 787 20 797 15 797 6 c 0
 797 -2 785 -5 768 -5 c 0
 714 -5 697 0 652 0 c 24
 610 0 599 -5 545 -5 c 0
 528 -5 516 -2 516 6 c 0
 516 15 526 20 549 24 c 0
 591 32 616 46 616 85 c 2
 616 556 l 2
 616 588 609 591 590 561 c 2
 245 26 l 2
 230 2 228 -2 207 -2 c 0
EndSplineSet
Fore
SplineSet
210 551 m 2
 210 181 l 2
 210 167 213.8984375 163.103515625 221 170 c 2
 601 539 l 2
 611.212890625 548.783203125 616 557 616 562 c 0
 616 596 594 614 551 622 c 0
 528 626 518 633 518 642 c 0
 518 650 530 653 547 653 c 0
 601 653 617.745117188 650 663 650 c 24
 699.2890625 650 702 653 756 653 c 0
 773 653 785 650 785 642 c 0
 785 633 775 626 752 622 c 0
 702 613 697 590 697 552 c 2
 697 100 l 2
 697 51 704 33 754 24 c 0
 777 20 787 15 787 6 c 0
 787 -2 775 -5 758 -5 c 0
 704 -5 693.385742188 0 652 0 c 24
 610.224609375 0 599 -5 545 -5 c 0
 528 -5 516 -2 516 6 c 0
 516 15 526 20 549 24 c 0
 591 32 616 46 616 85 c 2
 616 434 l 2
 616 477 616 485 612 485 c 0
 611 485 608.0390625 482.9609375 606 481 c 2
 218 104 l 2
 209.884765625 96.1142578125 211 97 211 85 c 0
 211 43 243 32 289 24 c 0
 312 20 322 15 322 6 c 0
 322 -2 310 -5 293 -5 c 0
 239 -5 221.671875 0 176 0 c 24
 133.055664062 0 120 -5 66 -5 c 0
 49 -5 37 -2 37 6 c 0
 37 15 47 20 70 24 c 0
 120 33 130 51 130 99 c 2
 130 551 l 2
 130 597 127 613 77 622 c 0
 54 626 44 633 44 642 c 0
 44 650 56 653 73 653 c 0
 127 653 135.8125 650 176 650 c 24
 217.356445312 650 228 653 282 653 c 0
 299 653 311 650 311 642 c 0
 311 633 301 626 278 622 c 0
 228 613 210 590 210 551 c 2
EndSplineSet
Validated: 1
EndChar

StartChar: uni0424
Encoding: 863 1060 1133
Width: 739
VWidth: 0
Flags: W
HStem: -27 29<218.692 308.75 429.75 520.308> 76 33<254.976 329 409 490.936> 574 31<248.852 329 409 482.422> 669 31<230.074 313.247 426.846 511.926>
VStem: 40 92<242.58 450.636> 329 80<16.375 76 109 574 605 655.453> 607 92<249.186 454.175>
LayerCount: 3
Fore
SplineSet
329 54 m 2
 329 76 l 1
 164 76 40 191.755 40 346 c 24
 40 497.35 162 605 329 605 c 1
 329 629 l 2
 329 649 312 660 262 669 c 0
 239 673 229 680 229 689 c 0
 229 697 241 700 258 700 c 0
 312 700 329.355 697 375 697 c 24
 417.526 697 430 700 484 700 c 0
 501 700 513 697 513 689 c 0
 513 680 503 673 480 669 c 0
 430 660 409 649 409 629 c 2
 409 605 l 1
 572 605 699 507.311 699 359 c 24
 699 200.971 578 76 409 76 c 1
 409 54 l 2
 409 14 438 11 488 2 c 0
 511 -2 521 -7 521 -16 c 0
 521 -24 509 -27 492 -27 c 0
 438 -27 420.672 -22 375 -22 c 24
 325.042 -22 301 -27 247 -27 c 0
 230 -27 218 -24 218 -16 c 0
 218 -7 228 -2 251 2 c 0
 301 11 329 14 329 54 c 2
409 574 m 1
 409 107 l 1
 541 107 607 222.857 607 343 c 24
 607 461.655 544 574 409 574 c 1
329 109 m 1
 329 574 l 1
 201 574 132 478.446 132 367 c 24
 132 240.401 190 109 329 109 c 1
EndSplineSet
Validated: 1
EndChar

StartChar: uni0427
Encoding: 1063 1063 1157
Width: 680
VWidth: 0
Flags: W
HStem: -5 29<368.692 439.913 566.672 637.308> 279 45<228.166 414.435> 622 31<17.0745 88.7015 207.842 281.926 371.074 443.514 565.262 634.926>
VStem: 102 80<367.213 603.407> 470 80<45.3025 329.182 357.754 603.059>
LayerCount: 3
Fore
SplineSet
102 413 m 2
 102 552 l 2
 102 597 99 613 49 622 c 0
 26 626 16 633 16 642 c 0
 16 650 28 653 45 653 c 0
 99 653 108 650 148 650 c 24
 189 650 200 653 254 653 c 0
 271 653 283 650 283 642 c 0
 283 633 273 626 250 622 c 0
 200 613 182 590 182 552 c 2
 182 426 l 2
 182 370 225 324 318 324 c 0
 378 324 444 352 461 366 c 0
 468 371 470 379 470 390 c 2
 470 552 l 2
 470 588 453 613 403 622 c 0
 380 626 370 633 370 642 c 0
 370 650 382 653 399 653 c 0
 453 653 470 650 516 650 c 24
 552 650 553 653 607 653 c 0
 624 653 636 650 636 642 c 0
 636 633 626 626 603 622 c 0
 553 613 550 590 550 552 c 2
 550 100 l 2
 550 51 555 33 605 24 c 0
 628 20 638 15 638 6 c 0
 638 -2 626 -5 609 -5 c 0
 555 -5 545 0 504 0 c 24
 462 0 451 -5 397 -5 c 0
 380 -5 368 -2 368 6 c 0
 368 15 378 20 401 24 c 0
 443 32 470 54 470 98 c 2
 470 313 l 2
 470 329 467 333 464 329 c 0
 452 314 384 279 294 279 c 0
 169 279 102 323 102 413 c 2
EndSplineSet
Validated: 1
EndChar

StartChar: uni0429
Encoding: 868 1065 1146
Width: 1034
VWidth: 0
Flags: W
HStem: -5 29<19.6924 97.1038> 0 41<223.912 466.883 567.223 807.163> 622 31<32.0745 108.103 236.543 313.926 379.074 455.441 583.205 660.926 725.074 801.441 929.205 1006.93>
VStem: 130 82<51.8818 604.995> 478 80<52.0151 604.481> 824 81<56.993 604.995> 945 47<-204.591 -33.1461>
LayerCount: 3
Fore
SplineSet
1003 42 m 0x7e
 1015 42 1024 32 1024 20 c 16
 1024 -5 996 -80 992 -174 c 0
 991 -190 982 -205 966 -205 c 8
 947 -205 945 -182 945 -162 c 2
 945 -139 l 2
 945 -25 923 0 857 0 c 2
 857 0 628 1 522 1 c 0
 416 1 310 1 176 0 c 8x7e
 126 0 102 -5 48 -5 c 0
 31 -5 19 -2 19 6 c 0
 19 15 29 20 52 24 c 0xbe
 102 33 130 50 130 97 c 2
 130 549 l 2
 130 597 114 613 64 622 c 0
 41 626 31 633 31 642 c 0
 31 650 43 653 60 653 c 0
 114 653 131 650 177 650 c 24
 220 650 232 653 286 653 c 0
 303 653 315 650 315 642 c 0
 315 633 305 626 282 622 c 0
 232 613 212 597 212 549 c 2
 212 99 l 2
 212 67 233 41 264 41 c 2
 411 41 l 2
 473 41 478 77 478 106 c 2
 478 548 l 2
 478 597 461 613 411 622 c 0
 388 626 378 633 378 642 c 0
 378 650 390 653 407 653 c 0
 461 653 478 650 524 650 c 24
 567 650 579 653 633 653 c 0
 650 653 662 650 662 642 c 0
 662 633 652 626 629 622 c 0
 579 613 558 598 558 550 c 2
 558 92 l 2
 558 74 564 41 620 41 c 2
 766 41 l 2
 801 41 824 77 824 106 c 2
 824 549 l 2
 824 597 807 613 757 622 c 0
 734 626 724 633 724 642 c 0
 724 650 736 653 753 653 c 0
 807 653 824 650 870 650 c 24
 913 650 925 653 979 653 c 0
 996 653 1008 650 1008 642 c 0
 1008 633 998 626 975 622 c 0
 925 613 904 597 904 550 c 2
 905 95 l 2
 905 48 949 42 1003 42 c 0x7e
EndSplineSet
Validated: 1
EndChar

StartChar: uni042D
Encoding: 872 1069 1153
Width: 642
VWidth: 0
Flags: W
HStem: -15 30<191.731 350.595> 271 64<337.542 452.096> 316 62<195.836 310.168> 632 32<188.005 353.85>
VStem: 46 33<108.529 166.706> 56 28<471.876 533.075> 499 97<218.135 326.135>
LayerCount: 3
Fore
SplineSet
499 363 m 0xda
 490 502 418 632 276 632 c 0
 184 632 145 591 135 581 c 0
 123 570 92 534 84 502 c 0
 81 489 78 472 67 471 c 0
 57 470 56 485 56 494 c 0
 57 526 65 574 71 603 c 0
 74 617 76 633 84 633 c 0xd6
 101 634 141 647 160 651 c 0
 203 660 259 664 291 664 c 8
 464 664 596 514 596 341 c 16
 596 163 471 -15 287 -15 c 16
 227 -15 155 -9 118 5 c 0
 93 14 70 26 62 51 c 0
 55 74 46 117 46 143 c 0
 46 154 50 167 58 168 c 1
 59 168 l 2
 65 168 75 155 79 143 c 0
 87 121 100 95 121 76 c 0
 156 44 198 15 279 15 c 0
 427 15 492 169 499 317 c 0
 500 325 495 329 492 326 c 0
 458 288 415 271 381 271 c 0xda
 332 271 292 316 249 316 c 0
 199 316 174 303 157 295 c 0
 151 292 146 300 146 306 c 0
 146 309 200 378 251 378 c 0xba
 324 378 358 335 405 335 c 0
 439 335 470 341 491 353 c 0
 496 356 500 355 499 363 c 0xda
EndSplineSet
Validated: 1
EndChar

StartChar: uni042F
Encoding: 874 1071 1085
Width: 688
VWidth: 0
Flags: W
HStem: -18 43<25.6246 117.754> -5 29<18.5312 95.8216 367.692 443.52 591.602 669.308> 298 35<367.275 466.558> 626 31<331.072 486.132 590.377 661.965>
VStem: 153 96<394.51 557.896> 478 80<47.8421 297.339 344.285 600.43>
LayerCount: 3
Fore
SplineSet
413 657 m 8xbc
 456.375976562 657 484 650 524 650 c 8
 566.526367188 650 579 653 633 653 c 0
 650 653 662 650 662 642 c 0
 662 633 652 626 629 622 c 0
 579 613 558 597 558 550 c 2
 558 98 l 2
 558 51 587 33 637 24 c 0
 660 20 670 15 670 6 c 0
 670 -2 658 -5 641 -5 c 0
 587 -5 569.671875 0 524 0 c 24
 474.041992188 0 450 -5 396 -5 c 0
 379 -5 367 -2 367 6 c 0
 367 15 377 20 400 24 c 0x7c
 450 33 478 56 478 98 c 2
 478 267 l 2
 478 300 462 298 429 298 c 0
 410 298 383.200195312 294.5 363.200195312 278.5 c 0
 340.200195312 259.5 295 234 223 64 c 0
 198 6 154 -18 97 -18 c 0
 72 -18 38 -9 25 0 c 0
 21 3 18 8 18 13 c 0
 18 19 22 25 28 25 c 0
 137 26 143 70 169 122 c 0
 199 182 242.199996948 279.5 323.200195312 298.5 c 0
 328.164471676 299.664457036 327.634765625 302.116210938 311.200195312 303.5 c 0
 216.200195312 311.5 153 398 153 470 c 0
 153 607 270 657 413 657 c 8xbc
249 489 m 16
 249 415 279.200195312 371.5 305.200195312 356.5 c 0
 323.200195312 346.5 353 333 403 333 c 0
 421 333 458 338 467 344 c 0
 476 350 478 361 478 372 c 2
 478 550 l 2
 478 567 475 589 463 601 c 0
 452 612 424 626 399 626 c 8
 319.772460938 626 249 568.227539062 249 489 c 16
EndSplineSet
Validated: 33
EndChar

StartChar: uni0434
Encoding: 879 1076 1955
Width: 455
VWidth: 0
Flags: W
HStem: 0 37<114.287 294.775> 367 33<175.549 292.601> 375 28<63.0709 116.201 379.387 427.929>
VStem: 29 41<-138.987 -8.91727> 133 40<144.355 363.24> 295 70<38.6093 366.981> 373 41<-138.987 -3.33649>
LayerCount: 3
Fore
SplineSet
35 38 m 0xbe
 70 38 92 66 103 94 c 0
 112 118 133 189 133 319 c 0
 133 358 113 368 80 375 c 0
 74 376 63 380 63 390 c 0
 63 398 81 403 85 403 c 0xbe
 110 403 116 400 139 400 c 2
 348 400 l 2xde
 371 400 381 403 406 403 c 0
 410 403 428 398 428 390 c 0
 428 380 417 376 411 375 c 0
 378 368 365 359 365 300 c 2
 365 80 l 2
 365 53 366 38 395 38 c 0
 401 38 414 40 424 40 c 0
 434 40 442 38 442 31 c 0
 442 30 442 28 441 26 c 0
 433 6 418 -14 414 -108 c 0
 413 -124 401 -139 394 -139 c 0
 377 -139 373 -121 373 -103 c 0
 373 -88 374 -73 374 -60 c 0
 374 -6 363 0 332 0 c 2
 125 0 l 2
 91 0 69 -13 69 -76 c 0
 69 -85 70 -93 70 -103 c 0
 70 -121 66 -139 49 -139 c 0
 42 -139 30 -124 29 -108 c 0
 25 -14 2 4 2 26 c 0
 2 38 8 40 15 40 c 0
 22 40 30 38 35 38 c 0xbe
127 37 m 2
 264 37 l 2
 291 37 295 37 295 64 c 2
 295 323 l 2
 295 334 295 367 279 367 c 2
 190 367 l 2xde
 173 367 173 334 173 323 c 0
 173 218 160 129 116 49 c 1
 116 49 113 46 113 43 c 0
 113 40 116 37 127 37 c 2
EndSplineSet
Validated: 1
Substitution2: "cyrillic_DLLj subtable" uni0434.alt
EndChar
